Lora Devanagari-Regular.ufo
<glyph name="space" format="1">
  <advance width="264"/>
  <unicode hex="0020"/>
  <outline>
    <contour>
      <point x="185" y="0" type="move" name="bottom"/>
    </contour>
    <contour>
      <point x="185" y="567" type="move" name="top"/>
    </contour>
    <contour>
      <point x="454" y="664" type="move" name="mark0"/>
    </contour>
  </outline>
</glyph>
<glyph name="numbersign" format="1">
  <advance width="830"/>
  <unicode hex="0023"/>
  <outline>
    <contour>
      <point x="602.221" y="722" type="line"/>
      <point x="558.221" y="535" type="line"/>
      <point x="355.562" y="535" type="line"/>
      <point x="398.562" y="722" type="line"/>
      <point x="322.221" y="722" type="line"/>
      <point x="278.221" y="535" type="line"/>
      <point x="111.357" y="535" type="line"/>
      <point x="92.1566" y="463" type="line"/>
      <point x="261.377" y="463" type="line"/>
      <point x="209.234" y="244" type="line"/>
      <point x="45.3566" y="244" type="line"/>
      <point x="26.1566" y="172" type="line"/>
      <point x="192.423" y="172" type="line"/>
      <point x="147.423" y="-22" type="line"/>
      <point x="229.816" y="-22" type="line"/>
      <point x="273.816" y="172" type="line"/>
      <point x="472.423" y="172" type="line"/>
      <point x="427.423" y="-22" type="line"/>
      <point x="509.816" y="-22" type="line"/>
      <point x="553.816" y="172" type="line"/>
      <point x="717.643" y="172" type="line"/>
      <point x="736.843" y="244" type="line"/>
      <point x="569.525" y="244" type="line"/>
      <point x="618.824" y="463" type="line"/>
      <point x="784.696" y="463" type="line"/>
      <point x="801" y="527.128" type="line"/>
      <point x="801" y="535" type="line"/>
      <point x="635.562" y="535" type="line"/>
      <point x="678.562" y="722" type="line"/>
    </contour>
    <contour>
      <point x="489.215" y="244" type="line"/>
      <point x="289.525" y="244" type="line"/>
      <point x="338.824" y="463" type="line"/>
      <point x="540.409" y="463" type="line"/>
    </contour>
  </outline>
</glyph>
<glyph name="percent" format="1">
  <advance width="870"/>
  <unicode hex="0025"/>
  <outline>
    <contour>
      <point x="123" y="18" type="line"/>
      <point x="165" y="-17" type="line"/>
      <point x="732" y="676" type="line"/>
      <point x="687" y="716" type="line"/>
    </contour>
    <contour>
      <point x="100" y="714"/>
      <point x="36" y="616"/>
      <point x="36" y="522" type="curve" smooth="yes"/>
      <point x="36" y="426"/>
      <point x="98" y="335"/>
      <point x="217" y="335" type="curve" smooth="yes"/>
      <point x="319" y="335"/>
      <point x="401" y="429"/>
      <point x="401" y="532" type="curve" smooth="yes"/>
      <point x="401" y="624"/>
      <point x="341" y="719"/>
      <point x="217" y="716" type="curve" smooth="yes"/>
    </contour>
    <contour>
      <point x="293" y="681"/>
      <point x="315" y="583"/>
      <point x="315" y="516" type="curve" smooth="yes"/>
      <point x="315" y="454"/>
      <point x="293" y="375"/>
      <point x="220" y="375" type="curve" smooth="yes"/>
      <point x="141" y="375"/>
      <point x="122" y="475"/>
      <point x="122" y="539" type="curve" smooth="yes"/>
      <point x="122" y="589"/>
      <point x="143" y="681"/>
      <point x="218" y="681" type="curve" smooth="yes"/>
    </contour>
    <contour>
      <point x="730" y="326"/>
      <point x="749" y="226"/>
      <point x="749" y="162" type="curve" smooth="yes"/>
      <point x="749" y="111"/>
      <point x="730" y="20"/>
      <point x="655" y="20" type="curve" smooth="yes"/>
      <point x="581" y="20"/>
      <point x="556" y="118"/>
      <point x="556" y="185" type="curve" smooth="yes"/>
      <point x="556" y="247"/>
      <point x="578" y="326"/>
      <point x="651" y="326" type="curve" smooth="yes"/>
    </contour>
    <contour>
      <point x="552" y="365"/>
      <point x="469" y="272"/>
      <point x="469" y="169" type="curve" smooth="yes"/>
      <point x="469" y="77"/>
      <point x="530" y="-18"/>
      <point x="654" y="-16" type="curve" smooth="yes"/>
      <point x="771" y="-14"/>
      <point x="835" y="85"/>
      <point x="835" y="178" type="curve" smooth="yes"/>
      <point x="835" y="274"/>
      <point x="773" y="365"/>
      <point x="654" y="365" type="curve" smooth="yes"/>
    </contour>
  </outline>
</glyph>
<glyph name="quotesingle" format="1">
  <advance width="208"/>
  <unicode hex="0027"/>
  <outline>
    <contour>
      <point x="56.7544" y="722" type="line"/>
      <point x="66.2344" y="485" type="line"/>
      <point x="141.766" y="485" type="line"/>
      <point x="151.246" y="722" type="line"/>
    </contour>
  </outline>
</glyph>
<glyph name="two" format="1">
  <advance width="537"/>
  <unicode hex="0032"/>
  <outline>
    <contour>
      <point x="121" y="716"/>
      <point x="50" y="627"/>
      <point x="50" y="570" type="curve" smooth="yes"/>
      <point x="50" y="541"/>
      <point x="66" y="516"/>
      <point x="96" y="515" type="curve" smooth="yes"/>
      <point x="132" y="514"/>
      <point x="145" y="544"/>
      <point x="145" y="562" type="curve" smooth="yes"/>
      <point x="145" y="576"/>
      <point x="140" y="592"/>
      <point x="127" y="606" type="curve"/>
      <point x="141" y="646"/>
      <point x="188" y="677"/>
      <point x="243" y="677" type="curve" smooth="yes"/>
      <point x="339" y="677"/>
      <point x="366" y="597"/>
      <point x="366" y="522" type="curve" smooth="yes"/>
      <point x="366" y="457"/>
      <point x="330" y="388"/>
      <point x="243" y="305" type="curve" smooth="yes"/>
      <point x="143" y="209"/>
      <point x="46" y="141"/>
      <point x="46" y="0" type="curve"/>
      <point x="479" y="0" type="line"/>
      <point x="485" y="140" type="line"/>
      <point x="455" y="140" type="line"/>
      <point x="455" y="62"/>
      <point x="385" y="68"/>
      <point x="288" y="71" type="curve" smooth="yes"/>
      <point x="111" y="76" type="line"/>
      <point x="120" y="122"/>
      <point x="182" y="191"/>
      <point x="273" y="266" type="curve" smooth="yes"/>
      <point x="416" y="382"/>
      <point x="469" y="467"/>
      <point x="469" y="535" type="curve" smooth="yes"/>
      <point x="469" y="670"/>
      <point x="365" y="716"/>
      <point x="259" y="716" type="curve" smooth="yes"/>
    </contour>
  </outline>
</glyph>
<glyph name="six" format="1">
  <advance width="578"/>
  <unicode hex="0036"/>
  <outline>
    <contour>
      <point x="100" y="716"/>
      <point x="56" y="448"/>
      <point x="56" y="329" type="curve" smooth="yes"/>
      <point x="56" y="117"/>
      <point x="117" y="-16"/>
      <point x="295" y="-16" type="curve" smooth="yes"/>
      <point x="429" y="-16"/>
      <point x="529" y="88"/>
      <point x="529" y="213" type="curve" smooth="yes"/>
      <point x="529" y="314"/>
      <point x="478" y="437"/>
      <point x="318" y="437" type="curve" smooth="yes"/>
      <point x="240" y="437"/>
      <point x="183" y="397"/>
      <point x="150" y="353" type="curve"/>
      <point x="153" y="448"/>
      <point x="177" y="679"/>
      <point x="330" y="679" type="curve" smooth="yes"/>
      <point x="385" y="679"/>
      <point x="422" y="645"/>
      <point x="429" y="621" type="curve"/>
      <point x="421" y="607"/>
      <point x="417" y="592"/>
      <point x="417" y="579" type="curve" smooth="yes"/>
      <point x="417" y="562"/>
      <point x="428" y="536"/>
      <point x="462" y="537" type="curve" smooth="yes"/>
      <point x="491" y="539"/>
      <point x="505" y="561"/>
      <point x="505" y="589" type="curve" smooth="yes"/>
      <point x="505" y="639"/>
      <point x="447" y="716"/>
      <point x="328" y="716" type="curve" smooth="yes"/>
    </contour>
    <contour>
      <point x="409" y="392"/>
      <point x="428" y="266"/>
      <point x="428" y="191" type="curve" smooth="yes"/>
      <point x="428" y="103"/>
      <point x="391" y="23"/>
      <point x="297" y="23" type="curve" smooth="yes"/>
      <point x="192" y="23"/>
      <point x="158" y="155"/>
      <point x="151" y="282" type="curve"/>
      <point x="170" y="339"/>
      <point x="234" y="392"/>
      <point x="297" y="392" type="curve" smooth="yes"/>
    </contour>
  </outline>
</glyph>
<glyph name="less" format="1">
  <advance width="542"/>
  <unicode hex="003C"/>
  <outline>
    <contour>
      <point x="34" y="346" type="line"/>
      <point x="34" y="279" type="line"/>
      <point x="479" y="85" type="line"/>
      <point x="479" y="149" type="line"/>
      <point x="102" y="316" type="line"/>
      <point x="479" y="482" type="line"/>
      <point x="479" y="544" type="line"/>
    </contour>
  </outline>
</glyph>
<glyph name="question" format="1">
  <advance width="474"/>
  <unicode hex="003F"/>
  <outline>
    <contour>
      <point x="107.131" y="722"/>
      <point x="28" y="637.663"/>
      <point x="28" y="577" type="curve"/>
      <point x="28" y="546.007"/>
      <point x="44.4439" y="520.167"/>
      <point x="75.656" y="518.014" type="curve"/>
      <point x="110.715" y="516.913"/>
      <point x="127" y="548.32"/>
      <point x="127" y="567" type="curve"/>
      <point x="127" y="582.393"/>
      <point x="121.921" y="596.443"/>
      <point x="115.373" y="607.353" type="curve"/>
      <point x="121.85" y="636.318"/>
      <point x="165.926" y="671"/>
      <point x="220" y="671" type="curve"/>
      <point x="311.186" y="671"/>
      <point x="338.955" y="615.462"/>
      <point x="337.002" y="544.164" type="curve"/>
      <point x="332.159" y="396.956"/>
      <point x="141" y="349.848"/>
      <point x="141" y="255" type="curve"/>
      <point x="141" y="201.819"/>
      <point x="186.143" y="182"/>
      <point x="226" y="182" type="curve"/>
      <point x="251.846" y="182"/>
      <point x="288.628" y="188.974"/>
      <point x="310.369" y="203.163" type="curve"/>
      <point x="294.74" y="248.75" type="line"/>
      <point x="283.162" y="242.485"/>
      <point x="266.154" y="240"/>
      <point x="255" y="240" type="curve"/>
      <point x="226.565" y="240"/>
      <point x="218" y="253.306"/>
      <point x="218" y="267" type="curve"/>
      <point x="218" y="329.453"/>
      <point x="432.708" y="401.355"/>
      <point x="441.989" y="541.604" type="curve"/>
      <point x="446.087" y="626.639"/>
      <point x="392.643" y="722"/>
      <point x="235" y="722" type="curve"/>
    </contour>
    <contour>
      <point x="203.222" y="108"/>
      <point x="173" y="77.7782"/>
      <point x="173" y="43" type="curve"/>
      <point x="173" y="2.84918"/>
      <point x="203.497" y="-22"/>
      <point x="232" y="-22" type="curve"/>
      <point x="264.954" y="-22"/>
      <point x="291" y="7.44327"/>
      <point x="291" y="43" type="curve"/>
      <point x="291" y="77.5654"/>
      <point x="263.947" y="108"/>
      <point x="232" y="108" type="curve"/>
    </contour>
  </outline>
</glyph>
<glyph name="B" format="1">
  <advance width="622"/>
  <unicode hex="0042"/>
  <outline>
    <contour>
      <point x="199" y="702"/>
      <point x="125" y="701"/>
      <point x="51" y="700" type="curve"/>
      <point x="48" y="700" type="line"/>
      <point x="48" y="652" type="line"/>
      <point x="123" y="656" type="line"/>
      <point x="120" y="656" type="line"/>
      <point x="118" y="638"/>
      <point x="117" y="613"/>
      <point x="117" y="579" type="curve"/>
      <point x="117" y="163" type="line"/>
      <point x="117" y="87"/>
      <point x="123" y="37"/>
      <point x="51" y="37" type="curve"/>
      <point x="48" y="37" type="line"/>
      <point x="48" y="0" type="line"/>
      <point x="347" y="0" type="line"/>
      <point x="486" y="0"/>
      <point x="590" y="75"/>
      <point x="590" y="198" type="curve"/>
      <point x="590" y="299"/>
      <point x="513.768" y="374.601"/>
      <point x="365.028" y="375.981" type="curve"/>
      <point x="362" y="375.981" type="line"/>
      <point x="362" y="374.647" type="line"/>
      <point x="365.568" y="374.647" type="line"/>
      <point x="477.67" y="396.24"/>
      <point x="532" y="465"/>
      <point x="533" y="529" type="curve"/>
      <point x="535" y="647"/>
      <point x="439" y="702"/>
      <point x="281" y="702" type="curve"/>
    </contour>
    <contour>
      <point x="402.603" y="345"/>
      <point x="479" y="314"/>
      <point x="479" y="192" type="curve"/>
      <point x="479" y="91"/>
      <point x="413" y="42"/>
      <point x="314" y="42" type="curve"/>
      <point x="301" y="42"/>
      <point x="244" y="41"/>
      <point x="212" y="44" type="curve"/>
      <point x="215" y="44" type="line"/>
      <point x="217" y="61"/>
      <point x="218" y="85"/>
      <point x="218" y="120" type="curve"/>
      <point x="218" y="342.234" type="line"/>
      <point x="215.18" y="342.234" type="line"/>
      <point x="245.978" y="344.088"/>
      <point x="275.748" y="345"/>
      <point x="314" y="345" type="curve"/>
    </contour>
    <contour>
      <point x="350" y="662"/>
      <point x="426" y="641"/>
      <point x="428" y="534" type="curve"/>
      <point x="429" y="459"/>
      <point x="392.261" y="388.901"/>
      <point x="283.877" y="387" type="curve"/>
      <point x="218" y="385.196" type="line"/>
      <point x="218" y="567" type="line"/>
      <point x="218" y="641"/>
      <point x="227" y="662"/>
      <point x="286" y="662" type="curve"/>
    </contour>
  </outline>
</glyph>
<glyph name="C" format="1">
  <advance width="699"/>
  <unicode hex="0043"/>
  <outline>
    <contour>
      <point x="155" y="715"/>
      <point x="39" y="523"/>
      <point x="39" y="339" type="curve"/>
      <point x="39" y="144"/>
      <point x="180" y="-15"/>
      <point x="386" y="-15" type="curve"/>
      <point x="472" y="-15"/>
      <point x="589" y="11"/>
      <point x="675" y="133" type="curve"/>
      <point x="640" y="158" type="line"/>
      <point x="585" y="80"/>
      <point x="498" y="41"/>
      <point x="412" y="41" type="curve"/>
      <point x="269" y="41"/>
      <point x="151" y="164"/>
      <point x="151" y="351" type="curve"/>
      <point x="151" y="548"/>
      <point x="263" y="670"/>
      <point x="400" y="670" type="curve"/>
      <point x="512" y="670"/>
      <point x="588" y="599"/>
      <point x="601" y="472" type="curve"/>
      <point x="604" y="472" type="line"/>
      <point x="651" y="472" type="line"/>
      <point x="651" y="708" type="line"/>
      <point x="583" y="708" type="line"/>
      <point x="588" y="651" type="line"/>
      <point x="599" y="654" type="line"/>
      <point x="538" y="694"/>
      <point x="470" y="715"/>
      <point x="393" y="715" type="curve"/>
    </contour>
    <contour>
      <point x="389" y="700" type="move" name="top"/>
    </contour>
    <contour>
      <point x="415" y="0" type="move" name="bottom"/>
    </contour>
  </outline>
</glyph>
<glyph name="E" format="1">
  <advance width="622"/>
  <unicode hex="0045"/>
  <outline>
    <contour>
      <point x="48" y="700" type="line"/>
      <point x="48" y="652" type="line"/>
      <point x="123" y="656" type="line"/>
      <point x="120" y="656" type="line"/>
      <point x="118" y="636"/>
      <point x="117" y="612"/>
      <point x="117" y="586" type="curve"/>
      <point x="117" y="158" type="line"/>
      <point x="117" y="86"/>
      <point x="123" y="38"/>
      <point x="51" y="37" type="curve"/>
      <point x="48" y="37" type="line"/>
      <point x="48" y="0" type="line"/>
      <point x="578" y="0" type="line"/>
      <point x="584" y="199" type="line"/>
      <point x="539" y="199" type="line"/>
      <point x="536" y="199" type="line"/>
      <point x="537" y="78"/>
      <point x="483" y="45"/>
      <point x="399" y="44" type="curve"/>
      <point x="212" y="41" type="line"/>
      <point x="215" y="41" type="line"/>
      <point x="217" y="58"/>
      <point x="218" y="83"/>
      <point x="218" y="117" type="curve"/>
      <point x="218" y="342.278" type="line"/>
      <point x="284.287" y="345.002" type="line"/>
      <point x="369.325" y="348.004"/>
      <point x="396.46" y="345.537"/>
      <point x="395.995" y="257" type="curve"/>
      <point x="398.995" y="257" type="line"/>
      <point x="443" y="257" type="line"/>
      <point x="443" y="471" type="line"/>
      <point x="384.847" y="471" type="line"/>
      <point x="391.844" y="385.038" type="line"/>
      <point x="218" y="385.963" type="line"/>
      <point x="218" y="542" type="line"/>
      <point x="218" y="623"/>
      <point x="219" y="657"/>
      <point x="287" y="659" type="curve"/>
      <point x="373" y="661" type="line"/>
      <point x="446" y="663"/>
      <point x="502" y="641"/>
      <point x="501" y="521" type="curve"/>
      <point x="504" y="521" type="line"/>
      <point x="548" y="521" type="line"/>
      <point x="543" y="700" type="line"/>
    </contour>
    <contour>
      <point x="560" y="5" type="move" name="ogonek"/>
    </contour>
    <contour>
      <point x="372" y="0" type="move" name="bottom"/>
    </contour>
    <contour>
      <point x="327" y="700" type="move" name="top"/>
    </contour>
  </outline>
</glyph>
<glyph name="F" format="1">
  <advance width="548"/>
  <unicode hex="0046"/>
  <outline>
    <contour>
      <point x="48" y="700" type="line"/>
      <point x="48" y="652" type="line"/>
      <point x="123" y="656" type="line"/>
      <point x="120" y="656" type="line"/>
      <point x="118" y="636"/>
      <point x="117" y="612"/>
      <point x="117" y="586" type="curve"/>
      <point x="117" y="158" type="line"/>
      <point x="117" y="86"/>
      <point x="123" y="38"/>
      <point x="51" y="37" type="curve"/>
      <point x="48" y="37" type="line"/>
      <point x="48" y="0" type="line"/>
      <point x="317" y="0" type="line"/>
      <point x="317" y="48" type="line"/>
      <point x="212" y="44" type="line"/>
      <point x="215" y="44" type="line"/>
      <point x="217" y="62"/>
      <point x="218" y="87"/>
      <point x="218" y="121" type="curve"/>
      <point x="218" y="327.335" type="line"/>
      <point x="271.35" y="330.002" type="line"/>
      <point x="355.226" y="333.997"/>
      <point x="383.471" y="330.675"/>
      <point x="382.995" y="241" type="curve"/>
      <point x="385.995" y="241" type="line"/>
      <point x="429" y="241" type="line"/>
      <point x="429" y="456" type="line"/>
      <point x="370.849" y="456" type="line"/>
      <point x="377.845" y="369.041" type="line"/>
      <point x="218" y="369.96" type="line"/>
      <point x="218" y="538" type="line"/>
      <point x="218" y="607"/>
      <point x="213" y="657"/>
      <point x="280" y="659" type="curve"/>
      <point x="353" y="661" type="line"/>
      <point x="426" y="663"/>
      <point x="485" y="641"/>
      <point x="484" y="521" type="curve"/>
      <point x="487" y="521" type="line"/>
      <point x="531" y="521" type="line"/>
      <point x="526" y="700" type="line"/>
    </contour>
  </outline>
</glyph>
<glyph name="I" format="1">
  <advance width="335"/>
  <unicode hex="0049"/>
  <outline>
    <contour>
      <point x="55" y="700" type="line"/>
      <point x="55" y="656" type="line"/>
      <point x="127" y="660" type="line"/>
      <point x="125" y="640"/>
      <point x="124" y="615"/>
      <point x="124" y="588" type="curve" smooth="yes"/>
      <point x="124" y="156" type="line" smooth="yes"/>
      <point x="124" y="85"/>
      <point x="130" y="36"/>
      <point x="55" y="33" type="curve"/>
      <point x="55" y="0" type="line"/>
      <point x="280" y="0" type="line"/>
      <point x="280" y="44" type="line"/>
      <point x="208" y="40" type="line"/>
      <point x="210" y="57"/>
      <point x="211" y="83"/>
      <point x="211" y="119" type="curve" smooth="yes"/>
      <point x="211" y="544" type="line" smooth="yes"/>
      <point x="211" y="615"/>
      <point x="205" y="664"/>
      <point x="280" y="667" type="curve"/>
      <point x="280" y="700" type="line"/>
    </contour>
    <contour>
      <point x="274" y="-0" type="move" name="ogonek"/>
    </contour>
    <contour>
      <point x="171" y="700" type="move" name="top"/>
    </contour>
  </outline>
</glyph>
<glyph name="J" format="1">
  <advance width="373"/>
  <unicode hex="004A"/>
  <outline>
    <contour>
      <point x="70" y="700" type="line"/>
      <point x="70" y="652" type="line"/>
      <point x="172" y="656" type="line"/>
      <point x="172" y="142" type="line"/>
      <point x="172" y="59"/>
      <point x="155" y="31"/>
      <point x="120" y="30" type="curve"/>
      <point x="111" y="29"/>
      <point x="96" y="32"/>
      <point x="88" y="44" type="curve"/>
      <point x="91" y="52"/>
      <point x="92" y="60"/>
      <point x="92" y="66" type="curve"/>
      <point x="92" y="85"/>
      <point x="80" y="114"/>
      <point x="41" y="112" type="curve"/>
      <point x="6" y="111"/>
      <point x="-9" y="83"/>
      <point x="-9" y="58" type="curve"/>
      <point x="-9" y="14"/>
      <point x="45" y="-15"/>
      <point x="104" y="-15" type="curve"/>
      <point x="224" y="-15"/>
      <point x="273" y="60"/>
      <point x="273" y="247" type="curve"/>
      <point x="273" y="566" type="line"/>
      <point x="273" y="624"/>
      <point x="284" y="665"/>
      <point x="347" y="663" type="curve"/>
      <point x="350" y="663" type="line"/>
      <point x="350" y="700" type="line"/>
    </contour>
    <contour>
      <point x="215" y="700" type="move" name="top"/>
    </contour>
  </outline>
</glyph>
<glyph name="M" format="1">
  <advance width="918"/>
  <unicode hex="004D"/>
  <outline>
    <contour>
      <point x="698" y="700" type="line"/>
      <point x="635" y="541"/>
      <point x="570" y="400"/>
      <point x="512" y="255" type="curve"/>
      <point x="498" y="218"/>
      <point x="476" y="166"/>
      <point x="462" y="132" type="curve"/>
      <point x="472" y="132" type="line"/>
      <point x="388" y="324"/>
      <point x="315" y="489"/>
      <point x="222" y="700" type="curve"/>
      <point x="56" y="700" type="line"/>
      <point x="56" y="653" type="line"/>
      <point x="128" y="656" type="line"/>
      <point x="106" y="127" type="line"/>
      <point x="104" y="77"/>
      <point x="99" y="36"/>
      <point x="40" y="37" type="curve"/>
      <point x="37" y="37" type="line"/>
      <point x="37" y="0" type="line"/>
      <point x="242" y="0" type="line"/>
      <point x="242" y="48" type="line"/>
      <point x="164" y="44" type="line"/>
      <point x="167" y="44" type="line"/>
      <point x="170" y="69"/>
      <point x="170" y="98"/>
      <point x="171" y="127" type="curve"/>
      <point x="173" y="262"/>
      <point x="179.001" y="447.095"/>
      <point x="181.997" y="542.938" type="curve"/>
      <point x="183.004" y="587.231" type="line"/>
      <point x="172.001" y="586.298" type="line"/>
      <point x="169.446" y="586.298" type="line"/>
      <point x="247.013" y="379.453"/>
      <point x="338" y="194"/>
      <point x="426" y="-4" type="curve"/>
      <point x="468" y="-4" type="line"/>
      <point x="693.489" y="545.25" type="line"/>
      <point x="698.14" y="558.863"/>
      <point x="703.149" y="568.882"/>
      <point x="706.499" y="577.257" type="curve"/>
      <point x="703.955" y="577.257" type="line"/>
      <point x="692.997" y="578.14" type="line"/>
      <point x="719" y="154" type="line"/>
      <point x="723" y="76"/>
      <point x="715" y="37"/>
      <point x="656" y="37" type="curve"/>
      <point x="653" y="37" type="line"/>
      <point x="653" y="0" type="line"/>
      <point x="891" y="0" type="line"/>
      <point x="891" y="48" type="line"/>
      <point x="815" y="45" type="line"/>
      <point x="818" y="45" type="line"/>
      <point x="818" y="62"/>
      <point x="818" y="83"/>
      <point x="816" y="105" type="curve"/>
      <point x="790" y="556" type="line"/>
      <point x="785" y="641"/>
      <point x="808" y="665"/>
      <point x="856" y="663" type="curve"/>
      <point x="859" y="663" type="line"/>
      <point x="859" y="700" type="line"/>
    </contour>
  </outline>
</glyph>
<glyph name="N" format="1">
  <advance width="762"/>
  <unicode hex="004E"/>
  <outline>
    <contour>
      <point x="528" y="700" type="line"/>
      <point x="528" y="652" type="line"/>
      <point x="603" y="656" type="line"/>
      <point x="600" y="656" type="line"/>
      <point x="598" y="636"/>
      <point x="597" y="612"/>
      <point x="597" y="586" type="curve"/>
      <point x="596" y="134" type="line"/>
      <point x="607" y="134" type="line"/>
      <point x="181" y="700" type="line"/>
      <point x="50" y="700" type="line"/>
      <point x="50" y="652" type="line"/>
      <point x="117" y="656" type="line"/>
      <point x="116" y="114" type="line"/>
      <point x="116" y="82"/>
      <point x="111" y="35"/>
      <point x="53" y="37" type="curve"/>
      <point x="50" y="37" type="line"/>
      <point x="50" y="0" type="line"/>
      <point x="247" y="0" type="line"/>
      <point x="247" y="48" type="line"/>
      <point x="172" y="44" type="line"/>
      <point x="175" y="44" type="line"/>
      <point x="177" y="76"/>
      <point x="177" y="108"/>
      <point x="177" y="141" type="curve"/>
      <point x="174" y="563" type="line"/>
      <point x="163" y="563" type="line"/>
      <point x="597" y="-16" type="line"/>
      <point x="657" y="-16" type="line"/>
      <point x="659" y="542" type="line"/>
      <point x="659" y="614"/>
      <point x="651" y="662"/>
      <point x="723" y="663" type="curve"/>
      <point x="726" y="663" type="line"/>
      <point x="726" y="700" type="line"/>
    </contour>
    <contour>
      <point x="395" y="700" type="move" name="top"/>
    </contour>
    <contour>
      <point x="381" y="0" type="move" name="bottom"/>
    </contour>
  </outline>
</glyph>
<glyph name="O" format="1">
  <advance width="794"/>
  <unicode hex="004F"/>
  <outline>
    <contour>
      <point x="152" y="716"/>
      <point x="39" y="515"/>
      <point x="39" y="350" type="curve"/>
      <point x="39" y="179"/>
      <point x="142" y="-16"/>
      <point x="402" y="-16" type="curve"/>
      <point x="644" y="-16"/>
      <point x="757" y="187"/>
      <point x="757" y="350" type="curve"/>
      <point x="757" y="514"/>
      <point x="644" y="716"/>
      <point x="394" y="716" type="curve"/>
    </contour>
    <contour>
      <point x="551" y="672"/>
      <point x="643" y="494"/>
      <point x="643" y="331" type="curve"/>
      <point x="643" y="185"/>
      <point x="562" y="29"/>
      <point x="404" y="29" type="curve"/>
      <point x="231" y="29"/>
      <point x="151" y="221"/>
      <point x="151" y="368" type="curve"/>
      <point x="151" y="515"/>
      <point x="232" y="672"/>
      <point x="391" y="672" type="curve"/>
    </contour>
    <contour>
      <point x="389" y="700" type="move" name="top"/>
    </contour>
  </outline>
</glyph>
<glyph name="P" format="1">
  <advance width="606"/>
  <unicode hex="0050"/>
  <outline>
    <contour>
      <point x="200" y="702"/>
      <point x="125" y="701"/>
      <point x="55" y="700" type="curve"/>
      <point x="55" y="656" type="line"/>
      <point x="127" y="660" type="line"/>
      <point x="125" y="640"/>
      <point x="124" y="615"/>
      <point x="124" y="588" type="curve" smooth="yes"/>
      <point x="124" y="156" type="line" smooth="yes"/>
      <point x="124" y="85"/>
      <point x="130" y="36"/>
      <point x="55" y="33" type="curve"/>
      <point x="55" y="0" type="line"/>
      <point x="300" y="0" type="line"/>
      <point x="300" y="45" type="line"/>
      <point x="208" y="40" type="line"/>
      <point x="210" y="57"/>
      <point x="211" y="83"/>
      <point x="211" y="119" type="curve" smooth="yes"/>
      <point x="211" y="264" type="line"/>
      <point x="224" y="263"/>
      <point x="241" y="263"/>
      <point x="247" y="263" type="curve" smooth="yes"/>
      <point x="521" y="263"/>
      <point x="585" y="404"/>
      <point x="580" y="508" type="curve" smooth="yes"/>
      <point x="574" y="636"/>
      <point x="471" y="702"/>
      <point x="278" y="702" type="curve" smooth="yes"/>
    </contour>
    <contour>
      <point x="398" y="663"/>
      <point x="483" y="615"/>
      <point x="483" y="489" type="curve" smooth="yes"/>
      <point x="483" y="372"/>
      <point x="390" y="302"/>
      <point x="276" y="302" type="curve" smooth="yes"/>
      <point x="251" y="302"/>
      <point x="236" y="302"/>
      <point x="211" y="305" type="curve"/>
      <point x="211" y="544" type="line" smooth="yes"/>
      <point x="211" y="615"/>
      <point x="205" y="663"/>
      <point x="276" y="663" type="curve" smooth="yes"/>
    </contour>
  </outline>
</glyph>
<glyph name="Q" format="1">
  <advance width="796"/>
  <unicode hex="0051"/>
  <outline>
    <contour>
      <point x="395" y="-16" type="line"/>
      <point x="459" y="-16"/>
      <point x="495" y="-81"/>
      <point x="585" y="-162" type="curve" smooth="yes"/>
      <point x="647" y="-218"/>
      <point x="682" y="-218"/>
      <point x="754" y="-218" type="curve" smooth="yes"/>
      <point x="786" y="-218" type="line"/>
      <point x="786" y="-185" type="line"/>
      <point x="747" y="-185"/>
      <point x="719" y="-157"/>
      <point x="626" y="-71" type="curve" smooth="yes"/>
      <point x="540" y="9"/>
      <point x="507" y="-11"/>
      <point x="403" y="-7" type="curve"/>
    </contour>
    <component base="O"/>
  </outline>
</glyph>
<glyph name="R" format="1">
  <advance width="628"/>
  <unicode hex="0052"/>
  <outline>
    <contour>
      <point x="206" y="703"/>
      <point x="127" y="701"/>
      <point x="51" y="700" type="curve"/>
      <point x="48" y="700" type="line"/>
      <point x="48" y="652" type="line"/>
      <point x="123" y="656" type="line"/>
      <point x="120" y="656" type="line"/>
      <point x="118" y="636"/>
      <point x="117" y="612"/>
      <point x="117" y="586" type="curve"/>
      <point x="117" y="158" type="line"/>
      <point x="117" y="86"/>
      <point x="123" y="38"/>
      <point x="51" y="37" type="curve"/>
      <point x="48" y="37" type="line"/>
      <point x="48" y="0" type="line"/>
      <point x="287" y="0" type="line"/>
      <point x="287" y="48" type="line"/>
      <point x="215" y="44" type="line"/>
      <point x="217" y="62"/>
      <point x="218" y="87"/>
      <point x="218" y="121" type="curve"/>
      <point x="218" y="310.821" type="line"/>
      <point x="214.871" y="310.821" type="line"/>
      <point x="235.715" y="309.925"/>
      <point x="257.012" y="309.159"/>
      <point x="277.296" y="310.809" type="curve"/>
      <point x="274.994" y="310.809" type="line"/>
      <point x="300.379" y="286.851"/>
      <point x="321.034" y="246.594"/>
      <point x="340.112" y="216.918" type="curve"/>
      <point x="407" y="112" type="line"/>
      <point x="434" y="70"/>
      <point x="456" y="36"/>
      <point x="498" y="0" type="curve"/>
      <point x="500" y="0" type="line"/>
      <point x="635" y="0" type="line"/>
      <point x="635" y="37" type="line"/>
      <point x="571" y="35"/>
      <point x="548" y="74"/>
      <point x="512" y="131" type="curve"/>
      <point x="443.908" y="236.073" type="line"/>
      <point x="421.146" y="271.565"/>
      <point x="403.366" y="300.161"/>
      <point x="376.57" y="321.074" type="curve"/>
      <point x="375.357" y="321.074" type="line"/>
      <point x="528.22" y="354.066"/>
      <point x="564" y="443"/>
      <point x="563" y="520" type="curve"/>
      <point x="563" y="630"/>
      <point x="481" y="698"/>
      <point x="284" y="701" type="curve"/>
    </contour>
    <contour>
      <point x="399" y="659"/>
      <point x="452" y="611"/>
      <point x="452" y="509" type="curve"/>
      <point x="452" y="394"/>
      <point x="378.902" y="355.894"/>
      <point x="272.743" y="351.999" type="curve"/>
      <point x="251.368" y="351.071"/>
      <point x="234.916" y="351.865"/>
      <point x="215.272" y="353.653" type="curve"/>
      <point x="218" y="353.653" type="line"/>
      <point x="218" y="542" type="line"/>
      <point x="218" y="613"/>
      <point x="212" y="659"/>
      <point x="280" y="659" type="curve"/>
    </contour>
    <contour>
      <point x="314" y="700" type="move" name="top"/>
    </contour>
    <contour>
      <point x="334" y="0" type="move" name="bottom"/>
    </contour>
  </outline>
</glyph>
<glyph name="S" format="1">
  <advance width="567"/>
  <unicode hex="0053"/>
  <outline>
    <contour>
      <point x="95" y="714"/>
      <point x="53" y="604"/>
      <point x="53" y="536" type="curve"/>
      <point x="53" y="297"/>
      <point x="430" y="346"/>
      <point x="430" y="155" type="curve"/>
      <point x="430" y="74"/>
      <point x="368" y="32"/>
      <point x="293" y="32" type="curve"/>
      <point x="190" y="32"/>
      <point x="110" y="91"/>
      <point x="104" y="211" type="curve"/>
      <point x="51" y="211" type="line"/>
      <point x="57" y="-6" type="line"/>
      <point x="123" y="-6" type="line"/>
      <point x="118" y="40" type="line"/>
      <point x="107" y="37" type="line"/>
      <point x="155" y="4"/>
      <point x="228" y="-14"/>
      <point x="289" y="-14" type="curve"/>
      <point x="442" y="-14"/>
      <point x="530" y="68"/>
      <point x="530" y="178" type="curve"/>
      <point x="530" y="418"/>
      <point x="149" y="375"/>
      <point x="149" y="555" type="curve"/>
      <point x="149" y="619"/>
      <point x="192" y="670"/>
      <point x="270" y="670" type="curve"/>
      <point x="382" y="670"/>
      <point x="436" y="580"/>
      <point x="441" y="482" type="curve"/>
      <point x="491" y="482" type="line"/>
      <point x="491" y="706" type="line"/>
      <point x="426" y="706" type="line"/>
      <point x="430" y="660" type="line"/>
      <point x="441" y="663" type="line"/>
      <point x="386" y="702"/>
      <point x="315" y="714"/>
      <point x="263" y="714" type="curve"/>
    </contour>
    <contour>
      <point x="272" y="700" type="move" name="top"/>
    </contour>
    <contour>
      <point x="304" y="0" type="move" name="bottom"/>
    </contour>
  </outline>
</glyph>
<glyph name="U" format="1">
  <advance width="752"/>
  <unicode hex="0055"/>
  <outline>
    <contour>
      <point x="536" y="700" type="line"/>
      <point x="536" y="656" type="line"/>
      <point x="607" y="660" type="line"/>
      <point x="605" y="640"/>
      <point x="604" y="615"/>
      <point x="604" y="588" type="curve" smooth="yes"/>
      <point x="601" y="307" type="line" smooth="yes"/>
      <point x="599" y="151"/>
      <point x="538" y="41"/>
      <point x="394" y="41" type="curve" smooth="yes"/>
      <point x="214" y="41"/>
      <point x="187" y="187"/>
      <point x="187" y="336" type="curve" smooth="yes"/>
      <point x="187" y="588" type="line" smooth="yes"/>
      <point x="187" y="615"/>
      <point x="188" y="667"/>
      <point x="255" y="667" type="curve"/>
      <point x="255" y="700" type="line"/>
      <point x="31" y="700" type="line"/>
      <point x="31" y="657" type="line"/>
      <point x="103" y="660" type="line"/>
      <point x="101" y="634"/>
      <point x="99" y="579"/>
      <point x="99" y="544" type="curve" smooth="yes"/>
      <point x="99" y="341" type="line" smooth="yes"/>
      <point x="99" y="94"/>
      <point x="167" y="-16"/>
      <point x="381" y="-16" type="curve" smooth="yes"/>
      <point x="582" y="-16"/>
      <point x="649" y="138"/>
      <point x="650" y="312" type="curve" smooth="yes"/>
      <point x="652" y="544" type="line" smooth="yes"/>
      <point x="652" y="615"/>
      <point x="646" y="664"/>
      <point x="722" y="667" type="curve"/>
      <point x="722" y="700" type="line"/>
    </contour>
    <contour>
      <point x="497" y="5" type="move" name="ogonek"/>
    </contour>
    <contour>
      <point x="388" y="700" type="move" name="top"/>
    </contour>
  </outline>
</glyph>
<glyph name="X" format="1">
  <advance width="649"/>
  <unicode hex="0058"/>
  <outline>
    <contour>
      <point x="419" y="700" type="line"/>
      <point x="419" y="652" type="line"/>
      <point x="512" y="656" type="line"/>
      <point x="510" y="659" type="line"/>
      <point x="505" y="659" type="line"/>
      <point x="482" y="638"/>
      <point x="448" y="589"/>
      <point x="415" y="543" type="curve"/>
      <point x="322.447" y="410.779" type="line"/>
      <point x="327.347" y="410.779" type="line"/>
      <point x="278" y="477"/>
      <point x="232" y="542"/>
      <point x="207" y="583" type="curve"/>
      <point x="185" y="618"/>
      <point x="159" y="658"/>
      <point x="224" y="661" type="curve"/>
      <point x="275" y="663" type="line"/>
      <point x="275" y="700" type="line"/>
      <point x="2" y="700" type="line"/>
      <point x="2" y="652" type="line"/>
      <point x="61" y="654" type="line"/>
      <point x="58" y="654" type="line"/>
      <point x="79" y="603"/>
      <point x="98" y="581"/>
      <point x="272.477" y="338.996" type="curve"/>
      <point x="143" y="156" type="line"/>
      <point x="97" y="89"/>
      <point x="69" y="48"/>
      <point x="7" y="36" type="curve"/>
      <point x="5" y="36" type="line"/>
      <point x="5" y="0" type="line"/>
      <point x="215" y="0" type="line"/>
      <point x="215" y="48" type="line"/>
      <point x="123" y="43" type="line"/>
      <point x="126" y="40" type="line"/>
      <point x="130" y="40" type="line"/>
      <point x="165" y="80"/>
      <point x="190" y="120"/>
      <point x="213" y="154" type="curve"/>
      <point x="246" y="204"/>
      <point x="277.921" y="249.568"/>
      <point x="308.559" y="294.194" type="curve"/>
      <point x="303.652" y="294.194" type="line"/>
      <point x="362" y="215"/>
      <point x="416" y="149"/>
      <point x="447" y="107" type="curve"/>
      <point x="470" y="75"/>
      <point x="481" y="33"/>
      <point x="407" y="37" type="curve"/>
      <point x="404" y="37" type="line"/>
      <point x="404" y="0" type="line"/>
      <point x="663" y="0" type="line"/>
      <point x="663" y="48" type="line"/>
      <point x="603" y="46" type="line"/>
      <point x="535" y="138" type="line"/>
      <point x="505" y="177"/>
      <point x="431.636" y="270.507"/>
      <point x="359.5" y="368.009" type="curve"/>
      <point x="472" y="525" type="line"/>
      <point x="516" y="588"/>
      <point x="566" y="657"/>
      <point x="627" y="663" type="curve"/>
      <point x="630" y="663" type="line"/>
      <point x="630" y="700" type="line"/>
    </contour>
  </outline>
</glyph>
<glyph name="Y" format="1">
  <advance width="634"/>
  <unicode hex="0059"/>
  <outline>
    <contour>
      <point x="433" y="700" type="line"/>
      <point x="433" y="652" type="line"/>
      <point x="521" y="655" type="line"/>
      <point x="518" y="658" type="line"/>
      <point x="514" y="658" type="line"/>
      <point x="493" y="635"/>
      <point x="475" y="601"/>
      <point x="465" y="582" type="curve"/>
      <point x="421" y="499"/>
      <point x="383" y="429"/>
      <point x="337.34" y="342" type="curve"/>
      <point x="340.005" y="342" type="line"/>
      <point x="343.66" y="342" type="line"/>
      <point x="346.104" y="342" type="line"/>
      <point x="290.865" y="419.597"/>
      <point x="256" y="476"/>
      <point x="205" y="557" type="curve"/>
      <point x="165" y="620"/>
      <point x="167" y="664"/>
      <point x="256" y="663" type="curve"/>
      <point x="259" y="663" type="line"/>
      <point x="259" y="700" type="line"/>
      <point x="-13" y="700" type="line"/>
      <point x="-13" y="652" type="line"/>
      <point x="53" y="654" type="line"/>
      <point x="50" y="654" type="line"/>
      <point x="55" y="630"/>
      <point x="70" y="596"/>
      <point x="104" y="542" type="curve"/>
      <point x="277.464" y="269.911" type="line"/>
      <point x="276" y="158" type="line"/>
      <point x="276" y="89"/>
      <point x="283" y="38"/>
      <point x="211" y="37" type="curve"/>
      <point x="208" y="37" type="line"/>
      <point x="208" y="0" type="line"/>
      <point x="457" y="0" type="line"/>
      <point x="457" y="48" type="line"/>
      <point x="371" y="44" type="line"/>
      <point x="374" y="44" type="line"/>
      <point x="376" y="62"/>
      <point x="377" y="88"/>
      <point x="376" y="124" type="curve"/>
      <point x="376" y="137"/>
      <point x="377.057" y="253.783"/>
      <point x="377.998" y="299.941" type="curve"/>
      <point x="416.518" y="373.687"/>
      <point x="458" y="451"/>
      <point x="503" y="535" type="curve"/>
      <point x="551" y="623"/>
      <point x="584" y="661"/>
      <point x="648" y="663" type="curve"/>
      <point x="651" y="663" type="line"/>
      <point x="651" y="700" type="line"/>
    </contour>
    <contour>
      <point x="331" y="700" type="move" name="top"/>
    </contour>
  </outline>
</glyph>
<glyph name="Z" format="1">
  <advance width="610"/>
  <unicode hex="005A"/>
  <outline>
    <contour>
      <point x="61" y="700" type="line"/>
      <point x="55" y="493" type="line"/>
      <point x="89" y="493" type="line"/>
      <point x="89" y="607"/>
      <point x="128" y="656"/>
      <point x="207" y="659" type="curve" smooth="yes"/>
      <point x="462" y="663" type="line"/>
      <point x="437" y="634"/>
      <point x="417" y="603"/>
      <point x="398" y="573" type="curve" smooth="yes"/>
      <point x="233" y="310"/>
      <point x="118" y="151"/>
      <point x="43" y="46" type="curve"/>
      <point x="43" y="0" type="line"/>
      <point x="556" y="0" type="line"/>
      <point x="562" y="205" type="line"/>
      <point x="528" y="205" type="line"/>
      <point x="528" y="93"/>
      <point x="461" y="42"/>
      <point x="373" y="41" type="curve" smooth="yes"/>
      <point x="130" y="37" type="line"/>
      <point x="151" y="56"/>
      <point x="169" y="77"/>
      <point x="198" y="120" type="curve" smooth="yes"/>
      <point x="557" y="665" type="line"/>
      <point x="557" y="700" type="line"/>
    </contour>
    <contour>
      <point x="305" y="700" type="move" name="top"/>
    </contour>
  </outline>
</glyph>
<glyph name="bracketleft" format="1">
  <advance width="359"/>
  <unicode hex="005B"/>
  <outline>
    <contour>
      <point x="80" y="755" type="line"/>
      <point x="79" y="-255" type="line"/>
      <point x="347" y="-255" type="line"/>
      <point x="347" y="-195" type="line"/>
      <point x="150" y="-192" type="line"/>
      <point x="155" y="692" type="line"/>
      <point x="345" y="695" type="line"/>
      <point x="345" y="755" type="line"/>
    </contour>
  </outline>
</glyph>
<glyph name="b" format="1">
  <advance width="582"/>
  <unicode hex="0062"/>
  <outline>
    <contour>
      <point x="133" y="755" type="line"/>
      <point x="118" y="741"/>
      <point x="96" y="728"/>
      <point x="8" y="728" type="curve"/>
      <point x="8" y="686" type="line"/>
      <point x="79" y="690" type="line"/>
      <point x="76" y="663"/>
      <point x="76" y="646"/>
      <point x="76" y="625" type="curve" smooth="yes"/>
      <point x="74" y="0" type="line"/>
      <point x="109" y="0" type="line"/>
      <point x="133" y="45" type="line"/>
      <point x="175" y="-3"/>
      <point x="235" y="-16"/>
      <point x="280" y="-16" type="curve" smooth="yes"/>
      <point x="415" y="-16"/>
      <point x="540" y="91"/>
      <point x="540" y="262" type="curve" smooth="yes"/>
      <point x="540" y="418"/>
      <point x="441" y="516"/>
      <point x="313" y="516" type="curve" smooth="yes"/>
      <point x="251" y="516"/>
      <point x="199" y="494"/>
      <point x="162" y="457" type="curve"/>
      <point x="162" y="755" type="line"/>
    </contour>
    <contour>
      <point x="387" y="467"/>
      <point x="437" y="372"/>
      <point x="437" y="237" type="curve" smooth="yes"/>
      <point x="437" y="111"/>
      <point x="376" y="25"/>
      <point x="280" y="25" type="curve" smooth="yes"/>
      <point x="219" y="25"/>
      <point x="162" y="51"/>
      <point x="162" y="157" type="curve" smooth="yes"/>
      <point x="162" y="410" type="line"/>
      <point x="192" y="444"/>
      <point x="239" y="467"/>
      <point x="283" y="467" type="curve" smooth="yes"/>
    </contour>
  </outline>
</glyph>
<glyph name="d" format="1">
  <advance width="561"/>
  <unicode hex="0064"/>
  <outline>
    <contour>
      <point x="440" y="692" type="line"/>
      <point x="439" y="692" type="line"/>
      <point x="427" y="680"/>
      <point x="411" y="668"/>
      <point x="323" y="668" type="curve"/>
      <point x="322" y="668" type="line"/>
      <point x="322" y="618" type="line"/>
      <point x="387" y="621" type="line"/>
      <point x="386" y="621" type="line"/>
      <point x="384" y="600"/>
      <point x="384" y="585"/>
      <point x="384" y="568" type="curve"/>
      <point x="384" y="452" type="line"/>
      <point x="385" y="452" type="line"/>
      <point x="360" y="464"/>
      <point x="319" y="475"/>
      <point x="281" y="475" type="curve"/>
      <point x="141" y="475"/>
      <point x="37" y="366"/>
      <point x="37" y="215" type="curve"/>
      <point x="37" y="71"/>
      <point x="127" y="-21"/>
      <point x="243" y="-21" type="curve"/>
      <point x="302" y="-21"/>
      <point x="353" y="2"/>
      <point x="389" y="37" type="curve"/>
      <point x="387" y="37" type="line"/>
      <point x="388" y="24"/>
      <point x="391" y="10"/>
      <point x="394" y="-6" type="curve"/>
      <point x="395" y="-6" type="line"/>
      <point x="535" y="-6" type="line"/>
      <point x="536" y="-6" type="line"/>
      <point x="536" y="44" type="line"/>
      <point x="469" y="41" type="line"/>
      <point x="471" y="41" type="line"/>
      <point x="473" y="62"/>
      <point x="474" y="79"/>
      <point x="474" y="96" type="curve"/>
      <point x="474" y="692" type="line"/>
    </contour>
    <contour>
      <point x="323" y="428"/>
      <point x="356" y="419"/>
      <point x="384" y="398" type="curve"/>
      <point x="383" y="140" type="line"/>
      <point x="383" y="122"/>
      <point x="383" y="107"/>
      <point x="384" y="92" type="curve"/>
      <point x="357" y="59"/>
      <point x="315" y="36"/>
      <point x="276" y="36" type="curve"/>
      <point x="192" y="36"/>
      <point x="147" y="113"/>
      <point x="143" y="223" type="curve"/>
      <point x="138" y="347"/>
      <point x="197" y="428"/>
      <point x="286" y="428" type="curve"/>
    </contour>
    <contour>
      <point x="281" y="227" type="move" name="center"/>
    </contour>
    <contour>
      <point x="549" y="455" type="move" name="topright"/>
    </contour>
  </outline>
</glyph>
<glyph name="e" format="1">
  <advance width="542"/>
  <unicode hex="0065"/>
  <outline>
    <contour>
      <point x="143" y="516"/>
      <point x="42" y="389"/>
      <point x="42" y="249" type="curve" smooth="yes"/>
      <point x="42" y="87"/>
      <point x="148" y="-16"/>
      <point x="286" y="-16" type="curve" smooth="yes"/>
      <point x="354" y="-16"/>
      <point x="448" y="15"/>
      <point x="503" y="98" type="curve"/>
      <point x="479" y="118" type="line"/>
      <point x="445" y="71"/>
      <point x="372" y="35"/>
      <point x="310" y="35" type="curve" smooth="yes"/>
      <point x="193" y="35"/>
      <point x="144" y="136"/>
      <point x="145" y="289" type="curve"/>
      <point x="497" y="295" type="line"/>
      <point x="497" y="444"/>
      <point x="405" y="516"/>
      <point x="294" y="516" type="curve" smooth="yes"/>
    </contour>
    <contour>
      <point x="373" y="477"/>
      <point x="403" y="402"/>
      <point x="403" y="331" type="curve"/>
      <point x="148" y="331" type="line"/>
      <point x="164" y="434"/>
      <point x="217" y="477"/>
      <point x="295" y="477" type="curve" smooth="yes"/>
    </contour>
    <contour>
      <point x="389" y="5" type="move" name="ogonek"/>
    </contour>
    <contour>
      <point x="325" y="0" type="move" name="bottom"/>
    </contour>
    <contour>
      <point x="280" y="500" type="move" name="top"/>
    </contour>
  </outline>
</glyph>
<glyph name="j" format="1">
  <advance width="257"/>
  <unicode hex="006A"/>
  <outline>
    <contour>
      <point x="152" y="510" type="line"/>
      <point x="137" y="496"/>
      <point x="115" y="483"/>
      <point x="27" y="483" type="curve"/>
      <point x="27" y="441" type="line"/>
      <point x="98" y="445" type="line"/>
      <point x="95" y="418"/>
      <point x="95" y="401"/>
      <point x="95" y="380" type="curve" smooth="yes"/>
      <point x="93" y="-86" type="line" smooth="yes"/>
      <point x="93" y="-142"/>
      <point x="86" y="-187"/>
      <point x="64" y="-208" type="curve" smooth="yes"/>
      <point x="49" y="-223"/>
      <point x="24" y="-231"/>
      <point x="-2" y="-219" type="curve"/>
      <point x="-1" y="-216"/>
      <point x="-1" y="-213"/>
      <point x="-1" y="-210" type="curve" smooth="yes"/>
      <point x="-1" y="-194"/>
      <point x="-12" y="-167"/>
      <point x="-45" y="-168" type="curve" smooth="yes"/>
      <point x="-72" y="-168"/>
      <point x="-88" y="-191"/>
      <point x="-88" y="-215" type="curve" smooth="yes"/>
      <point x="-88" y="-244"/>
      <point x="-64" y="-271"/>
      <point x="-9" y="-271" type="curve" smooth="yes"/>
      <point x="99" y="-271"/>
      <point x="181" y="-190"/>
      <point x="181" y="-3" type="curve" smooth="yes"/>
      <point x="181" y="510" type="line"/>
    </contour>
    <component base="period" xOffset="20" yOffset="624" xScale="0.92" yScale="0.92"/>
  </outline>
</glyph>
<glyph name="k" format="1">
  <advance width="537"/>
  <unicode hex="006B"/>
  <outline>
    <contour>
      <point x="150" y="755" type="line"/>
      <point x="135" y="741"/>
      <point x="114" y="728"/>
      <point x="26" y="728" type="curve"/>
      <point x="26" y="686" type="line"/>
      <point x="97" y="690" type="line"/>
      <point x="94" y="663"/>
      <point x="94" y="646"/>
      <point x="94" y="625" type="curve" smooth="yes"/>
      <point x="94" y="171"/>
      <point x="93" y="153"/>
      <point x="93" y="152" type="curve" smooth="yes"/>
      <point x="93" y="80"/>
      <point x="96" y="30"/>
      <point x="35" y="30" type="curve"/>
      <point x="35" y="0" type="line"/>
      <point x="239" y="0" type="line"/>
      <point x="239" y="41" type="line"/>
      <point x="175" y="38" type="line"/>
      <point x="179" y="61"/>
      <point x="179" y="79"/>
      <point x="179" y="106" type="curve" smooth="yes"/>
      <point x="179" y="243" type="line"/>
      <point x="220" y="245" type="line"/>
      <point x="246" y="220"/>
      <point x="281" y="166"/>
      <point x="333" y="94" type="curve" smooth="yes"/>
      <point x="370" y="46"/>
      <point x="402" y="0"/>
      <point x="439" y="0" type="curve" smooth="yes"/>
      <point x="530" y="0" type="line"/>
      <point x="530" y="30" type="line"/>
      <point x="484" y="30"/>
      <point x="421" y="122"/>
      <point x="409" y="138" type="curve" smooth="yes"/>
      <point x="338" y="229" type="line" smooth="yes"/>
      <point x="319" y="252"/>
      <point x="302" y="271"/>
      <point x="276" y="283" type="curve"/>
      <point x="354" y="365" type="line" smooth="yes"/>
      <point x="390" y="402"/>
      <point x="446" y="463"/>
      <point x="514" y="470" type="curve"/>
      <point x="514" y="500" type="line"/>
      <point x="332" y="500" type="line"/>
      <point x="332" y="460" type="line"/>
      <point x="400" y="463" type="line"/>
      <point x="381" y="451"/>
      <point x="363" y="433"/>
      <point x="341" y="410" type="curve" smooth="yes"/>
      <point x="219" y="282" type="line"/>
      <point x="179" y="282" type="line"/>
      <point x="179" y="755" type="line"/>
    </contour>
    <contour>
      <point x="269" y="0" type="move" name="bottom"/>
    </contour>
  </outline>
</glyph>
<glyph name="o" format="1">
  <advance width="553"/>
  <unicode hex="006F"/>
  <outline>
    <contour>
      <point x="144" y="516"/>
      <point x="35" y="396"/>
      <point x="35" y="238" type="curve" smooth="yes"/>
      <point x="35" y="90"/>
      <point x="146" y="-16"/>
      <point x="286" y="-16" type="curve" smooth="yes"/>
      <point x="428" y="-16"/>
      <point x="538" y="107"/>
      <point x="538" y="262" type="curve" smooth="yes"/>
      <point x="538" y="407"/>
      <point x="426" y="516"/>
      <point x="286" y="516" type="curve" smooth="yes"/>
    </contour>
    <contour>
      <point x="393" y="478"/>
      <point x="436" y="353"/>
      <point x="436" y="233" type="curve" smooth="yes"/>
      <point x="436" y="127"/>
      <point x="399" y="24"/>
      <point x="294" y="24" type="curve" smooth="yes"/>
      <point x="188" y="24"/>
      <point x="137" y="143"/>
      <point x="137" y="267" type="curve" smooth="yes"/>
      <point x="137" y="376"/>
      <point x="181" y="478"/>
      <point x="286" y="478" type="curve" smooth="yes"/>
    </contour>
    <contour>
      <point x="286" y="500" type="move" name="top"/>
    </contour>
  </outline>
</glyph>
<glyph name="p" format="1">
  <advance width="560"/>
  <unicode hex="0070"/>
  <outline>
    <contour>
      <point x="264" y="475"/>
      <point x="210" y="455"/>
      <point x="173" y="425" type="curve"/>
      <point x="174" y="425" type="line"/>
      <point x="173" y="444"/>
      <point x="171" y="460"/>
      <point x="170" y="470" type="curve"/>
      <point x="169" y="470" type="line"/>
      <point x="137" y="470" type="line"/>
      <point x="136" y="470" type="line"/>
      <point x="123" y="457"/>
      <point x="113" y="445"/>
      <point x="25" y="445" type="curve"/>
      <point x="24" y="445" type="line"/>
      <point x="24" y="395" type="line"/>
      <point x="90" y="399" type="line"/>
      <point x="89" y="399" type="line"/>
      <point x="86" y="380"/>
      <point x="86" y="363"/>
      <point x="86" y="345" type="curve"/>
      <point x="85" y="-94" type="line"/>
      <point x="84" y="-161"/>
      <point x="86" y="-201"/>
      <point x="31" y="-199" type="curve"/>
      <point x="30" y="-199" type="line"/>
      <point x="30" y="-238" type="line"/>
      <point x="229" y="-238" type="line"/>
      <point x="229" y="-189" type="line"/>
      <point x="171" y="-191" type="line"/>
      <point x="172" y="-191" type="line"/>
      <point x="175" y="-173"/>
      <point x="175" y="-157"/>
      <point x="175" y="-135" type="curve"/>
      <point x="175" y="6" type="line"/>
      <point x="173" y="6" type="line"/>
      <point x="204" y="-12"/>
      <point x="239" y="-21"/>
      <point x="281" y="-21" type="curve"/>
      <point x="408" y="-21"/>
      <point x="523" y="85"/>
      <point x="523" y="244" type="curve"/>
      <point x="523" y="387"/>
      <point x="422" y="475"/>
      <point x="314" y="475" type="curve"/>
    </contour>
    <contour>
      <point x="378" y="419"/>
      <point x="417" y="326"/>
      <point x="417" y="229" type="curve"/>
      <point x="417" y="111"/>
      <point x="364" y="28"/>
      <point x="279" y="28" type="curve"/>
      <point x="240" y="28"/>
      <point x="205" y="40"/>
      <point x="176" y="61" type="curve"/>
      <point x="177" y="325"/>
      <point x="177" y="357"/>
      <point x="176" y="371" type="curve"/>
      <point x="201" y="397"/>
      <point x="239" y="419"/>
      <point x="280" y="419" type="curve"/>
    </contour>
  </outline>
</glyph>
<glyph name="r" format="1">
  <advance width="408"/>
  <unicode hex="0072"/>
  <outline>
    <contour>
      <point x="272" y="475"/>
      <point x="213" y="430"/>
      <point x="182" y="388" type="curve"/>
      <point x="184" y="388" type="line"/>
      <point x="183" y="427"/>
      <point x="181" y="453"/>
      <point x="179" y="470" type="curve"/>
      <point x="178" y="470" type="line"/>
      <point x="147" y="470" type="line"/>
      <point x="146" y="470" type="line"/>
      <point x="132" y="457"/>
      <point x="120" y="445"/>
      <point x="67" y="445" type="curve"/>
      <point x="33" y="445" type="line"/>
      <point x="33" y="396" type="line"/>
      <point x="99" y="399" type="line"/>
      <point x="98" y="399" type="line"/>
      <point x="95" y="380"/>
      <point x="95" y="363"/>
      <point x="95" y="345" type="curve"/>
      <point x="95" y="138" type="line"/>
      <point x="95" y="71"/>
      <point x="97" y="31"/>
      <point x="42" y="33" type="curve"/>
      <point x="41" y="33" type="line"/>
      <point x="41" y="-6" type="line"/>
      <point x="241" y="-6" type="line"/>
      <point x="241" y="43" type="line"/>
      <point x="182" y="41" type="line"/>
      <point x="183" y="41" type="line"/>
      <point x="186" y="59"/>
      <point x="186" y="75"/>
      <point x="186" y="96" type="curve"/>
      <point x="186" y="318" type="line"/>
      <point x="215" y="373"/>
      <point x="263" y="412"/>
      <point x="308" y="413" type="curve"/>
      <point x="306" y="413" type="line"/>
      <point x="306" y="387"/>
      <point x="326" y="363"/>
      <point x="354" y="362" type="curve"/>
      <point x="390" y="361"/>
      <point x="405" y="395"/>
      <point x="405" y="412" type="curve"/>
      <point x="405" y="456"/>
      <point x="370" y="475"/>
      <point x="335" y="475" type="curve"/>
    </contour>
    <contour>
      <point x="241" y="455" type="move" name="top"/>
    </contour>
    <contour>
      <point x="206" y="0" type="move" name="bottom"/>
    </contour>
  </outline>
</glyph>
<glyph name="t" format="1">
  <advance width="387"/>
  <unicode hex="0074"/>
  <outline>
    <contour>
      <point x="152" y="640" type="line"/>
      <point x="135" y="583"/>
      <point x="92" y="501"/>
      <point x="21" y="500" type="curve"/>
      <point x="21" y="457" type="line"/>
      <point x="98" y="458" type="line"/>
      <point x="96" y="168" type="line" smooth="yes"/>
      <point x="95" y="8"/>
      <point x="172" y="-16"/>
      <point x="232" y="-16" type="curve" smooth="yes"/>
      <point x="266" y="-16"/>
      <point x="324" y="-9"/>
      <point x="383" y="79" type="curve"/>
      <point x="356" y="101" type="line"/>
      <point x="330" y="63"/>
      <point x="294" y="41"/>
      <point x="260" y="41" type="curve" smooth="yes"/>
      <point x="202" y="41"/>
      <point x="184" y="90"/>
      <point x="184" y="181" type="curve" smooth="yes"/>
      <point x="184" y="182"/>
      <point x="185" y="199"/>
      <point x="186" y="459" type="curve"/>
      <point x="354" y="461" type="line"/>
      <point x="354" y="500" type="line"/>
      <point x="186" y="500" type="line"/>
      <point x="186" y="541"/>
      <point x="186" y="587"/>
      <point x="186" y="640" type="curve"/>
    </contour>
    <contour>
      <point x="194" y="250" type="move" name="center"/>
    </contour>
    <contour>
      <point x="253" y="0" type="move" name="bottom"/>
    </contour>
  </outline>
</glyph>
<glyph name="w" format="1">
  <advance width="801"/>
  <unicode hex="0077"/>
  <outline>
    <contour>
      <point x="626" y="500" type="line"/>
      <point x="626" y="459" type="line"/>
      <point x="684" y="462" type="line"/>
      <point x="672" y="447"/>
      <point x="663" y="422"/>
      <point x="654" y="395" type="curve" smooth="yes"/>
      <point x="558" y="118" type="line"/>
      <point x="425" y="500" type="line"/>
      <point x="384" y="500" type="line"/>
      <point x="356" y="413"/>
      <point x="303" y="258"/>
      <point x="258" y="125" type="curve"/>
      <point x="180" y="362" type="line" smooth="yes"/>
      <point x="158" y="426"/>
      <point x="158" y="468"/>
      <point x="218" y="470" type="curve"/>
      <point x="218" y="500" type="line"/>
      <point x="6" y="500" type="line"/>
      <point x="6" y="459" type="line"/>
      <point x="59" y="462" type="line"/>
      <point x="63" y="446"/>
      <point x="70" y="423"/>
      <point x="85" y="381" type="curve" smooth="yes"/>
      <point x="216" y="-3" type="line"/>
      <point x="254" y="-3" type="line"/>
      <point x="384" y="375" type="line"/>
      <point x="515" y="-3" type="line"/>
      <point x="555" y="-3" type="line"/>
      <point x="699" y="391" type="line" smooth="yes"/>
      <point x="716" y="438"/>
      <point x="731" y="466"/>
      <point x="800" y="470" type="curve"/>
      <point x="800" y="500" type="line"/>
    </contour>
    <contour>
      <point x="400" y="500" type="move" name="top"/>
    </contour>
  </outline>
</glyph>
<glyph name="y" format="1">
  <advance width="528"/>
  <unicode hex="0079"/>
  <outline>
    <contour>
      <point x="367" y="500" type="line"/>
      <point x="367" y="459" type="line"/>
      <point x="436" y="463" type="line"/>
      <point x="422" y="452"/>
      <point x="402" y="396"/>
      <point x="387" y="352" type="curve" smooth="yes"/>
      <point x="359" y="269"/>
      <point x="331" y="186"/>
      <point x="301" y="101" type="curve"/>
      <point x="184" y="352" type="line" smooth="yes"/>
      <point x="148" y="429"/>
      <point x="151" y="466"/>
      <point x="207" y="470" type="curve" smooth="yes"/>
      <point x="211" y="470" type="line"/>
      <point x="211" y="500" type="line"/>
      <point x="4" y="500" type="line"/>
      <point x="4" y="459" type="line"/>
      <point x="52" y="461" type="line"/>
      <point x="57" y="439"/>
      <point x="70" y="398"/>
      <point x="105" y="323" type="curve" smooth="yes"/>
      <point x="261" y="-11" type="line"/>
      <point x="232" y="-92"/>
      <point x="208" y="-153"/>
      <point x="191" y="-182" type="curve" smooth="yes"/>
      <point x="172" y="-214"/>
      <point x="146" y="-227"/>
      <point x="129" y="-219" type="curve"/>
      <point x="130" y="-214"/>
      <point x="130" y="-209"/>
      <point x="130" y="-205" type="curve" smooth="yes"/>
      <point x="130" y="-189"/>
      <point x="121" y="-161"/>
      <point x="89" y="-162" type="curve" smooth="yes"/>
      <point x="63" y="-162"/>
      <point x="46" y="-186"/>
      <point x="46" y="-210" type="curve" smooth="yes"/>
      <point x="46" y="-251"/>
      <point x="80" y="-271"/>
      <point x="121" y="-271" type="curve" smooth="yes"/>
      <point x="210" y="-271"/>
      <point x="246" y="-177"/>
      <point x="306" y="-9" type="curve" smooth="yes"/>
      <point x="431" y="340" type="line" smooth="yes"/>
      <point x="456" y="408"/>
      <point x="474" y="451"/>
      <point x="524" y="470" type="curve"/>
      <point x="524" y="500" type="line"/>
    </contour>
    <contour>
      <point x="287" y="500" type="move" name="top"/>
    </contour>
  </outline>
</glyph>
<glyph name="ordfeminine" format="1">
  <advance width="474"/>
  <unicode hex="00AA"/>
  <outline>
    <contour>
      <point x="216" y="312"/>
      <point x="280" y="348"/>
      <point x="292" y="372" type="curve"/>
      <point x="303" y="360"/>
      <point x="319" y="326"/>
      <point x="323" y="312" type="curve"/>
      <point x="349" y="312"/>
      <point x="398" y="327"/>
      <point x="415" y="336" type="curve"/>
      <point x="419" y="355" type="line"/>
      <point x="387" y="362"/>
      <point x="364" y="375"/>
      <point x="354" y="393" type="curve"/>
      <point x="354" y="581" type="line" smooth="yes"/>
      <point x="354" y="645"/>
      <point x="326" y="693"/>
      <point x="251" y="693" type="curve" smooth="yes"/>
      <point x="224" y="693"/>
      <point x="158" y="680"/>
      <point x="115" y="656" type="curve" smooth="yes"/>
      <point x="99" y="648"/>
      <point x="84" y="635"/>
      <point x="84" y="622" type="curve" smooth="yes"/>
      <point x="84" y="598"/>
      <point x="110" y="577"/>
      <point x="129" y="577" type="curve" smooth="yes"/>
      <point x="140" y="577"/>
      <point x="152" y="583"/>
      <point x="161" y="587" type="curve"/>
      <point x="172" y="646" type="line"/>
      <point x="178" y="648"/>
      <point x="186" y="648"/>
      <point x="194" y="648" type="curve" smooth="yes"/>
      <point x="213" y="648"/>
      <point x="235" y="648"/>
      <point x="248" y="641" type="curve" smooth="yes"/>
      <point x="277" y="625"/>
      <point x="282" y="581"/>
      <point x="282" y="520" type="curve"/>
      <point x="280" y="521"/>
      <point x="271" y="521"/>
      <point x="268" y="521" type="curve" smooth="yes"/>
      <point x="244" y="521"/>
      <point x="173" y="520"/>
      <point x="130" y="502" type="curve" smooth="yes"/>
      <point x="88" y="485"/>
      <point x="68" y="467"/>
      <point x="68" y="417" type="curve" smooth="yes"/>
      <point x="68" y="372"/>
      <point x="101" y="312"/>
      <point x="175" y="312" type="curve" smooth="yes"/>
    </contour>
    <contour>
      <point x="166" y="381"/>
      <point x="150" y="413"/>
      <point x="150" y="437" type="curve" smooth="yes"/>
      <point x="150" y="446"/>
      <point x="151" y="455"/>
      <point x="157" y="460" type="curve" smooth="yes"/>
      <point x="165" y="469"/>
      <point x="202" y="485"/>
      <point x="282" y="490" type="curve"/>
      <point x="282" y="394" type="line"/>
      <point x="264" y="383"/>
      <point x="223" y="371"/>
      <point x="196" y="371" type="curve" smooth="yes"/>
      <point x="193" y="371"/>
      <point x="188" y="372"/>
      <point x="185" y="373" type="curve" smooth="yes"/>
    </contour>
    <contour>
      <point x="150" y="203"/>
      <point x="300" y="205"/>
      <point x="410" y="212" type="curve"/>
      <point x="423" y="260" type="line"/>
      <point x="84" y="260" type="line"/>
      <point x="72" y="203" type="line"/>
    </contour>
  </outline>
</glyph>
<glyph name="macron" format="1">
  <advance width="355"/>
  <unicode hex="00AF"/>
  <outline>
    <contour>
      <point x="45" y="700" type="line"/>
      <point x="45" y="640" type="line"/>
      <point x="310" y="644" type="line"/>
      <point x="310" y="700" type="line"/>
    </contour>
    <contour>
      <point x="178" y="500" type="move" name="_top"/>
    </contour>
  </outline>
</glyph>
<glyph name="onesuperior" format="1">
  <advance width="283"/>
  <unicode hex="00B9"/>
  <outline>
    <contour>
      <point x="154.633" y="722" type="line"/>
      <point x="37.914" y="636.827" type="line"/>
      <point x="59.3413" y="599.329" type="line"/>
      <point x="124.142" y="638" type="line"/>
      <point x="120" y="638" type="line"/>
      <point x="120" y="403" type="line"/>
      <point x="120" y="361.098"/>
      <point x="112.657" y="332.619"/>
      <point x="71" y="335.157" type="curve"/>
      <point x="71" y="295" type="line"/>
      <point x="236" y="295" type="line"/>
      <point x="236" y="341.199" type="line"/>
      <point x="185.955" y="339.237" type="line"/>
      <point x="187" y="349.019"/>
      <point x="187" y="360.076"/>
      <point x="187" y="372" type="curve"/>
      <point x="185.983" y="722" type="line"/>
    </contour>
  </outline>
</glyph>
<glyph name="ordmasculine" format="1">
  <advance width="419"/>
  <unicode hex="00BA"/>
  <outline>
    <contour>
      <point x="118" y="716"/>
      <point x="48" y="640"/>
      <point x="48" y="541" type="curve" smooth="yes"/>
      <point x="48" y="447"/>
      <point x="118" y="380"/>
      <point x="209" y="380" type="curve" smooth="yes"/>
      <point x="304" y="380"/>
      <point x="373" y="452"/>
      <point x="372" y="553" type="curve" smooth="yes"/>
      <point x="371" y="649"/>
      <point x="304" y="716"/>
      <point x="212" y="716" type="curve" smooth="yes"/>
    </contour>
    <contour>
      <point x="275" y="685"/>
      <point x="302" y="612"/>
      <point x="302" y="538" type="curve" smooth="yes"/>
      <point x="302" y="471"/>
      <point x="272" y="417"/>
      <point x="217" y="416" type="curve" smooth="yes"/>
      <point x="151" y="414"/>
      <point x="121" y="481"/>
      <point x="121" y="559" type="curve" smooth="yes"/>
      <point x="121" y="627"/>
      <point x="152" y="680"/>
      <point x="208" y="683" type="curve" smooth="yes"/>
    </contour>
  </outline>
</glyph>
<glyph name="Eth" format="1">
  <advance width="746"/>
  <unicode hex="00D0"/>
  <outline>
    <contour>
      <point x="19" y="377" type="line"/>
      <point x="19" y="335" type="line"/>
      <point x="393" y="335" type="line"/>
      <point x="393" y="377" type="line"/>
    </contour>
    <component base="D" xOffset="1"/>
  </outline>
</glyph>
<glyph name="dotlessi" format="1">
  <advance width="281"/>
  <unicode hex="0131"/>
  <outline>
    <contour>
      <point x="160" y="510" type="line"/>
      <point x="145" y="496"/>
      <point x="124" y="483"/>
      <point x="36" y="483" type="curve"/>
      <point x="36" y="441" type="line"/>
      <point x="107" y="445" type="line"/>
      <point x="104" y="418"/>
      <point x="103" y="401"/>
      <point x="103" y="380" type="curve" smooth="yes"/>
      <point x="103" y="152" type="line" smooth="yes"/>
      <point x="103" y="80"/>
      <point x="105" y="30"/>
      <point x="44" y="30" type="curve"/>
      <point x="44" y="0" type="line"/>
      <point x="248" y="0" type="line"/>
      <point x="248" y="41" type="line"/>
      <point x="185" y="38" type="line"/>
      <point x="189" y="61"/>
      <point x="189" y="79"/>
      <point x="189" y="106" type="curve" smooth="yes"/>
      <point x="189" y="510" type="line"/>
    </contour>
  </outline>
</glyph>
<glyph name="lslash" format="1">
  <advance width="293"/>
  <unicode hex="0142"/>
  <outline>
    <contour>
      <point x="26" y="285" type="line"/>
      <point x="26" y="226" type="line"/>
      <point x="276" y="408" type="line"/>
      <point x="276" y="465" type="line"/>
    </contour>
    <component base="l" xOffset="20"/>
  </outline>
</glyph>
<glyph name="florin" format="1">
  <advance width="343"/>
  <unicode hex="0192"/>
  <outline>
    <contour>
      <point x="116" y="760"/>
      <point x="117" y="488"/>
      <point x="98" y="245" type="curve" smooth="yes"/>
      <point x="79" y="1"/>
      <point x="84" y="-232"/>
      <point x="-10" y="-232" type="curve" smooth="yes"/>
      <point x="-17" y="-232"/>
      <point x="-30" y="-231"/>
      <point x="-39" y="-225" type="curve"/>
      <point x="-35" y="-196"/>
      <point x="-51" y="-173"/>
      <point x="-78" y="-173" type="curve" smooth="yes"/>
      <point x="-107" y="-173"/>
      <point x="-121" y="-192"/>
      <point x="-121" y="-219" type="curve" smooth="yes"/>
      <point x="-121" y="-251"/>
      <point x="-87" y="-271"/>
      <point x="-44" y="-271" type="curve" smooth="yes"/>
      <point x="162" y="-271"/>
      <point x="161" y="-7"/>
      <point x="180" y="236" type="curve" smooth="yes"/>
      <point x="199" y="479"/>
      <point x="186" y="712"/>
      <point x="287" y="721" type="curve" smooth="yes"/>
      <point x="298" y="722"/>
      <point x="311" y="721"/>
      <point x="317" y="717" type="curve"/>
      <point x="312" y="688"/>
      <point x="329" y="665"/>
      <point x="357" y="665" type="curve" smooth="yes"/>
      <point x="384" y="665"/>
      <point x="397" y="685"/>
      <point x="397" y="707" type="curve" smooth="yes"/>
      <point x="397" y="745"/>
      <point x="354" y="760"/>
      <point x="323" y="760" type="curve" smooth="yes"/>
    </contour>
    <contour>
      <point x="33" y="501" type="line"/>
      <point x="28" y="458" type="line"/>
      <point x="337" y="462" type="line"/>
      <point x="340" y="501" type="line"/>
    </contour>
  </outline>
</glyph>
<glyph name="dotaccent" format="1">
  <advance width="198"/>
  <unicode hex="02D9"/>
  <outline>
    <component base="period" xOffset="-13" yOffset="624" xScale="0.92" yScale="0.92"/>
    <contour>
      <point x="99" y="500" type="move" name="_top"/>
    </contour>
  </outline>
</glyph>
<glyph name="pi" format="1">
  <advance width="579"/>
  <unicode hex="03C0"/>
  <outline>
    <contour>
      <point x="492" y="498"/>
      <point x="466" y="493"/>
      <point x="432" y="493" type="curve" smooth="yes"/>
      <point x="375" y="493"/>
      <point x="276" y="512"/>
      <point x="173" y="512" type="curve" smooth="yes"/>
      <point x="110" y="512"/>
      <point x="67" y="479"/>
      <point x="39" y="444" type="curve"/>
      <point x="55" y="422" type="line"/>
      <point x="89" y="439"/>
      <point x="112" y="444"/>
      <point x="164" y="444" type="curve"/>
      <point x="164" y="338"/>
      <point x="167" y="76"/>
      <point x="104" y="56" type="curve"/>
      <point x="93" y="66"/>
      <point x="79" y="71"/>
      <point x="66" y="71" type="curve" smooth="yes"/>
      <point x="51" y="71"/>
      <point x="25" y="60"/>
      <point x="25" y="28" type="curve" smooth="yes"/>
      <point x="25" y="-1"/>
      <point x="47" y="-16"/>
      <point x="73" y="-16" type="curve" smooth="yes"/>
      <point x="118" y="-16"/>
      <point x="160" y="15"/>
      <point x="180" y="72" type="curve" smooth="yes"/>
      <point x="206" y="148"/>
      <point x="205" y="334"/>
      <point x="205" y="443" type="curve"/>
      <point x="259" y="439"/>
      <point x="312" y="430"/>
      <point x="376" y="426" type="curve"/>
      <point x="376" y="346"/>
      <point x="375" y="96"/>
      <point x="375" y="88" type="curve" smooth="yes"/>
      <point x="375" y="51"/>
      <point x="386" y="-16"/>
      <point x="457" y="-16" type="curve" smooth="yes"/>
      <point x="495" y="-16"/>
      <point x="534" y="11"/>
      <point x="551" y="34" type="curve"/>
      <point x="539" y="50" type="line"/>
      <point x="527" y="42"/>
      <point x="514" y="38"/>
      <point x="505" y="38" type="curve" smooth="yes"/>
      <point x="477" y="38"/>
      <point x="462" y="62"/>
      <point x="462" y="131" type="curve" smooth="yes"/>
      <point x="463" y="432" type="line"/>
      <point x="503" y="446"/>
      <point x="531" y="476"/>
      <point x="546" y="495" type="curve"/>
      <point x="529" y="516" type="line"/>
    </contour>
  </outline>
</glyph>
<glyph name="Dje-cy" format="1">
  <advance width="761"/>
  <unicode hex="0402"/>
  <outline>
    <contour>
      <point x="28" y="700" type="line"/>
      <point x="22" y="489" type="line"/>
      <point x="59" y="489" type="line"/>
      <point x="59" y="607"/>
      <point x="90" y="662"/>
      <point x="174" y="662" type="curve" smooth="yes"/>
      <point x="277" y="663" type="line"/>
      <point x="276" y="156" type="line" smooth="yes"/>
      <point x="276" y="88"/>
      <point x="283" y="36"/>
      <point x="208" y="33" type="curve"/>
      <point x="208" y="0" type="line"/>
      <point x="418" y="0" type="line"/>
      <point x="418" y="44" type="line"/>
      <point x="360" y="40" type="line"/>
      <point x="362" y="57"/>
      <point x="363" y="83"/>
      <point x="363" y="119" type="curve" smooth="yes"/>
      <point x="364" y="664" type="line"/>
      <point x="449" y="664" type="line" smooth="yes"/>
      <point x="552" y="665"/>
      <point x="577" y="607"/>
      <point x="579" y="489" type="curve"/>
      <point x="617" y="489" type="line"/>
      <point x="611" y="700" type="line"/>
    </contour>
    <contour>
      <point x="447" y="427"/>
      <point x="385" y="412"/>
      <point x="343" y="389" type="curve"/>
      <point x="343" y="340" type="line"/>
      <point x="376" y="361"/>
      <point x="422" y="376"/>
      <point x="474" y="376" type="curve" smooth="yes"/>
      <point x="569" y="376"/>
      <point x="632" y="331"/>
      <point x="632" y="209" type="curve" smooth="yes"/>
      <point x="632" y="111"/>
      <point x="616" y="30"/>
      <point x="586" y="30" type="curve" smooth="yes"/>
      <point x="579" y="30"/>
      <point x="574" y="31"/>
      <point x="569" y="35" type="curve"/>
      <point x="573" y="44"/>
      <point x="575" y="50"/>
      <point x="575" y="60" type="curve" smooth="yes"/>
      <point x="575" y="76"/>
      <point x="564" y="103"/>
      <point x="526" y="103" type="curve" smooth="yes"/>
      <point x="499" y="102"/>
      <point x="478" y="83"/>
      <point x="478" y="49" type="curve" smooth="yes"/>
      <point x="478" y="11"/>
      <point x="510" y="-11"/>
      <point x="552" y="-11" type="curve" smooth="yes"/>
      <point x="646" y="-11"/>
      <point x="715" y="89"/>
      <point x="715" y="217" type="curve" smooth="yes"/>
      <point x="715" y="351"/>
      <point x="655" y="427"/>
      <point x="508" y="427" type="curve" smooth="yes"/>
    </contour>
  </outline>
</glyph>
<glyph name="Lje-cy" format="1">
  <advance width="955"/>
  <unicode hex="0409"/>
  <outline>
    <contour>
      <point x="746" y="372"/>
      <point x="827" y="336"/>
      <point x="827" y="209" type="curve" smooth="yes"/>
      <point x="827" y="90"/>
      <point x="757" y="38"/>
      <point x="654" y="38" type="curve" smooth="yes"/>
      <point x="642" y="38"/>
      <point x="604" y="37"/>
      <point x="573" y="40" type="curve"/>
      <point x="575" y="57"/>
      <point x="576" y="82"/>
      <point x="576" y="118" type="curve" smooth="yes"/>
      <point x="576" y="369" type="line"/>
      <point x="608" y="371"/>
      <point x="615" y="372"/>
      <point x="654" y="372" type="curve" smooth="yes"/>
    </contour>
    <contour>
      <point x="244" y="700" type="line"/>
      <point x="244" y="531" type="line" smooth="yes"/>
      <point x="244" y="217"/>
      <point x="167" y="25"/>
      <point x="112" y="25" type="curve" smooth="yes"/>
      <point x="105" y="25"/>
      <point x="101" y="27"/>
      <point x="95" y="33" type="curve"/>
      <point x="103" y="41"/>
      <point x="104" y="47"/>
      <point x="104" y="60" type="curve" smooth="yes"/>
      <point x="104" y="80"/>
      <point x="89" y="106"/>
      <point x="56" y="104" type="curve" smooth="yes"/>
      <point x="27" y="103"/>
      <point x="12" y="79"/>
      <point x="12" y="52" type="curve" smooth="yes"/>
      <point x="12" y="8"/>
      <point x="51" y="-16"/>
      <point x="99" y="-16" type="curve" smooth="yes"/>
      <point x="254" y="-16"/>
      <point x="292" y="290"/>
      <point x="292" y="582" type="curve" smooth="yes"/>
      <point x="292" y="700" type="line"/>
    </contour>
    <contour>
      <point x="262" y="660" type="line"/>
      <point x="255" y="629" type="line"/>
      <point x="292" y="604" type="line"/>
      <point x="294" y="637"/>
      <point x="313" y="661"/>
      <point x="359" y="661" type="curve"/>
    </contour>
    <contour>
      <point x="576" y="407" type="line"/>
      <point x="576" y="544" type="line" smooth="yes"/>
      <point x="576" y="615"/>
      <point x="571" y="664"/>
      <point x="645" y="667" type="curve"/>
      <point x="645" y="700" type="line"/>
      <point x="150" y="700" type="line"/>
      <point x="150" y="656" type="line"/>
      <point x="223" y="660" type="line"/>
      <point x="489" y="660" type="line"/>
      <point x="489" y="156" type="line" smooth="yes"/>
      <point x="489" y="83"/>
      <point x="493" y="35"/>
      <point x="420" y="33" type="curve"/>
      <point x="420" y="0" type="line"/>
      <point x="688" y="0" type="line" smooth="yes"/>
      <point x="823" y="0"/>
      <point x="923" y="73"/>
      <point x="923" y="213" type="curve" smooth="yes"/>
      <point x="923" y="331"/>
      <point x="852" y="419"/>
      <point x="632" y="410" type="curve" smooth="yes"/>
    </contour>
  </outline>
</glyph>
<glyph name="Dzhe-cy" format="1">
  <advance width="771"/>
  <unicode hex="040F"/>
  <outline>
    <contour>
      <point x="414" y="41" type="line"/>
      <point x="308" y="0" type="line"/>
      <point x="374" y="0"/>
      <point x="387" y="-78"/>
      <point x="387" y="-178" type="curve"/>
      <point x="429" y="-178" type="line"/>
      <point x="429" y="41" type="line"/>
    </contour>
    <component base="Pe-cy" xOffset="771" yOffset="700" xScale="-1" yScale="-1"/>
  </outline>
</glyph>
<glyph name="Ze-cy" format="1">
  <advance width="613"/>
  <unicode hex="0417"/>
  <outline>
    <contour>
      <point x="279" y="343" type="line"/>
      <point x="412" y="342"/>
      <point x="477" y="301"/>
      <point x="477" y="202" type="curve" smooth="yes"/>
      <point x="477" y="89"/>
      <point x="390" y="36"/>
      <point x="291" y="36" type="curve" smooth="yes"/>
      <point x="205" y="36"/>
      <point x="110" y="76"/>
      <point x="56" y="151" type="curve"/>
      <point x="30" y="130" type="line"/>
      <point x="101" y="31"/>
      <point x="206" y="-12"/>
      <point x="313" y="-12" type="curve" smooth="yes"/>
      <point x="445" y="-12"/>
      <point x="574" y="57"/>
      <point x="574" y="201" type="curve" smooth="yes"/>
      <point x="574" y="301"/>
      <point x="495" y="375"/>
      <point x="341" y="372" type="curve"/>
    </contour>
    <contour>
      <point x="211" y="386" type="line"/>
      <point x="211" y="342" type="line"/>
      <point x="306" y="343" type="line"/>
      <point x="296" y="386" type="line"/>
    </contour>
    <contour>
      <point x="247" y="716"/>
      <point x="196" y="697"/>
      <point x="138" y="655" type="curve"/>
      <point x="143" y="709" type="line"/>
      <point x="89" y="709" type="line"/>
      <point x="89" y="477" type="line"/>
      <point x="125" y="477" type="line"/>
      <point x="155" y="603"/>
      <point x="210" y="675"/>
      <point x="321" y="675" type="curve" smooth="yes"/>
      <point x="390" y="675"/>
      <point x="445" y="637"/>
      <point x="445" y="539" type="curve" smooth="yes"/>
      <point x="445" y="459"/>
      <point x="406" y="383"/>
      <point x="283" y="386" type="curve"/>
      <point x="316" y="343" type="line"/>
      <point x="372" y="371" type="line"/>
      <point x="372" y="373" type="line"/>
      <point x="481" y="393"/>
      <point x="536" y="466"/>
      <point x="537" y="545" type="curve" smooth="yes"/>
      <point x="539" y="650"/>
      <point x="453" y="716"/>
      <point x="324" y="716" type="curve" smooth="yes"/>
    </contour>
  </outline>
</glyph>
<glyph name="Ii-cy" format="1">
  <advance width="790"/>
  <unicode hex="0418"/>
  <outline>
    <contour>
      <point x="143" y="81" type="line"/>
      <point x="174" y="52" type="line"/>
      <point x="632" y="624" type="line"/>
      <point x="604" y="651" type="line"/>
    </contour>
    <contour>
      <point x="55" y="700" type="line"/>
      <point x="55" y="656" type="line"/>
      <point x="127" y="660" type="line"/>
      <point x="125" y="640"/>
      <point x="124" y="615"/>
      <point x="124" y="588" type="curve" smooth="yes"/>
      <point x="124" y="156" type="line" smooth="yes"/>
      <point x="124" y="85"/>
      <point x="130" y="36"/>
      <point x="55" y="33" type="curve"/>
      <point x="55" y="0" type="line"/>
      <point x="280" y="0" type="line"/>
      <point x="280" y="44" type="line"/>
      <point x="208" y="40" type="line"/>
      <point x="210" y="57"/>
      <point x="211" y="83"/>
      <point x="211" y="119" type="curve" smooth="yes"/>
      <point x="211" y="544" type="line" smooth="yes"/>
      <point x="211" y="615"/>
      <point x="205" y="664"/>
      <point x="280" y="667" type="curve"/>
      <point x="280" y="700" type="line"/>
    </contour>
    <contour>
      <point x="510" y="700" type="line"/>
      <point x="510" y="656" type="line"/>
      <point x="582" y="660" type="line"/>
      <point x="580" y="640"/>
      <point x="579" y="615"/>
      <point x="579" y="588" type="curve" smooth="yes"/>
      <point x="579" y="156" type="line" smooth="yes"/>
      <point x="579" y="85"/>
      <point x="585" y="36"/>
      <point x="510" y="33" type="curve"/>
      <point x="510" y="0" type="line"/>
      <point x="735" y="0" type="line"/>
      <point x="735" y="44" type="line"/>
      <point x="663" y="40" type="line"/>
      <point x="665" y="57"/>
      <point x="666" y="83"/>
      <point x="666" y="119" type="curve" smooth="yes"/>
      <point x="666" y="544" type="line" smooth="yes"/>
      <point x="666" y="615"/>
      <point x="660" y="664"/>
      <point x="735" y="667" type="curve"/>
      <point x="735" y="700" type="line"/>
    </contour>
  </outline>
</glyph>
<glyph name="Iishort-cy" format="1">
  <advance width="790"/>
  <unicode hex="0419"/>
  <outline>
    <contour>
      <point x="474" y="898"/>
      <point x="464" y="868"/>
      <point x="464" y="853" type="curve" smooth="yes"/>
      <point x="464" y="840"/>
      <point x="468" y="824"/>
      <point x="475" y="812" type="curve"/>
      <point x="457" y="793"/>
      <point x="435" y="787"/>
      <point x="400" y="787" type="curve" smooth="yes"/>
      <point x="365" y="787"/>
      <point x="343" y="793"/>
      <point x="325" y="812" type="curve"/>
      <point x="332" y="824"/>
      <point x="335" y="840"/>
      <point x="335" y="853" type="curve" smooth="yes"/>
      <point x="335" y="868"/>
      <point x="326" y="898"/>
      <point x="289" y="897" type="curve" smooth="yes"/>
      <point x="262" y="896"/>
      <point x="246" y="872"/>
      <point x="246" y="846" type="curve" smooth="yes"/>
      <point x="246" y="787"/>
      <point x="315" y="750"/>
      <point x="400" y="750" type="curve" smooth="yes"/>
      <point x="484" y="750"/>
      <point x="554" y="787"/>
      <point x="554" y="846" type="curve" smooth="yes"/>
      <point x="554" y="872"/>
      <point x="538" y="896"/>
      <point x="511" y="897" type="curve" smooth="yes"/>
    </contour>
    <component base="Ii-cy"/>
  </outline>
</glyph>
<glyph name="El-cy" format="1">
  <advance width="699"/>
  <unicode hex="041B"/>
  <outline>
    <contour>
      <point x="150" y="700" type="line"/>
      <point x="150" y="656" type="line"/>
      <point x="223" y="660" type="line"/>
      <point x="489" y="661" type="line"/>
      <point x="489" y="156" type="line" smooth="yes"/>
      <point x="489" y="85"/>
      <point x="495" y="36"/>
      <point x="419" y="33" type="curve"/>
      <point x="419" y="0" type="line"/>
      <point x="645" y="0" type="line"/>
      <point x="645" y="44" type="line"/>
      <point x="573" y="40" type="line"/>
      <point x="575" y="57"/>
      <point x="576" y="83"/>
      <point x="576" y="119" type="curve" smooth="yes"/>
      <point x="576" y="544" type="line" smooth="yes"/>
      <point x="576" y="615"/>
      <point x="570" y="664"/>
      <point x="645" y="667" type="curve"/>
      <point x="645" y="700" type="line"/>
    </contour>
    <contour>
      <point x="244" y="700" type="line"/>
      <point x="244" y="511" type="line" smooth="yes"/>
      <point x="244" y="178"/>
      <point x="167" y="25"/>
      <point x="112" y="25" type="curve" smooth="yes"/>
      <point x="105" y="25"/>
      <point x="101" y="27"/>
      <point x="95" y="33" type="curve"/>
      <point x="103" y="41"/>
      <point x="105" y="47"/>
      <point x="105" y="60" type="curve" smooth="yes"/>
      <point x="105" y="80"/>
      <point x="89" y="106"/>
      <point x="56" y="104" type="curve" smooth="yes"/>
      <point x="27" y="103"/>
      <point x="7" y="81"/>
      <point x="7" y="52" type="curve" smooth="yes"/>
      <point x="7" y="10"/>
      <point x="51" y="-16"/>
      <point x="99" y="-16" type="curve" smooth="yes"/>
      <point x="239" y="-16"/>
      <point x="292" y="290"/>
      <point x="292" y="582" type="curve" smooth="yes"/>
      <point x="292" y="700" type="line"/>
    </contour>
    <contour>
      <point x="262" y="660" type="line"/>
      <point x="255" y="629" type="line"/>
      <point x="292" y="604" type="line"/>
      <point x="294" y="637"/>
      <point x="313" y="661"/>
      <point x="359" y="661" type="curve"/>
    </contour>
  </outline>
</glyph>
<glyph name="Pe-cy" format="1">
  <advance width="760"/>
  <unicode hex="041F"/>
  <outline>
    <contour>
      <point x="55" y="700" type="line"/>
      <point x="55" y="656" type="line"/>
      <point x="127" y="660" type="line"/>
      <point x="125" y="640"/>
      <point x="124" y="615"/>
      <point x="124" y="588" type="curve" smooth="yes"/>
      <point x="124" y="156" type="line" smooth="yes"/>
      <point x="124" y="85"/>
      <point x="130" y="36"/>
      <point x="55" y="33" type="curve"/>
      <point x="55" y="0" type="line"/>
      <point x="280" y="0" type="line"/>
      <point x="280" y="44" type="line"/>
      <point x="208" y="40" type="line"/>
      <point x="210" y="57"/>
      <point x="211" y="83"/>
      <point x="211" y="119" type="curve" smooth="yes"/>
      <point x="211" y="656" type="line"/>
      <point x="550" y="661" type="line"/>
      <point x="550" y="156" type="line" smooth="yes"/>
      <point x="550" y="85"/>
      <point x="556" y="36"/>
      <point x="480" y="33" type="curve"/>
      <point x="480" y="0" type="line"/>
      <point x="706" y="0" type="line"/>
      <point x="706" y="44" type="line"/>
      <point x="634" y="40" type="line"/>
      <point x="636" y="57"/>
      <point x="637" y="83"/>
      <point x="637" y="119" type="curve" smooth="yes"/>
      <point x="637" y="544" type="line" smooth="yes"/>
      <point x="637" y="615"/>
      <point x="631" y="664"/>
      <point x="706" y="667" type="curve"/>
      <point x="706" y="700" type="line"/>
    </contour>
    <contour>
      <point x="172" y="690" type="line"/>
      <point x="172" y="565" type="line"/>
      <point x="211" y="534" type="line"/>
      <point x="211" y="605"/>
      <point x="205" y="654"/>
      <point x="280" y="657" type="curve"/>
      <point x="280" y="690" type="line"/>
    </contour>
  </outline>
</glyph>
<glyph name="Che-cy" format="1">
  <advance width="702"/>
  <unicode hex="0427"/>
  <outline>
    <contour>
      <point x="422" y="700" type="line"/>
      <point x="422" y="656" type="line"/>
      <point x="494" y="660" type="line"/>
      <point x="492" y="640"/>
      <point x="491" y="615"/>
      <point x="491" y="588" type="curve" smooth="yes"/>
      <point x="491" y="156" type="line" smooth="yes"/>
      <point x="491" y="85"/>
      <point x="497" y="36"/>
      <point x="422" y="33" type="curve"/>
      <point x="422" y="0" type="line"/>
      <point x="647" y="0" type="line"/>
      <point x="647" y="44" type="line"/>
      <point x="575" y="40" type="line"/>
      <point x="577" y="57"/>
      <point x="578" y="83"/>
      <point x="578" y="119" type="curve" smooth="yes"/>
      <point x="578" y="544" type="line" smooth="yes"/>
      <point x="578" y="615"/>
      <point x="572" y="664"/>
      <point x="647" y="667" type="curve"/>
      <point x="647" y="700" type="line"/>
    </contour>
    <contour>
      <point x="101" y="345"/>
      <point x="163" y="273"/>
      <point x="308" y="273" type="curve" smooth="yes"/>
      <point x="378" y="273"/>
      <point x="445" y="288"/>
      <point x="492" y="311" type="curve"/>
      <point x="491" y="360" type="line"/>
      <point x="456" y="339"/>
      <point x="403" y="325"/>
      <point x="344" y="324" type="curve" smooth="yes"/>
      <point x="234" y="323"/>
      <point x="189" y="383"/>
      <point x="188" y="451" type="curve"/>
      <point x="101" y="473" type="line"/>
    </contour>
    <contour>
      <point x="32" y="700" type="line"/>
      <point x="32" y="656" type="line"/>
      <point x="104" y="660" type="line"/>
      <point x="101" y="638"/>
      <point x="101" y="610"/>
      <point x="101" y="473" type="curve"/>
      <point x="188" y="451" type="line"/>
      <point x="189" y="610"/>
      <point x="178" y="664"/>
      <point x="257" y="667" type="curve"/>
      <point x="257" y="700" type="line"/>
    </contour>
  </outline>
</glyph>
<glyph name="Iu-cy" format="1">
  <advance width="1075"/>
  <unicode hex="042E"/>
  <outline>
    <contour>
      <point x="464" y="716"/>
      <point x="356" y="518"/>
      <point x="356" y="350" type="curve" smooth="yes"/>
      <point x="356" y="176"/>
      <point x="454" y="-16"/>
      <point x="683" y="-16" type="curve" smooth="yes"/>
      <point x="919" y="-16"/>
      <point x="1031" y="184"/>
      <point x="1031" y="350" type="curve" smooth="yes"/>
      <point x="1031" y="517"/>
      <point x="919" y="716"/>
      <point x="675" y="716" type="curve" smooth="yes"/>
    </contour>
    <contour>
      <point x="55" y="700" type="line"/>
      <point x="55" y="656" type="line"/>
      <point x="127" y="660" type="line"/>
      <point x="125" y="640"/>
      <point x="124" y="615"/>
      <point x="124" y="588" type="curve" smooth="yes"/>
      <point x="124" y="156" type="line" smooth="yes"/>
      <point x="124" y="85"/>
      <point x="130" y="36"/>
      <point x="55" y="33" type="curve"/>
      <point x="55" y="0" type="line"/>
      <point x="280" y="0" type="line"/>
      <point x="280" y="44" type="line"/>
      <point x="208" y="40" type="line"/>
      <point x="210" y="57"/>
      <point x="211" y="83"/>
      <point x="211" y="119" type="curve" smooth="yes"/>
      <point x="211" y="334" type="line"/>
      <point x="388" y="338" type="line"/>
      <point x="388" y="378" type="line"/>
      <point x="211" y="378" type="line"/>
      <point x="211" y="544" type="line" smooth="yes"/>
      <point x="211" y="615"/>
      <point x="205" y="664"/>
      <point x="280" y="667" type="curve"/>
      <point x="280" y="700" type="line"/>
    </contour>
    <contour>
      <point x="838" y="676"/>
      <point x="931" y="495"/>
      <point x="931" y="331" type="curve" smooth="yes"/>
      <point x="931" y="184"/>
      <point x="849" y="25"/>
      <point x="685" y="25" type="curve" smooth="yes"/>
      <point x="531" y="25"/>
      <point x="455" y="220"/>
      <point x="455" y="368" type="curve" smooth="yes"/>
      <point x="455" y="516"/>
      <point x="531" y="676"/>
      <point x="672" y="676" type="curve" smooth="yes"/>
    </contour>
  </outline>
</glyph>
<glyph name="Ia-cy" format="1">
  <advance width="673"/>
  <unicode hex="042F"/>
  <outline>
    <contour>
      <point x="351" y="700" type="line" smooth="yes"/>
      <point x="201" y="700"/>
      <point x="127" y="629"/>
      <point x="127" y="489" type="curve" smooth="yes"/>
      <point x="127" y="376"/>
      <point x="237" y="300"/>
      <point x="367" y="300" type="curve"/>
      <point x="367" y="292" type="line"/>
      <point x="462" y="293" type="line"/>
      <point x="462" y="156" type="line" smooth="yes"/>
      <point x="462" y="85"/>
      <point x="468" y="36"/>
      <point x="393" y="33" type="curve"/>
      <point x="393" y="0" type="line"/>
      <point x="618" y="0" type="line"/>
      <point x="618" y="44" type="line"/>
      <point x="546" y="40" type="line"/>
      <point x="548" y="60"/>
      <point x="549" y="85"/>
      <point x="549" y="112" type="curve" smooth="yes"/>
      <point x="549" y="544" type="line" smooth="yes"/>
      <point x="549" y="617"/>
      <point x="545" y="665"/>
      <point x="618" y="667" type="curve"/>
      <point x="618" y="700" type="line"/>
    </contour>
    <contour>
      <point x="271" y="306"/>
      <point x="248" y="288"/>
      <point x="218" y="244" type="curve" smooth="yes"/>
      <point x="141" y="128" type="line" smooth="yes"/>
      <point x="99" y="65"/>
      <point x="78" y="33"/>
      <point x="22" y="33" type="curve"/>
      <point x="22" y="0" type="line"/>
      <point x="140" y="0" type="line"/>
      <point x="169" y="15"/>
      <point x="204" y="67"/>
      <point x="232" y="111" type="curve" smooth="yes"/>
      <point x="307" y="226" type="line" smooth="yes"/>
      <point x="321" y="249"/>
      <point x="343" y="275"/>
      <point x="373" y="292" type="curve"/>
      <point x="373" y="307" type="line"/>
      <point x="318" y="313" type="line"/>
    </contour>
    <contour>
      <point x="396" y="662"/>
      <point x="458" y="663"/>
      <point x="465" y="660" type="curve"/>
      <point x="463" y="643"/>
      <point x="462" y="618"/>
      <point x="462" y="582" type="curve" smooth="yes"/>
      <point x="462" y="332" type="line"/>
      <point x="455" y="330"/>
      <point x="423" y="329"/>
      <point x="384" y="329" type="curve" smooth="yes"/>
      <point x="294" y="329"/>
      <point x="221" y="400"/>
      <point x="221" y="491" type="curve" smooth="yes"/>
      <point x="221" y="610"/>
      <point x="291" y="662"/>
      <point x="384" y="662" type="curve" smooth="yes"/>
    </contour>
  </outline>
</glyph>
<glyph name="ze-cy" format="1">
  <advance width="459"/>
  <unicode hex="0437"/>
  <outline>
    <contour>
      <point x="210" y="237" type="line"/>
      <point x="276" y="237"/>
      <point x="334" y="205"/>
      <point x="334" y="121" type="curve" smooth="yes"/>
      <point x="334" y="51"/>
      <point x="279" y="19"/>
      <point x="220" y="19" type="curve" smooth="yes"/>
      <point x="176" y="19"/>
      <point x="131" y="35"/>
      <point x="104" y="75" type="curve"/>
      <point x="116" y="87"/>
      <point x="120" y="102"/>
      <point x="120" y="115" type="curve" smooth="yes"/>
      <point x="120" y="132"/>
      <point x="108" y="161"/>
      <point x="73" y="160" type="curve" smooth="yes"/>
      <point x="43" y="160"/>
      <point x="27" y="136"/>
      <point x="27" y="107" type="curve" smooth="yes"/>
      <point x="22" y="59"/>
      <point x="92" y="-16"/>
      <point x="226" y="-16" type="curve" smooth="yes"/>
      <point x="345" y="-16"/>
      <point x="430" y="40"/>
      <point x="430" y="132" type="curve" smooth="yes"/>
      <point x="430" y="209"/>
      <point x="369" y="263"/>
      <point x="278" y="263" type="curve"/>
    </contour>
    <contour>
      <point x="196" y="516"/>
      <point x="150" y="506"/>
      <point x="109" y="473" type="curve"/>
      <point x="111" y="511" type="line"/>
      <point x="69" y="511" type="line"/>
      <point x="69" y="336" type="line"/>
      <point x="101" y="336" type="line"/>
      <point x="105" y="405"/>
      <point x="145" y="479"/>
      <point x="227" y="479" type="curve" smooth="yes"/>
      <point x="284" y="479"/>
      <point x="314" y="442"/>
      <point x="314" y="382" type="curve" smooth="yes"/>
      <point x="314" y="319"/>
      <point x="281" y="274"/>
      <point x="206" y="274" type="curve" smooth="yes"/>
      <point x="165" y="274" type="line"/>
      <point x="165" y="237" type="line"/>
      <point x="228" y="237" type="line"/>
      <point x="295" y="259" type="line"/>
      <point x="295" y="264" type="line"/>
      <point x="364" y="282"/>
      <point x="406" y="331"/>
      <point x="406" y="390" type="curve" smooth="yes"/>
      <point x="406" y="467"/>
      <point x="335" y="516"/>
      <point x="239" y="516" type="curve" smooth="yes"/>
    </contour>
  </outline>
</glyph>
<glyph name="iishort-cy" format="1">
  <advance width="627"/>
  <unicode hex="0439"/>
  <outline>
    <contour>
      <point x="383" y="711"/>
      <point x="375" y="684"/>
      <point x="375" y="669" type="curve" smooth="yes"/>
      <point x="375" y="658"/>
      <point x="377" y="644"/>
      <point x="384" y="633" type="curve"/>
      <point x="376" y="619"/>
      <point x="343" y="614"/>
      <point x="316" y="614" type="curve" smooth="yes"/>
      <point x="289" y="614"/>
      <point x="255" y="619"/>
      <point x="248" y="633" type="curve"/>
      <point x="254" y="644"/>
      <point x="257" y="658"/>
      <point x="257" y="669" type="curve" smooth="yes"/>
      <point x="257" y="684"/>
      <point x="249" y="711"/>
      <point x="215" y="710" type="curve" smooth="yes"/>
      <point x="190" y="709"/>
      <point x="176" y="688"/>
      <point x="176" y="664" type="curve" smooth="yes"/>
      <point x="176" y="610"/>
      <point x="239" y="577"/>
      <point x="316" y="577" type="curve" smooth="yes"/>
      <point x="393" y="577"/>
      <point x="456" y="610"/>
      <point x="456" y="664" type="curve" smooth="yes"/>
      <point x="456" y="688"/>
      <point x="441" y="709"/>
      <point x="417" y="710" type="curve" smooth="yes"/>
    </contour>
    <component base="ii-cy"/>
  </outline>
</glyph>
<glyph name="ka-cy" format="1">
  <advance width="537"/>
  <unicode hex="043A"/>
  <outline>
    <contour>
      <point x="332" y="500" type="line"/>
      <point x="332" y="460" type="line"/>
      <point x="400" y="463" type="line"/>
      <point x="381" y="451"/>
      <point x="363" y="433"/>
      <point x="341" y="410" type="curve" smooth="yes"/>
      <point x="219" y="282" type="line"/>
      <point x="171" y="282" type="line"/>
      <point x="171" y="243" type="line"/>
      <point x="220" y="245" type="line"/>
      <point x="246" y="220"/>
      <point x="281" y="166"/>
      <point x="333" y="94" type="curve" smooth="yes"/>
      <point x="370" y="46"/>
      <point x="402" y="0"/>
      <point x="439" y="0" type="curve" smooth="yes"/>
      <point x="530" y="0" type="line"/>
      <point x="530" y="30" type="line"/>
      <point x="484" y="30"/>
      <point x="421" y="122"/>
      <point x="409" y="138" type="curve" smooth="yes"/>
      <point x="338" y="229" type="line" smooth="yes"/>
      <point x="319" y="252"/>
      <point x="302" y="271"/>
      <point x="276" y="283" type="curve"/>
      <point x="354" y="365" type="line" smooth="yes"/>
      <point x="390" y="402"/>
      <point x="446" y="463"/>
      <point x="514" y="470" type="curve"/>
      <point x="514" y="500" type="line"/>
    </contour>
    <contour>
      <point x="36" y="500" type="line"/>
      <point x="36" y="459" type="line"/>
      <point x="99" y="462" type="line"/>
      <point x="95" y="439"/>
      <point x="95" y="421"/>
      <point x="95" y="394" type="curve" smooth="yes"/>
      <point x="94" y="152" type="line" smooth="yes"/>
      <point x="93" y="80"/>
      <point x="95" y="30"/>
      <point x="34" y="30" type="curve"/>
      <point x="34" y="0" type="line"/>
      <point x="238" y="0" type="line"/>
      <point x="238" y="41" type="line"/>
      <point x="175" y="38" type="line"/>
      <point x="179" y="61"/>
      <point x="179" y="79"/>
      <point x="179" y="106" type="curve" smooth="yes"/>
      <point x="181" y="348" type="line" smooth="yes"/>
      <point x="181" y="420"/>
      <point x="179" y="470"/>
      <point x="240" y="470" type="curve"/>
      <point x="240" y="500" type="line"/>
    </contour>
  </outline>
</glyph>
<glyph name="em-cy" format="1">
  <advance width="738"/>
  <unicode hex="043C"/>
  <outline>
    <contour>
      <point x="528" y="500" type="line"/>
      <point x="363" y="99" type="line"/>
      <point x="372" y="109" type="line"/>
      <point x="206" y="500" type="line"/>
      <point x="73" y="500" type="line"/>
      <point x="73" y="459" type="line"/>
      <point x="134" y="462" type="line"/>
      <point x="90" y="97" type="line" smooth="yes"/>
      <point x="85" y="55"/>
      <point x="74" y="29"/>
      <point x="32" y="30" type="curve"/>
      <point x="32" y="0" type="line"/>
      <point x="186" y="0" type="line"/>
      <point x="186" y="41" type="line"/>
      <point x="123" y="39" type="line"/>
      <point x="128" y="55"/>
      <point x="133" y="80"/>
      <point x="135" y="97" type="curve" smooth="yes"/>
      <point x="170" y="382" type="line"/>
      <point x="326" y="0" type="line"/>
      <point x="366" y="0" type="line"/>
      <point x="519" y="372" type="line"/>
      <point x="558" y="115" type="line" smooth="yes"/>
      <point x="567" y="55"/>
      <point x="546" y="28"/>
      <point x="505" y="30" type="curve"/>
      <point x="505" y="0" type="line"/>
      <point x="707" y="0" type="line"/>
      <point x="707" y="41" type="line"/>
      <point x="642" y="39" type="line"/>
      <point x="644" y="54"/>
      <point x="644" y="77"/>
      <point x="642" y="94" type="curve" smooth="yes"/>
      <point x="596" y="398" type="line" smooth="yes"/>
      <point x="588" y="451"/>
      <point x="609" y="470"/>
      <point x="646" y="470" type="curve"/>
      <point x="646" y="500" type="line"/>
    </contour>
  </outline>
</glyph>
<glyph name="ef-cy" format="1">
  <advance width="779"/>
  <unicode hex="0444"/>
  <outline>
    <contour>
      <point x="404" y="755" type="line"/>
      <point x="389" y="741"/>
      <point x="367" y="728"/>
      <point x="279" y="728" type="curve"/>
      <point x="279" y="686" type="line"/>
      <point x="350" y="690" type="line"/>
      <point x="347" y="663"/>
      <point x="347" y="646"/>
      <point x="347" y="625" type="curve" smooth="yes"/>
      <point x="347" y="-103" type="line" smooth="yes"/>
      <point x="344" y="-175"/>
      <point x="347" y="-225"/>
      <point x="286" y="-225" type="curve"/>
      <point x="286" y="-255" type="line"/>
      <point x="491" y="-255" type="line"/>
      <point x="491" y="-214" type="line"/>
      <point x="428" y="-217" type="line"/>
      <point x="432" y="-194"/>
      <point x="432" y="-176"/>
      <point x="432" y="-149" type="curve" smooth="yes"/>
      <point x="432" y="755" type="line"/>
    </contour>
    <contour>
      <point x="146" y="516"/>
      <point x="41" y="403"/>
      <point x="41" y="232" type="curve" smooth="yes"/>
      <point x="41" y="78"/>
      <point x="145" y="-16"/>
      <point x="261" y="-16" type="curve" smooth="yes"/>
      <point x="319" y="-16"/>
      <point x="381" y="11"/>
      <point x="421" y="49" type="curve"/>
      <point x="419" y="94" type="line"/>
      <point x="392" y="62"/>
      <point x="346" y="30"/>
      <point x="296" y="30" type="curve" smooth="yes"/>
      <point x="188" y="30"/>
      <point x="142" y="140"/>
      <point x="142" y="248" type="curve" smooth="yes"/>
      <point x="142" y="380"/>
      <point x="188" y="475"/>
      <point x="282" y="475" type="curve" smooth="yes"/>
      <point x="329" y="475"/>
      <point x="360" y="455"/>
      <point x="395" y="427" type="curve"/>
      <point x="395" y="474" type="line"/>
      <point x="360" y="499"/>
      <point x="315" y="516"/>
      <point x="280" y="516" type="curve" smooth="yes"/>
    </contour>
    <contour>
      <point x="459" y="516"/>
      <point x="430" y="503"/>
      <point x="390" y="472" type="curve"/>
      <point x="390" y="439" type="line"/>
      <point x="419" y="460"/>
      <point x="446" y="470"/>
      <point x="483" y="470" type="curve" smooth="yes"/>
      <point x="592" y="470"/>
      <point x="638" y="360"/>
      <point x="638" y="252" type="curve" smooth="yes"/>
      <point x="638" y="120"/>
      <point x="593" y="24"/>
      <point x="506" y="24" type="curve" smooth="yes"/>
      <point x="452" y="24"/>
      <point x="432" y="37"/>
      <point x="402" y="70" type="curve"/>
      <point x="402" y="23" type="line"/>
      <point x="435" y="-4"/>
      <point x="457" y="-16"/>
      <point x="503" y="-16" type="curve" smooth="yes"/>
      <point x="631" y="-16"/>
      <point x="738" y="97"/>
      <point x="738" y="268" type="curve" smooth="yes"/>
      <point x="738" y="422"/>
      <point x="635" y="516"/>
      <point x="519" y="516" type="curve" smooth="yes"/>
    </contour>
  </outline>
</glyph>
<glyph name="tse-cy" format="1">
  <advance width="613"/>
  <unicode hex="0446"/>
  <outline>
    <contour>
      <point x="45" y="500" type="line"/>
      <point x="45" y="459" type="line"/>
      <point x="108" y="462" type="line"/>
      <point x="104" y="439"/>
      <point x="104" y="421"/>
      <point x="104" y="394" type="curve" smooth="yes"/>
      <point x="103" y="152" type="line" smooth="yes"/>
      <point x="103" y="80"/>
      <point x="105" y="30"/>
      <point x="44" y="30" type="curve"/>
      <point x="44" y="0" type="line"/>
      <point x="458" y="0" type="line"/>
      <point x="458" y="41" type="line"/>
      <point x="185" y="38" type="line"/>
      <point x="189" y="61"/>
      <point x="189" y="79"/>
      <point x="189" y="106" type="curve" smooth="yes"/>
      <point x="190" y="348" type="line" smooth="yes"/>
      <point x="190" y="420"/>
      <point x="188" y="470"/>
      <point x="250" y="470" type="curve"/>
      <point x="250" y="500" type="line"/>
    </contour>
    <contour>
      <point x="560" y="41" type="line"/>
      <point x="465" y="0" type="line"/>
      <point x="531" y="0"/>
      <point x="548" y="-78"/>
      <point x="548" y="-178" type="curve"/>
      <point x="586" y="-178" type="line"/>
      <point x="586" y="42" type="line"/>
    </contour>
    <contour>
      <point x="357" y="500" type="line"/>
      <point x="357" y="459" type="line"/>
      <point x="420" y="462" type="line"/>
      <point x="416" y="439"/>
      <point x="416" y="421"/>
      <point x="416" y="394" type="curve" smooth="yes"/>
      <point x="415" y="152" type="line" smooth="yes"/>
      <point x="414" y="80"/>
      <point x="417" y="40"/>
      <point x="355" y="40" type="curve"/>
      <point x="355" y="0" type="line"/>
      <point x="560" y="0" type="line"/>
      <point x="560" y="41" type="line"/>
      <point x="497" y="38" type="line"/>
      <point x="500" y="61"/>
      <point x="500" y="79"/>
      <point x="500" y="106" type="curve" smooth="yes"/>
      <point x="501" y="348" type="line" smooth="yes"/>
      <point x="502" y="420"/>
      <point x="500" y="470"/>
      <point x="561" y="470" type="curve"/>
      <point x="561" y="500" type="line"/>
    </contour>
  </outline>
</glyph>
<glyph name="iu-cy" format="1">
  <advance width="814"/>
  <unicode hex="044E"/>
  <outline>
    <contour>
      <point x="391" y="516"/>
      <point x="282" y="396"/>
      <point x="282" y="238" type="curve" smooth="yes"/>
      <point x="282" y="90"/>
      <point x="393" y="-16"/>
      <point x="521" y="-16" type="curve" smooth="yes"/>
      <point x="663" y="-16"/>
      <point x="773" y="107"/>
      <point x="773" y="262" type="curve" smooth="yes"/>
      <point x="773" y="407"/>
      <point x="661" y="516"/>
      <point x="521" y="516" type="curve" smooth="yes"/>
    </contour>
    <contour>
      <point x="45" y="500" type="line"/>
      <point x="45" y="459" type="line"/>
      <point x="108" y="462" type="line"/>
      <point x="104" y="439"/>
      <point x="104" y="421"/>
      <point x="104" y="394" type="curve" smooth="yes"/>
      <point x="104" y="152" type="line" smooth="yes"/>
      <point x="103" y="80"/>
      <point x="105" y="30"/>
      <point x="44" y="30" type="curve"/>
      <point x="44" y="0" type="line"/>
      <point x="248" y="0" type="line"/>
      <point x="248" y="41" type="line"/>
      <point x="185" y="38" type="line"/>
      <point x="189" y="61"/>
      <point x="189" y="79"/>
      <point x="189" y="106" type="curve" smooth="yes"/>
      <point x="190" y="348" type="line" smooth="yes"/>
      <point x="191" y="420"/>
      <point x="188" y="470"/>
      <point x="250" y="470" type="curve"/>
      <point x="250" y="500" type="line"/>
    </contour>
    <contour>
      <point x="154" y="276" type="line"/>
      <point x="154" y="233" type="line"/>
      <point x="322" y="237" type="line"/>
      <point x="322" y="276" type="line"/>
    </contour>
    <contour>
      <point x="628" y="478"/>
      <point x="671" y="353"/>
      <point x="671" y="233" type="curve" smooth="yes"/>
      <point x="671" y="127"/>
      <point x="634" y="24"/>
      <point x="529" y="24" type="curve" smooth="yes"/>
      <point x="435" y="24"/>
      <point x="384" y="143"/>
      <point x="384" y="267" type="curve" smooth="yes"/>
      <point x="384" y="376"/>
      <point x="428" y="478"/>
      <point x="521" y="478" type="curve" smooth="yes"/>
    </contour>
  </outline>
</glyph>
<glyph name="e-cy" format="1">
  <advance width="532"/>
  <unicode hex="0454"/>
  <outline>
    <contour>
      <point x="110" y="281" type="line"/>
      <point x="110" y="221" type="line"/>
      <point x="375" y="225" type="line"/>
      <point x="375" y="281" type="line"/>
    </contour>
    <component base="c"/>
  </outline>
</glyph>
<glyph name="nje-cy" format="1">
  <advance width="792"/>
  <unicode hex="045A"/>
  <outline>
    <contour>
      <point x="359" y="500" type="line"/>
      <point x="359" y="459" type="line"/>
      <point x="422" y="462" type="line"/>
      <point x="418" y="439"/>
      <point x="418" y="421"/>
      <point x="418" y="394" type="curve" smooth="yes"/>
      <point x="418" y="115" type="line" smooth="yes"/>
      <point x="418" y="63"/>
      <point x="407" y="31"/>
      <point x="358" y="30" type="curve"/>
      <point x="358" y="0" type="line"/>
      <point x="597" y="0" type="line" smooth="yes"/>
      <point x="684" y="0"/>
      <point x="760" y="52"/>
      <point x="760" y="148" type="curve" smooth="yes"/>
      <point x="760" y="228"/>
      <point x="708" y="297"/>
      <point x="547" y="292" type="curve" smooth="yes"/>
      <point x="504" y="290" type="line"/>
      <point x="504" y="348" type="line" smooth="yes"/>
      <point x="505" y="420"/>
      <point x="502" y="470"/>
      <point x="563" y="470" type="curve"/>
      <point x="563" y="500" type="line"/>
    </contour>
    <contour>
      <point x="45" y="500" type="line"/>
      <point x="45" y="459" type="line"/>
      <point x="108" y="462" type="line"/>
      <point x="104" y="439"/>
      <point x="104" y="421"/>
      <point x="104" y="394" type="curve" smooth="yes"/>
      <point x="104" y="152" type="line" smooth="yes"/>
      <point x="103" y="80"/>
      <point x="105" y="30"/>
      <point x="44" y="30" type="curve"/>
      <point x="44" y="0" type="line"/>
      <point x="248" y="0" type="line"/>
      <point x="248" y="41" type="line"/>
      <point x="185" y="38" type="line"/>
      <point x="189" y="61"/>
      <point x="189" y="79"/>
      <point x="189" y="106" type="curve" smooth="yes"/>
      <point x="190" y="348" type="line" smooth="yes"/>
      <point x="191" y="420"/>
      <point x="188" y="470"/>
      <point x="250" y="470" type="curve"/>
      <point x="250" y="500" type="line"/>
    </contour>
    <contour>
      <point x="154" y="290" type="line"/>
      <point x="154" y="247" type="line"/>
      <point x="454" y="251" type="line"/>
      <point x="454" y="290" type="line"/>
    </contour>
    <contour>
      <point x="638" y="254"/>
      <point x="672" y="214"/>
      <point x="672" y="146" type="curve" smooth="yes"/>
      <point x="672" y="69"/>
      <point x="622" y="40"/>
      <point x="561" y="40" type="curve" smooth="yes"/>
      <point x="551" y="40"/>
      <point x="524" y="39"/>
      <point x="502" y="41" type="curve"/>
      <point x="503" y="53"/>
      <point x="504" y="71"/>
      <point x="504" y="97" type="curve" smooth="yes"/>
      <point x="504" y="252" type="line"/>
      <point x="527" y="254"/>
      <point x="532" y="254"/>
      <point x="561" y="254" type="curve" smooth="yes"/>
    </contour>
  </outline>
</glyph>
<glyph name="ushort-cy" format="1">
  <advance width="528"/>
  <unicode hex="045E"/>
  <outline>
    <contour>
      <point x="349" y="711"/>
      <point x="340" y="684"/>
      <point x="340" y="669" type="curve" smooth="yes"/>
      <point x="340" y="658"/>
      <point x="343" y="644"/>
      <point x="350" y="633" type="curve"/>
      <point x="342" y="619"/>
      <point x="309" y="614"/>
      <point x="282" y="614" type="curve" smooth="yes"/>
      <point x="255" y="614"/>
      <point x="221" y="619"/>
      <point x="213" y="633" type="curve"/>
      <point x="220" y="644"/>
      <point x="223" y="658"/>
      <point x="223" y="669" type="curve" smooth="yes"/>
      <point x="223" y="684"/>
      <point x="214" y="711"/>
      <point x="181" y="710" type="curve" smooth="yes"/>
      <point x="156" y="709"/>
      <point x="142" y="688"/>
      <point x="142" y="664" type="curve" smooth="yes"/>
      <point x="142" y="610"/>
      <point x="205" y="577"/>
      <point x="282" y="577" type="curve" smooth="yes"/>
      <point x="358" y="577"/>
      <point x="422" y="610"/>
      <point x="422" y="664" type="curve" smooth="yes"/>
      <point x="422" y="688"/>
      <point x="407" y="709"/>
      <point x="382" y="710" type="curve" smooth="yes"/>
    </contour>
    <component base="u-cy"/>
  </outline>
</glyph>
<glyph name="gheupturn-cy" format="1">
  <advance width="438"/>
  <unicode hex="0491"/>
  <outline>
    <contour>
      <point x="421" y="460" type="line"/>
      <point x="425" y="611" type="line"/>
      <point x="387" y="611" type="line"/>
      <point x="385" y="527"/>
      <point x="359" y="500"/>
      <point x="251" y="500" type="curve"/>
      <point x="251" y="460" type="line"/>
    </contour>
    <contour>
      <point x="251" y="500" type="line"/>
      <point x="45" y="500" type="line"/>
      <point x="45" y="459" type="line"/>
      <point x="108" y="462" type="line"/>
      <point x="104" y="439"/>
      <point x="104" y="421"/>
      <point x="104" y="394" type="curve" smooth="yes"/>
      <point x="104" y="335" type="line"/>
      <point x="104" y="152" type="line" smooth="yes"/>
      <point x="103" y="80"/>
      <point x="105" y="30"/>
      <point x="44" y="30" type="curve"/>
      <point x="44" y="0" type="line"/>
      <point x="248" y="0" type="line"/>
      <point x="248" y="41" type="line"/>
      <point x="185" y="38" type="line"/>
      <point x="189" y="61"/>
      <point x="189" y="79"/>
      <point x="189" y="106" type="curve" smooth="yes"/>
      <point x="190" y="348" type="line" smooth="yes"/>
      <point x="190" y="420"/>
      <point x="192" y="460"/>
      <point x="251" y="460" type="curve" smooth="yes"/>
    </contour>
  </outline>
</glyph>
<glyph name="Ustraitstroke-cy" format="1">
  <advance width="634"/>
  <unicode hex="04B0"/>
  <outline>
    <contour>
      <point x="134" y="275" type="line"/>
      <point x="134" y="220" type="line"/>
      <point x="517" y="224" type="line"/>
      <point x="517" y="275" type="line"/>
    </contour>
    <component base="Y"/>
  </outline>
</glyph>
<glyph name="ustraitstroke-cy" format="1">
  <advance width="505"/>
  <unicode hex="04B1"/>
  <outline>
    <contour>
      <point x="344" y="500" type="line"/>
      <point x="344" y="459" type="line"/>
      <point x="408" y="462" type="line"/>
      <point x="402" y="450"/>
      <point x="389" y="425"/>
      <point x="378" y="393" type="curve" smooth="yes"/>
      <point x="298" y="174" type="line"/>
      <point x="274" y="102" type="line"/>
      <point x="273" y="102" type="line"/>
      <point x="263" y="130"/>
      <point x="253" y="158"/>
      <point x="244" y="183" type="curve" smooth="yes"/>
      <point x="167" y="359" type="line" smooth="yes"/>
      <point x="142" y="417"/>
      <point x="129" y="470"/>
      <point x="190" y="470" type="curve"/>
      <point x="190" y="500" type="line"/>
      <point x="6" y="500" type="line"/>
      <point x="6" y="459" type="line"/>
      <point x="49" y="462" type="line"/>
      <point x="50" y="439"/>
      <point x="58" y="399"/>
      <point x="91" y="323" type="curve" smooth="yes"/>
      <point x="234" y="-3" type="line"/>
      <point x="274" y="-3" type="line"/>
      <point x="405" y="335" type="line" smooth="yes"/>
      <point x="440" y="425"/>
      <point x="458" y="470"/>
      <point x="502" y="470" type="curve"/>
      <point x="502" y="500" type="line"/>
    </contour>
    <contour>
      <point x="210" y="33" type="line"/>
      <point x="209" y="-103" type="line" smooth="yes"/>
      <point x="208" y="-175"/>
      <point x="211" y="-225"/>
      <point x="150" y="-225" type="curve"/>
      <point x="150" y="-255" type="line"/>
      <point x="354" y="-255" type="line"/>
      <point x="354" y="-214" type="line"/>
      <point x="292" y="-217" type="line"/>
      <point x="295" y="-194"/>
      <point x="295" y="-176"/>
      <point x="295" y="-149" type="curve" smooth="yes"/>
      <point x="295" y="33" type="line"/>
    </contour>
    <contour>
      <point x="80" y="47" type="line"/>
      <point x="80" y="-3" type="line"/>
      <point x="443" y="0" type="line"/>
      <point x="443" y="47" type="line"/>
    </contour>
  </outline>
</glyph>
<glyph name="candraBindu-deva" format="1">
  <advance width="0"/>
  <unicode hex="0901"/>
  <outline>
    <contour>
      <point x="-92" y="905" type="line"/>
      <point x="-92" y="992" type="line"/>
      <point x="-178" y="992" type="line"/>
      <point x="-178" y="905" type="line"/>
    </contour>
    <contour>
      <point x="-79" y="759"/>
      <point x="-33" y="776"/>
      <point x="7" y="811" type="curve" smooth="yes"/>
      <point x="47" y="846"/>
      <point x="72" y="891"/>
      <point x="81" y="945" type="curve"/>
      <point x="8" y="945" type="line"/>
      <point x="-4" y="873"/>
      <point x="-64" y="819"/>
      <point x="-132" y="819" type="curve" smooth="yes"/>
      <point x="-165" y="819"/>
      <point x="-195" y="831"/>
      <point x="-222" y="855" type="curve" smooth="yes"/>
      <point x="-249" y="879"/>
      <point x="-265" y="909"/>
      <point x="-272" y="945" type="curve"/>
      <point x="-345" y="945" type="line"/>
      <point x="-335" y="891"/>
      <point x="-310" y="846"/>
      <point x="-270" y="811" type="curve" smooth="yes"/>
      <point x="-230" y="776"/>
      <point x="-184" y="759"/>
      <point x="-132" y="759" type="curve" smooth="yes"/>
    </contour>
    <contour>
      <point x="-120" y="666" type="move" name="_mark0"/>
    </contour>
  </outline>
</glyph>
<glyph name="anusvara-deva" format="1">
  <advance width="224"/>
  <unicode hex="0902"/>
  <outline>
    <contour>
      <point x="123" y="782"/>
      <point x="97" y="781"/>
      <point x="72" y="756" type="curve" smooth="yes"/>
      <point x="46" y="730"/>
      <point x="46" y="705"/>
      <point x="75" y="676" type="curve" smooth="yes"/>
      <point x="104" y="647"/>
      <point x="129" y="647"/>
      <point x="155" y="673" type="curve" smooth="yes"/>
      <point x="180" y="698"/>
      <point x="183" y="722"/>
      <point x="152" y="753" type="curve" smooth="yes"/>
    </contour>
  </outline>
</glyph>
<glyph name="a-deva" format="1">
  <advance width="810"/>
  <unicode hex="0905"/>
  <outline>
    <contour>
      <point x="581" y="279"/>
      <point x="489" y="274"/>
      <point x="357" y="337" type="curve"/>
      <point x="395" y="267" type="line"/>
      <point x="492" y="211"/>
      <point x="598" y="196"/>
      <point x="658" y="262" type="curve"/>
      <point x="637" y="348" type="line"/>
    </contour>
    <contour>
      <point x="100" y="89"/>
      <point x="191" y="18"/>
      <point x="294" y="18" type="curve" smooth="yes"/>
      <point x="400" y="18"/>
      <point x="448" y="86"/>
      <point x="448" y="163" type="curve" smooth="yes"/>
      <point x="448" y="264"/>
      <point x="364" y="382"/>
      <point x="221" y="382" type="curve"/>
      <point x="221" y="354" type="line"/>
      <point x="322" y="354"/>
      <point x="361" y="283"/>
      <point x="361" y="208" type="curve" smooth="yes"/>
      <point x="361" y="129"/>
      <point x="318" y="90"/>
      <point x="266" y="90" type="curve" smooth="yes"/>
      <point x="203" y="90"/>
      <point x="121" y="149"/>
      <point x="62" y="260" type="curve"/>
      <point x="25" y="241" type="line"/>
    </contour>
    <contour>
      <point x="126" y="535" type="line"/>
      <point x="175" y="569"/>
      <point x="235" y="589"/>
      <point x="277" y="589" type="curve" smooth="yes"/>
      <point x="325" y="589"/>
      <point x="361" y="564"/>
      <point x="361" y="504" type="curve" smooth="yes"/>
      <point x="361" y="427"/>
      <point x="302" y="400"/>
      <point x="229" y="392" type="curve" smooth="yes"/>
      <point x="168" y="385" type="line"/>
      <point x="180" y="309" type="line"/>
      <point x="243" y="315" type="line" smooth="yes"/>
      <point x="359" y="326"/>
      <point x="418" y="387"/>
      <point x="418" y="482" type="curve" smooth="yes"/>
      <point x="418" y="596"/>
      <point x="334" y="657"/>
      <point x="244" y="657" type="curve" smooth="yes"/>
      <point x="191" y="657"/>
      <point x="138" y="636"/>
      <point x="87" y="600" type="curve"/>
    </contour>
    <contour>
      <point x="453" y="627" type="line"/>
      <point x="483" y="547" type="line"/>
      <point x="617" y="547" type="line"/>
      <point x="617" y="0" type="line"/>
      <point x="704" y="-49" type="line"/>
      <point x="704" y="547" type="line"/>
      <point x="825" y="547" type="line"/>
      <point x="795" y="627" type="line"/>
    </contour>
    <contour>
      <point x="706" y="664" type="move" name="mark0"/>
    </contour>
  </outline>
</glyph>
<glyph name="aa-deva" format="1">
  <advance width="992"/>
  <unicode hex="0906"/>
  <outline>
    <contour>
      <point x="465" y="627" type="line"/>
      <point x="495" y="547" type="line"/>
      <point x="801" y="547" type="line"/>
      <point x="801" y="0" type="line"/>
      <point x="888" y="-49" type="line"/>
      <point x="888" y="547" type="line"/>
      <point x="1007" y="547" type="line"/>
      <point x="977" y="627" type="line"/>
    </contour>
    <contour>
      <point x="553" y="547" type="line"/>
      <point x="553" y="0" type="line"/>
      <point x="640" y="-49" type="line"/>
      <point x="640" y="547" type="line"/>
    </contour>
    <contour>
      <point x="532" y="343"/>
      <point x="479" y="294"/>
      <point x="357" y="337" type="curve"/>
      <point x="395" y="267" type="line"/>
      <point x="482" y="231"/>
      <point x="549" y="260"/>
      <point x="609" y="326" type="curve"/>
      <point x="588" y="412" type="line"/>
    </contour>
    <contour>
      <point x="100" y="89"/>
      <point x="191" y="18"/>
      <point x="297" y="18" type="curve" smooth="yes"/>
      <point x="400" y="18"/>
      <point x="448" y="86"/>
      <point x="448" y="163" type="curve" smooth="yes"/>
      <point x="448" y="264"/>
      <point x="364" y="382"/>
      <point x="221" y="382" type="curve"/>
      <point x="221" y="342" type="line"/>
      <point x="292" y="332"/>
      <point x="357" y="285"/>
      <point x="357" y="198" type="curve" smooth="yes"/>
      <point x="357" y="131"/>
      <point x="318" y="90"/>
      <point x="266" y="90" type="curve" smooth="yes"/>
      <point x="203" y="90"/>
      <point x="121" y="149"/>
      <point x="62" y="260" type="curve"/>
      <point x="25" y="241" type="line"/>
    </contour>
    <contour>
      <point x="126" y="535" type="line"/>
      <point x="175" y="569"/>
      <point x="235" y="589"/>
      <point x="278" y="589" type="curve" smooth="yes"/>
      <point x="325" y="589"/>
      <point x="361" y="564"/>
      <point x="361" y="504" type="curve" smooth="yes"/>
      <point x="361" y="427"/>
      <point x="302" y="400"/>
      <point x="229" y="392" type="curve" smooth="yes"/>
      <point x="168" y="385" type="line"/>
      <point x="180" y="309" type="line"/>
      <point x="243" y="315" type="line" smooth="yes"/>
      <point x="359" y="326"/>
      <point x="418" y="387"/>
      <point x="418" y="482" type="curve" smooth="yes"/>
      <point x="418" y="596"/>
      <point x="334" y="657"/>
      <point x="244" y="657" type="curve" smooth="yes"/>
      <point x="191" y="657"/>
      <point x="138" y="636"/>
      <point x="87" y="600" type="curve"/>
    </contour>
    <contour>
      <point x="786" y="664" type="move" name="mark0"/>
    </contour>
  </outline>
</glyph>
<glyph name="i-deva" format="1">
  <advance width="488"/>
  <unicode hex="0907"/>
  <outline>
    <contour>
      <point x="206" y="4" type="line"/>
      <point x="331" y="4"/>
      <point x="441" y="67"/>
      <point x="440" y="171" type="curve" smooth="yes"/>
      <point x="439" y="242"/>
      <point x="388" y="304"/>
      <point x="265" y="304" type="curve" smooth="yes"/>
      <point x="234" y="304"/>
      <point x="198" y="299"/>
      <point x="157" y="289" type="curve"/>
      <point x="130" y="315"/>
      <point x="114" y="343"/>
      <point x="114" y="383" type="curve" smooth="yes"/>
      <point x="114" y="420"/>
      <point x="136" y="450"/>
      <point x="185" y="450" type="curve" smooth="yes"/>
      <point x="379" y="450" type="line"/>
      <point x="377" y="583" type="line"/>
      <point x="488" y="583" type="line"/>
      <point x="488" y="627" type="line"/>
      <point x="0" y="627" type="line"/>
      <point x="0" y="583" type="line"/>
      <point x="300" y="583" type="line"/>
      <point x="300" y="494" type="line"/>
      <point x="187" y="494" type="line" smooth="yes"/>
      <point x="92" y="494"/>
      <point x="28" y="452"/>
      <point x="30" y="371" type="curve" smooth="yes"/>
      <point x="32" y="288"/>
      <point x="94" y="241"/>
      <point x="141" y="210" type="curve"/>
      <point x="185" y="221"/>
      <point x="221" y="226"/>
      <point x="251" y="226" type="curve" smooth="yes"/>
      <point x="326" y="226"/>
      <point x="359" y="194"/>
      <point x="359" y="142" type="curve" smooth="yes"/>
      <point x="359" y="91"/>
      <point x="299" y="45"/>
      <point x="198" y="45" type="curve"/>
    </contour>
    <contour>
      <point x="428" y="-64" type="line"/>
      <point x="352" y="-55"/>
      <point x="273" y="-20"/>
      <point x="208" y="32" type="curve"/>
      <point x="184" y="81"/>
      <point x="163" y="115"/>
      <point x="121" y="115" type="curve" smooth="yes"/>
      <point x="90" y="115"/>
      <point x="68" y="95"/>
      <point x="68" y="63" type="curve" smooth="yes"/>
      <point x="68" y="9"/>
      <point x="125" y="-10"/>
      <point x="196" y="1" type="curve"/>
      <point x="254" y="-43"/>
      <point x="325" y="-84"/>
      <point x="411" y="-98" type="curve"/>
    </contour>
  </outline>
</glyph>
<glyph name="ii-deva" format="1">
  <advance width="599"/>
  <unicode hex="0908"/>
  <note>
    dIi
  </note>
  <outline>
    <component base="i-deva"/>
    <component base="reph-deva" xOffset="279"/>
    <contour>
      <point x="395" y="537" type="move" name="top"/>
    </contour>
  </outline>
</glyph>
<glyph name="u-deva" format="1">
  <advance width="529"/>
  <unicode hex="0909"/>
  <outline>
    <contour>
      <point x="15" y="570" type="line"/>
      <point x="43" y="506" type="line"/>
      <point x="514" y="506" type="line"/>
      <point x="486" y="570" type="line"/>
    </contour>
    <contour>
      <point x="108" y="93"/>
      <point x="187" y="8"/>
      <point x="299" y="8" type="curve" smooth="yes"/>
      <point x="398" y="8"/>
      <point x="453" y="74"/>
      <point x="453" y="146" type="curve" smooth="yes"/>
      <point x="453" y="236"/>
      <point x="364" y="339"/>
      <point x="228" y="339" type="curve"/>
      <point x="228" y="313" type="line"/>
      <point x="314" y="313"/>
      <point x="369" y="238"/>
      <point x="369" y="169" type="curve" smooth="yes"/>
      <point x="369" y="110"/>
      <point x="330" y="73"/>
      <point x="272" y="73" type="curve" smooth="yes"/>
      <point x="191" y="73"/>
      <point x="127" y="147"/>
      <point x="84" y="228" type="curve"/>
      <point x="50" y="211" type="line"/>
    </contour>
    <contour>
      <point x="231" y="506" type="line"/>
      <point x="296" y="506"/>
      <point x="360" y="486"/>
      <point x="360" y="431" type="curve" smooth="yes"/>
      <point x="360" y="381"/>
      <point x="308" y="360"/>
      <point x="172" y="337" type="curve"/>
      <point x="190" y="274" type="line"/>
      <point x="247" y="283" type="line" smooth="yes"/>
      <point x="325" y="295"/>
      <point x="409" y="332"/>
      <point x="409" y="406" type="curve" smooth="yes"/>
      <point x="409" y="470"/>
      <point x="345" y="570"/>
      <point x="239" y="570" type="curve"/>
    </contour>
    <contour>
      <point x="-70" y="0" type="move" name="mark0"/>
    </contour>
  </outline>
</glyph>
<glyph name="uu-deva" format="1">
  <advance width="685"/>
  <unicode hex="090A"/>
  <outline>
    <contour>
      <point x="476" y="344"/>
      <point x="422" y="326"/>
      <point x="381" y="287" type="curve"/>
      <point x="435" y="226" type="line"/>
      <point x="467" y="272"/>
      <point x="513" y="305"/>
      <point x="551" y="305" type="curve" smooth="yes"/>
      <point x="625" y="305"/>
      <point x="604" y="195"/>
      <point x="517" y="113" type="curve"/>
      <point x="571" y="65" type="line"/>
      <point x="689" y="183"/>
      <point x="683" y="344"/>
      <point x="526" y="344" type="curve" smooth="yes"/>
    </contour>
    <contour>
      <point x="15" y="570" type="line"/>
      <point x="43" y="506" type="line"/>
      <point x="670" y="506" type="line"/>
      <point x="642" y="570" type="line"/>
    </contour>
    <contour>
      <point x="118" y="93"/>
      <point x="197" y="8"/>
      <point x="309" y="8" type="curve" smooth="yes"/>
      <point x="408" y="8"/>
      <point x="463" y="74"/>
      <point x="463" y="146" type="curve" smooth="yes"/>
      <point x="463" y="236"/>
      <point x="374" y="339"/>
      <point x="238" y="339" type="curve"/>
      <point x="238" y="313" type="line"/>
      <point x="324" y="313"/>
      <point x="379" y="238"/>
      <point x="379" y="169" type="curve" smooth="yes"/>
      <point x="379" y="110"/>
      <point x="340" y="73"/>
      <point x="282" y="73" type="curve" smooth="yes"/>
      <point x="201" y="73"/>
      <point x="137" y="147"/>
      <point x="94" y="228" type="curve"/>
      <point x="60" y="211" type="line"/>
    </contour>
    <contour>
      <point x="241" y="506" type="line"/>
      <point x="336" y="506"/>
      <point x="371" y="482"/>
      <point x="371" y="435" type="curve" smooth="yes"/>
      <point x="371" y="373"/>
      <point x="312" y="359"/>
      <point x="245" y="348" type="curve" smooth="yes"/>
      <point x="182" y="337" type="line"/>
      <point x="200" y="274" type="line"/>
      <point x="257" y="283" type="line" smooth="yes"/>
      <point x="343" y="296"/>
      <point x="416" y="339"/>
      <point x="416" y="416" type="curve" smooth="yes"/>
      <point x="416" y="511"/>
      <point x="331" y="570"/>
      <point x="229" y="570" type="curve"/>
    </contour>
    <contour>
      <point x="425" y="664" type="move" name="mark0"/>
    </contour>
  </outline>
</glyph>
<glyph name="rVocalic-deva" format="1">
  <advance width="869"/>
  <unicode hex="090B"/>
  <outline>
    <contour>
      <point x="-15" y="627" type="line"/>
      <point x="15" y="547" type="line"/>
      <point x="416" y="547" type="line"/>
      <point x="416" y="0" type="line"/>
      <point x="503" y="-49" type="line"/>
      <point x="503" y="547" type="line"/>
      <point x="884" y="547" type="line"/>
      <point x="854" y="627" type="line"/>
    </contour>
    <contour>
      <point x="105" y="77" type="line"/>
      <point x="170" y="-2" type="line"/>
      <point x="446" y="199" type="line"/>
      <point x="442" y="290" type="line" smooth="yes"/>
    </contour>
    <contour>
      <point x="359" y="393" type="line" smooth="yes"/>
      <point x="250" y="502"/>
      <point x="175" y="486"/>
      <point x="56" y="400" type="curve"/>
      <point x="111" y="335" type="line"/>
      <point x="208" y="403"/>
      <point x="268" y="410"/>
      <point x="331" y="352" type="curve" smooth="yes"/>
      <point x="422" y="268" type="line"/>
      <point x="449" y="302" type="line"/>
    </contour>
    <contour>
      <point x="644" y="221"/>
      <point x="821" y="309"/>
      <point x="821" y="381" type="curve" smooth="yes"/>
      <point x="821" y="429"/>
      <point x="731" y="465"/>
      <point x="678" y="465" type="curve" smooth="yes"/>
      <point x="654" y="465"/>
      <point x="642" y="451"/>
      <point x="642" y="433" type="curve" smooth="yes"/>
      <point x="642" y="405"/>
      <point x="652" y="371"/>
      <point x="680" y="329" type="curve"/>
      <point x="630" y="298"/>
      <point x="564" y="279"/>
      <point x="489" y="279" type="curve"/>
      <point x="489" y="221" type="line"/>
    </contour>
    <contour>
      <point x="683" y="0" type="line"/>
      <point x="839" y="33"/>
      <point x="864" y="141"/>
      <point x="719" y="338" type="curve"/>
      <point x="689" y="315" type="line"/>
      <point x="779" y="195"/>
      <point x="769" y="107"/>
      <point x="653" y="77" type="curve"/>
    </contour>
    <contour>
      <point x="-30" y="0" type="move" name="mark0"/>
    </contour>
  </outline>
</glyph>
<glyph name="lVocalic-deva" format="1">
  <advance width="701"/>
  <unicode hex="090C"/>
  <note>
    dVocalicL
  </note>
  <outline>
    <contour>
      <point x="586" y="269"/>
      <point x="522" y="187" type="curve" smooth="yes"/>
      <point x="458" y="104"/>
      <point x="436" y="23"/>
      <point x="506" y="-32" type="curve" smooth="yes"/>
      <point x="565" y="-78"/>
      <point x="657" y="-85"/>
      <point x="730" y="-2" type="curve"/>
      <point x="675" y="58" type="line"/>
      <point x="612" y="-4"/>
      <point x="557" y="-30"/>
      <point x="533" y="-6" type="curve" smooth="yes"/>
      <point x="514" y="13"/>
      <point x="523" y="53"/>
      <point x="575" y="117" type="curve" smooth="yes"/>
      <point x="611" y="161"/>
      <point x="620" y="194"/>
      <point x="620" y="229" type="curve" smooth="yes"/>
      <point x="620" y="319"/>
      <point x="559" y="408"/>
      <point x="460" y="408" type="curve" smooth="yes"/>
      <point x="370" y="408"/>
      <point x="310" y="337"/>
      <point x="291" y="250" type="curve"/>
      <point x="364" y="224" type="line"/>
      <point x="386" y="320"/>
      <point x="425" y="356"/>
      <point x="475" y="356" type="curve" smooth="yes"/>
      <point x="542" y="356"/>
    </contour>
    <contour>
      <point x="343" y="336" type="line"/>
      <point x="222" y="441"/>
      <point x="42" y="430"/>
      <point x="42" y="271" type="curve" smooth="yes"/>
      <point x="42" y="156"/>
      <point x="133" y="68"/>
      <point x="272" y="50" type="curve"/>
      <point x="272" y="92" type="line"/>
      <point x="186" y="100"/>
      <point x="129" y="152"/>
      <point x="129" y="237" type="curve" smooth="yes"/>
      <point x="129" y="311"/>
      <point x="173" y="344"/>
      <point x="225" y="344" type="curve" smooth="yes"/>
      <point x="257" y="344"/>
      <point x="291" y="332"/>
      <point x="326" y="308" type="curve"/>
    </contour>
    <contour>
      <point x="-15" y="570" type="line"/>
      <point x="13" y="506" type="line"/>
      <point x="455" y="506" type="line"/>
      <point x="455" y="457"/>
      <point x="445" y="409"/>
      <point x="435" y="360" type="curve"/>
      <point x="514" y="360" type="line"/>
      <point x="514" y="506" type="line"/>
      <point x="715" y="506" type="line"/>
      <point x="687" y="570" type="line"/>
    </contour>
    <contour>
      <point x="473" y="580" type="move" name="top"/>
    </contour>
    <contour>
      <point x="473" y="0" type="move" name="bottom"/>
    </contour>
  </outline>
</glyph>
<glyph name="e-deva" format="1">
  <advance width="617"/>
  <unicode hex="090F"/>
  <note>
    dE
  </note>
  <outline>
    <contour>
      <point x="602" y="506" type="line"/>
      <point x="574" y="570" type="line"/>
      <point x="15" y="570" type="line"/>
      <point x="43" y="506" type="line"/>
    </contour>
    <contour>
      <point x="419" y="522" type="line"/>
      <point x="419" y="355" type="line" smooth="yes"/>
      <point x="419" y="290"/>
      <point x="406" y="265"/>
      <point x="362" y="239" type="curve"/>
      <point x="393" y="169" type="line"/>
      <point x="459" y="198"/>
      <point x="498" y="242"/>
      <point x="498" y="328" type="curve" smooth="yes"/>
      <point x="498" y="522" type="line"/>
    </contour>
    <contour>
      <point x="121" y="522" type="line"/>
      <point x="121" y="291" type="line" smooth="yes"/>
      <point x="121" y="224"/>
      <point x="144" y="187"/>
      <point x="193" y="154" type="curve" smooth="yes"/>
      <point x="386" y="24" type="line" smooth="yes"/>
      <point x="419" y="2"/>
      <point x="394" y="-44"/>
      <point x="343" y="-99" type="curve"/>
      <point x="410" y="-153" type="line"/>
      <point x="485" y="-79"/>
      <point x="519" y="9"/>
      <point x="461" y="47" type="curve" smooth="yes"/>
      <point x="259" y="179" type="line" smooth="yes"/>
      <point x="216" y="207"/>
      <point x="200" y="228"/>
      <point x="200" y="280" type="curve" smooth="yes"/>
      <point x="200" y="522" type="line"/>
    </contour>
    <contour>
      <point x="40" y="0" type="move" name="top"/>
    </contour>
    <contour>
      <point x="40" y="0" type="move" name="bottom"/>
    </contour>
  </outline>
</glyph>
<glyph name="ka-deva" format="1">
  <advance width="776"/>
  <unicode hex="0915"/>
  <outline>
    <contour>
      <point x="0" y="627" type="line"/>
      <point x="776" y="627" type="line"/>
      <point x="776" y="583" type="line"/>
      <point x="445" y="583" type="line"/>
      <point x="445" y="0" type="line"/>
      <point x="358" y="0" type="line"/>
      <point x="358" y="583" type="line"/>
      <point x="0" y="583" type="line"/>
    </contour>
    <contour>
      <point x="481" y="495"/>
      <point x="526" y="506"/>
      <point x="570" y="506" type="curve" smooth="yes"/>
      <point x="652" y="506"/>
      <point x="746" y="441"/>
      <point x="746" y="309" type="curve" smooth="yes"/>
      <point x="746" y="177"/>
      <point x="641" y="110"/>
      <point x="557" y="110" type="curve" smooth="yes"/>
      <point x="527" y="110"/>
      <point x="499" y="118"/>
      <point x="477" y="135" type="curve"/>
      <point x="490" y="165" type="line"/>
      <point x="509" y="155"/>
      <point x="536" y="152"/>
      <point x="555" y="152" type="curve" smooth="yes"/>
      <point x="608" y="152"/>
      <point x="649" y="199"/>
      <point x="649" y="304" type="curve" smooth="yes"/>
      <point x="649" y="419"/>
      <point x="587" y="462"/>
      <point x="530" y="462" type="curve" smooth="yes"/>
      <point x="494" y="462"/>
      <point x="467" y="454"/>
      <point x="445" y="439" type="curve"/>
      <point x="445" y="471" type="line"/>
    </contour>
    <contour>
      <point x="325" y="121"/>
      <point x="277" y="110"/>
      <point x="233" y="110" type="curve" smooth="yes"/>
      <point x="151" y="110"/>
      <point x="57" y="175"/>
      <point x="57" y="303" type="curve" smooth="yes"/>
      <point x="57" y="439"/>
      <point x="162" y="506"/>
      <point x="246" y="506" type="curve" smooth="yes"/>
      <point x="276" y="506"/>
      <point x="304" y="498"/>
      <point x="326" y="481" type="curve"/>
      <point x="313" y="451" type="line"/>
      <point x="294" y="461"/>
      <point x="277" y="464"/>
      <point x="248" y="464" type="curve" smooth="yes"/>
      <point x="195" y="464"/>
      <point x="154" y="417"/>
      <point x="154" y="318" type="curve" smooth="yes"/>
      <point x="154" y="197"/>
      <point x="216" y="154"/>
      <point x="273" y="154" type="curve" smooth="yes"/>
      <point x="299" y="154"/>
      <point x="336" y="162"/>
      <point x="358" y="177" type="curve"/>
      <point x="358" y="145" type="line"/>
    </contour>
    <contour>
      <point x="724" y="661" type="move" name="mark0"/>
    </contour>
  </outline>
</glyph>
<glyph name="kha-deva" format="1">
  <advance width="833"/>
  <unicode hex="0916"/>
  <outline>
    <contour>
      <point x="0" y="627" type="line"/>
      <point x="0" y="583" type="line"/>
      <point x="201.455" y="583" type="line"/>
      <point x="225" y="536"/>
      <point x="235" y="488"/>
      <point x="235" y="447" type="curve" smooth="yes"/>
      <point x="235" y="365"/>
      <point x="205" y="325"/>
      <point x="166" y="340" type="curve"/>
      <point x="167" y="388"/>
      <point x="132" y="413"/>
      <point x="98" y="413" type="curve" smooth="yes"/>
      <point x="68" y="413"/>
      <point x="39" y="392"/>
      <point x="39" y="350" type="curve" smooth="yes"/>
      <point x="39" y="124"/>
      <point x="333" y="-78"/>
      <point x="642" y="66" type="curve"/>
      <point x="642" y="0" type="line"/>
      <point x="729" y="0" type="line"/>
      <point x="729" y="583" type="line"/>
      <point x="833" y="583" type="line"/>
      <point x="833" y="627" type="line"/>
    </contour>
    <contour>
      <point x="216" y="247"/>
      <point x="291" y="314"/>
      <point x="291" y="433" type="curve" smooth="yes"/>
      <point x="291" y="480"/>
      <point x="279" y="533"/>
      <point x="254" y="583" type="curve"/>
      <point x="642" y="583" type="line"/>
      <point x="642" y="239" type="line"/>
      <point x="623" y="224"/>
      <point x="583" y="216"/>
      <point x="557" y="216" type="curve" smooth="yes"/>
      <point x="494" y="216"/>
      <point x="435" y="246"/>
      <point x="435" y="340" type="curve" smooth="yes"/>
      <point x="435" y="410"/>
      <point x="486" y="444"/>
      <point x="539" y="444" type="curve" smooth="yes"/>
      <point x="558" y="444"/>
      <point x="578" y="441"/>
      <point x="597" y="431" type="curve"/>
      <point x="610" y="461" type="line"/>
      <point x="588" y="478"/>
      <point x="553" y="486"/>
      <point x="510" y="486" type="curve" smooth="yes"/>
      <point x="435" y="486"/>
      <point x="345" y="435"/>
      <point x="345" y="327" type="curve" smooth="yes"/>
      <point x="345" y="224"/>
      <point x="430" y="170"/>
      <point x="527" y="172" type="curve" smooth="yes"/>
      <point x="568" y="173"/>
      <point x="612" y="183"/>
      <point x="642" y="207" type="curve"/>
      <point x="642" y="115" type="line"/>
      <point x="410" y="-1"/>
      <point x="163" y="108"/>
      <point x="138.329" y="283.892" type="curve"/>
    </contour>
  </outline>
</glyph>
<glyph name="ga-deva" format="1">
  <advance width="624"/>
  <unicode hex="0917"/>
  <outline>
    <contour>
      <point x="609" y="627" type="line"/>
      <point x="-15" y="627" type="line"/>
      <point x="15" y="547" type="line"/>
      <point x="173" y="547" type="line"/>
      <point x="182" y="466"/>
      <point x="186" y="401"/>
      <point x="180" y="317" type="curve"/>
      <point x="162" y="322"/>
      <point x="136" y="327"/>
      <point x="109" y="327" type="curve" smooth="yes"/>
      <point x="75" y="327"/>
      <point x="59" y="318"/>
      <point x="59" y="287" type="curve" smooth="yes"/>
      <point x="59" y="238"/>
      <point x="155" y="151"/>
      <point x="202" y="151" type="curve" smooth="yes"/>
      <point x="262" y="151"/>
      <point x="258" y="410"/>
      <point x="242" y="547" type="curve"/>
      <point x="417" y="547" type="line"/>
      <point x="417" y="0" type="line"/>
      <point x="504" y="-49" type="line"/>
      <point x="504" y="547" type="line"/>
      <point x="639" y="547" type="line"/>
    </contour>
    <contour>
      <point x="436" y="664" type="move" name="mark0"/>
    </contour>
  </outline>
</glyph>
<glyph name="gha-deva" format="1">
  <advance width="656"/>
  <unicode hex="0918"/>
  <outline>
    <contour>
      <point x="-15" y="627" type="line"/>
      <point x="15" y="547" type="line"/>
      <point x="483" y="547" type="line"/>
      <point x="483" y="0" type="line"/>
      <point x="570" y="-49" type="line"/>
      <point x="570" y="547" type="line"/>
      <point x="671" y="547" type="line"/>
      <point x="641" y="627" type="line"/>
    </contour>
    <contour>
      <point x="212" y="411"/>
      <point x="125" y="363"/>
      <point x="125" y="269" type="curve" smooth="yes"/>
      <point x="125" y="184"/>
      <point x="196" y="76"/>
      <point x="323" y="83" type="curve" smooth="yes"/>
      <point x="422" y="88"/>
      <point x="500" y="157"/>
      <point x="550" y="228" type="curve"/>
      <point x="484" y="292" type="line"/>
      <point x="435" y="211"/>
      <point x="371" y="157"/>
      <point x="281" y="157" type="curve" smooth="yes"/>
      <point x="212" y="157"/>
      <point x="190" y="188"/>
      <point x="190" y="230" type="curve" smooth="yes"/>
      <point x="190" y="289"/>
      <point x="232" y="329"/>
      <point x="336" y="351" type="curve"/>
      <point x="311" y="431" type="line"/>
    </contour>
    <contour>
      <point x="239" y="611"/>
      <point x="90" y="586"/>
      <point x="90" y="467" type="curve" smooth="yes"/>
      <point x="90" y="411"/>
      <point x="123" y="364"/>
      <point x="191" y="331" type="curve"/>
      <point x="211" y="360" type="line"/>
      <point x="166" y="388"/>
      <point x="155" y="405"/>
      <point x="155" y="438" type="curve" smooth="yes"/>
      <point x="155" y="506"/>
      <point x="211" y="545"/>
      <point x="328" y="547" type="curve"/>
      <point x="327" y="611" type="line"/>
    </contour>
  </outline>
</glyph>
<glyph name="nga-deva" format="1">
  <advance width="684"/>
  <unicode hex="0919"/>
  <outline>
    <contour>
      <point x="597" y="406"/>
      <point x="571" y="405"/>
      <point x="546" y="380" type="curve" smooth="yes"/>
      <point x="520" y="354"/>
      <point x="520" y="329"/>
      <point x="549" y="300" type="curve" smooth="yes"/>
      <point x="578" y="271"/>
      <point x="603" y="271"/>
      <point x="629" y="297" type="curve" smooth="yes"/>
      <point x="654" y="322"/>
      <point x="657" y="346"/>
      <point x="626" y="377" type="curve" smooth="yes"/>
    </contour>
    <contour>
      <point x="555" y="570" type="line"/>
      <point x="582" y="506" type="line"/>
      <point x="669" y="506" type="line"/>
      <point x="641" y="570" type="line"/>
    </contour>
    <component base="dda-deva"/>
    <contour>
      <point x="450" y="664" type="move" name="mark0"/>
    </contour>
    <contour>
      <point x="180" y="500" type="move" name="top"/>
    </contour>
  </outline>
</glyph>
<glyph name="ca-deva" format="1">
  <advance width="684"/>
  <unicode hex="091A"/>
  <outline>
    <contour>
      <point x="0" y="627" type="line"/>
      <point x="684" y="627" type="line"/>
      <point x="684" y="583" type="line"/>
      <point x="555" y="583" type="line"/>
      <point x="555" y="0" type="line"/>
      <point x="468" y="0" type="line"/>
      <point x="468" y="583" type="line"/>
      <point x="0" y="583" type="line"/>
    </contour>
    <contour>
      <point x="425" y="118"/>
      <point x="377" y="105"/>
      <point x="330" y="105" type="curve" smooth="yes"/>
      <point x="225" y="105"/>
      <point x="130" y="168"/>
      <point x="130" y="270" type="curve" smooth="yes"/>
      <point x="130" y="344"/>
      <point x="194" y="415"/>
      <point x="332" y="415" type="curve"/>
      <point x="332" y="396" type="line"/>
      <point x="267" y="396"/>
      <point x="236" y="349"/>
      <point x="236" y="276" type="curve" smooth="yes"/>
      <point x="236" y="199"/>
      <point x="298" y="161"/>
      <point x="368" y="161" type="curve" smooth="yes"/>
      <point x="401" y="161"/>
      <point x="436" y="170"/>
      <point x="468" y="187" type="curve"/>
      <point x="468" y="145" type="line"/>
    </contour>
    <contour>
      <point x="38" y="396" type="line"/>
      <point x="38" y="440" type="line"/>
      <point x="387" y="440" type="line"/>
      <point x="387" y="396" type="line"/>
    </contour>
    <contour>
      <point x="503" y="664" type="move" name="mark0"/>
    </contour>
  </outline>
</glyph>
<glyph name="cha-deva" format="1">
  <advance width="776"/>
  <unicode hex="091B"/>
  <outline>
    <contour>
      <point x="227" y="255" type="line"/>
      <point x="169" y="268"/>
      <point x="145" y="304"/>
      <point x="145" y="342" type="curve" smooth="yes"/>
      <point x="145" y="385"/>
      <point x="176" y="413"/>
      <point x="231" y="413" type="curve" smooth="yes"/>
      <point x="257" y="413"/>
      <point x="283" y="407"/>
      <point x="314" y="397" type="curve"/>
      <point x="293" y="457" type="line"/>
      <point x="264" y="466"/>
      <point x="237" y="470"/>
      <point x="210" y="470" type="curve" smooth="yes"/>
      <point x="123" y="470"/>
      <point x="64" y="429"/>
      <point x="64" y="365" type="curve" smooth="yes"/>
      <point x="64" y="308"/>
      <point x="110" y="228"/>
      <point x="213" y="223" type="curve"/>
    </contour>
    <contour>
      <point x="650" y="181" type="line"/>
      <point x="549" y="229"/>
      <point x="508" y="282"/>
      <point x="508" y="343" type="curve" smooth="yes"/>
      <point x="508" y="387"/>
      <point x="529" y="407"/>
      <point x="558" y="407" type="curve" smooth="yes"/>
      <point x="600" y="407"/>
      <point x="638" y="367"/>
      <point x="638" y="287" type="curve" smooth="yes"/>
      <point x="638" y="85"/>
      <point x="420" y="44"/>
      <point x="323" y="44" type="curve" smooth="yes"/>
      <point x="260" y="44"/>
      <point x="219" y="77"/>
      <point x="219" y="137" type="curve" smooth="yes"/>
      <point x="219" y="225"/>
      <point x="309" y="249"/>
      <point x="383" y="215" type="curve"/>
      <point x="373" y="279" type="line"/>
      <point x="267" y="335"/>
      <point x="130" y="265"/>
      <point x="130" y="158" type="curve" smooth="yes"/>
      <point x="130" y="62"/>
      <point x="248" y="-9"/>
      <point x="360" y="-9" type="curve" smooth="yes"/>
      <point x="552" y="-9"/>
      <point x="725" y="92"/>
      <point x="725" y="258" type="curve" smooth="yes"/>
      <point x="725" y="374"/>
      <point x="636" y="456"/>
      <point x="540" y="456" type="curve" smooth="yes"/>
      <point x="470" y="456"/>
      <point x="417" y="418"/>
      <point x="417" y="346" type="curve" smooth="yes"/>
      <point x="417" y="241"/>
      <point x="528" y="178"/>
      <point x="633" y="148" type="curve"/>
    </contour>
    <contour>
      <point x="-15" y="627" type="line"/>
      <point x="15" y="547" type="line"/>
      <point x="532" y="547" type="line"/>
      <point x="532" y="430" type="line"/>
      <point x="619" y="423" type="line"/>
      <point x="619" y="547" type="line"/>
      <point x="791" y="547" type="line"/>
      <point x="761" y="627" type="line"/>
    </contour>
    <contour>
      <point x="591" y="664" type="move" name="mark0"/>
    </contour>
  </outline>
</glyph>
<glyph name="jadeva" format="1">
  <advance width="667"/>
  <unicode hex="091C"/>
  <note>
    dJa
  </note>
  <outline>
    <contour>
      <point x="510" y="401" type="line"/>
      <point x="172" y="401" type="line"/>
      <point x="179" y="358" type="line"/>
      <point x="272" y="346"/>
      <point x="325" y="265"/>
      <point x="325" y="202" type="curve" smooth="yes"/>
      <point x="325" y="160"/>
      <point x="302" y="126"/>
      <point x="253" y="126" type="curve" smooth="yes"/>
      <point x="184" y="126"/>
      <point x="123" y="181"/>
      <point x="46" y="327" type="curve"/>
      <point x="10" y="314" type="line"/>
      <point x="81" y="143"/>
      <point x="149" y="42"/>
      <point x="275" y="42" type="curve" smooth="yes"/>
      <point x="364" y="42"/>
      <point x="405" y="98"/>
      <point x="405" y="164" type="curve" smooth="yes"/>
      <point x="405" y="220"/>
      <point x="376" y="284"/>
      <point x="322" y="328" type="curve"/>
      <point x="510" y="335" type="line"/>
    </contour>
    <contour>
      <point x="697" y="506" type="line"/>
      <point x="669" y="570" type="line"/>
      <point x="-30" y="570" type="line"/>
      <point x="-2" y="506" type="line"/>
    </contour>
    <component base="stem-deva" xOffset="146"/>
    <contour>
      <point x="399" y="-34" type="move" name="nukta"/>
    </contour>
    <contour>
      <point x="532" y="0" type="move" name="bottom"/>
    </contour>
    <contour>
      <point x="535" y="570" type="move" name="top"/>
    </contour>
  </outline>
</glyph>
<glyph name="jha-deva" format="1">
  <advance width="832"/>
  <unicode hex="091D"/>
  <outline>
    <contour>
      <point x="228" y="470" type="line" smooth="yes"/>
      <point x="160" y="470"/>
      <point x="109" y="425"/>
      <point x="109" y="350" type="curve" smooth="yes"/>
      <point x="109" y="245"/>
      <point x="209" y="175"/>
      <point x="290" y="188" type="curve" smooth="yes"/>
      <point x="312" y="192"/>
      <point x="333" y="202"/>
      <point x="352" y="209" type="curve" smooth="yes"/>
      <point x="387" y="221"/>
      <point x="403" y="222"/>
      <point x="416" y="214" type="curve" smooth="yes"/>
      <point x="436" y="201"/>
      <point x="440" y="171"/>
      <point x="440" y="154" type="curve" smooth="yes"/>
      <point x="440" y="24"/>
      <point x="228" y="-7"/>
      <point x="156" y="69" type="curve"/>
      <point x="85" y="53" type="line"/>
      <point x="140" y="-14"/>
      <point x="206" y="-42"/>
      <point x="292" y="-42" type="curve" smooth="yes"/>
      <point x="400" y="-42"/>
      <point x="519" y="1"/>
      <point x="519" y="115" type="curve" smooth="yes"/>
      <point x="519" y="197"/>
      <point x="459" y="298"/>
      <point x="377" y="298" type="curve" smooth="yes"/>
      <point x="311" y="298"/>
      <point x="243" y="233"/>
      <point x="201" y="261" type="curve" smooth="yes"/>
      <point x="187" y="270"/>
      <point x="174" y="289"/>
      <point x="174" y="323" type="curve" smooth="yes"/>
      <point x="174" y="373"/>
      <point x="202" y="406"/>
      <point x="275" y="406" type="curve" smooth="yes"/>
      <point x="485" y="406" type="line"/>
      <point x="410" y="470" type="line"/>
    </contour>
    <contour>
      <point x="203" y="123"/>
      <point x="173" y="135"/>
      <point x="141" y="135" type="curve" smooth="yes"/>
      <point x="100" y="135"/>
      <point x="60" y="116"/>
      <point x="72" y="74" type="curve" smooth="yes"/>
      <point x="106" y="-42"/>
      <point x="134" y="-105"/>
      <point x="198" y="-197" type="curve"/>
      <point x="283" y="-149" type="line"/>
      <point x="229" y="-106"/>
      <point x="196" y="-58"/>
      <point x="141" y="22" type="curve"/>
      <point x="162" y="44"/>
      <point x="203" y="72"/>
      <point x="203" y="98" type="curve" smooth="yes"/>
    </contour>
    <contour>
      <point x="587" y="241"/>
      <point x="533" y="222"/>
      <point x="438" y="278" type="curve"/>
      <point x="458" y="211" type="line"/>
      <point x="536" y="177"/>
      <point x="591" y="170"/>
      <point x="663" y="180" type="curve"/>
      <point x="663" y="273" type="line"/>
    </contour>
    <contour>
      <point x="-15" y="627" type="line"/>
      <point x="15" y="547" type="line"/>
      <point x="398" y="547" type="line"/>
      <point x="398" y="470" type="line"/>
      <point x="485" y="406" type="line"/>
      <point x="485" y="547" type="line"/>
      <point x="847" y="547" type="line"/>
      <point x="817" y="627" type="line"/>
    </contour>
    <contour>
      <point x="645" y="547" type="line"/>
      <point x="645" y="0" type="line"/>
      <point x="732" y="-49" type="line"/>
      <point x="732" y="547" type="line"/>
    </contour>
    <contour>
      <point x="657" y="664" type="move" name="mark0"/>
    </contour>
  </outline>
</glyph>
<glyph name="nyadeva" format="1">
  <advance width="687"/>
  <unicode hex="091E"/>
  <note>
    dNya
  </note>
  <outline>
    <contour>
      <point x="-30" y="570" type="line"/>
      <point x="-2" y="506" type="line"/>
      <point x="717" y="506" type="line"/>
      <point x="689" y="570" type="line"/>
    </contour>
    <contour>
      <point x="441" y="381"/>
      <point x="374" y="435"/>
      <point x="298" y="435" type="curve" smooth="yes"/>
      <point x="254" y="435"/>
      <point x="206" y="417"/>
      <point x="166" y="383" type="curve"/>
      <point x="210" y="318" type="line"/>
      <point x="245" y="341"/>
      <point x="283" y="353"/>
      <point x="317" y="353" type="curve" smooth="yes"/>
      <point x="363" y="353"/>
      <point x="399" y="329"/>
      <point x="399" y="275" type="curve" smooth="yes"/>
      <point x="399" y="201"/>
      <point x="349" y="167"/>
      <point x="286" y="167" type="curve" smooth="yes"/>
      <point x="207" y="167"/>
      <point x="108" y="219"/>
      <point x="54" y="312" type="curve"/>
      <point x="22" y="290" type="line"/>
      <point x="87" y="159"/>
      <point x="203" y="86"/>
      <point x="296" y="86" type="curve" smooth="yes"/>
      <point x="379" y="86"/>
      <point x="444" y="143"/>
      <point x="442" y="266" type="curve" smooth="yes"/>
    </contour>
    <contour>
      <point x="410" y="260" type="line"/>
      <point x="603" y="247" type="line"/>
      <point x="603" y="306" type="line"/>
      <point x="410" y="306" type="line"/>
    </contour>
    <component base="stem-deva" xOffset="176"/>
    <contour>
      <point x="100" y="0" type="move" name="nukta"/>
    </contour>
    <contour>
      <point x="561" y="0" type="move" name="bottom"/>
    </contour>
    <contour>
      <point x="561" y="570" type="move" name="top"/>
    </contour>
  </outline>
</glyph>
<glyph name="tta-deva" format="1">
  <advance width="619"/>
  <unicode hex="091F"/>
  <outline>
    <contour>
      <point x="225" y="56"/>
      <point x="174" y="105"/>
      <point x="174" y="187" type="curve" smooth="yes"/>
      <point x="174" y="273"/>
      <point x="228" y="323"/>
      <point x="309" y="323" type="curve" smooth="yes"/>
      <point x="460" y="323" type="line"/>
      <point x="460" y="506" type="line"/>
      <point x="604" y="506" type="line"/>
      <point x="576" y="570" type="line"/>
      <point x="15" y="570" type="line"/>
      <point x="43" y="506" type="line"/>
      <point x="381" y="506" type="line"/>
      <point x="381" y="396" type="line"/>
      <point x="310" y="396" type="line" smooth="yes"/>
      <point x="198" y="396"/>
      <point x="113" y="337"/>
      <point x="113" y="224" type="curve" smooth="yes"/>
      <point x="113" y="110"/>
      <point x="198" y="-6"/>
      <point x="346" y="-6" type="curve" smooth="yes"/>
      <point x="412" y="-6"/>
      <point x="464" y="19"/>
      <point x="527" y="79" type="curve"/>
      <point x="472" y="147" type="line"/>
      <point x="405" y="74"/>
      <point x="356" y="56"/>
      <point x="306" y="56" type="curve" smooth="yes"/>
    </contour>
    <contour>
      <point x="432" y="664" type="move" name="mark0"/>
    </contour>
  </outline>
</glyph>
<glyph name="ttha-deva" format="1">
  <advance width="600"/>
  <unicode hex="0920"/>
  <outline>
    <contour>
      <point x="600" y="583" type="line"/>
      <point x="600" y="627" type="line"/>
      <point x="0" y="627" type="line"/>
      <point x="0" y="583" type="line"/>
      <point x="317" y="583" type="line"/>
      <point x="317" y="433" type="line"/>
      <point x="295" y="433" type="line" smooth="yes"/>
      <point x="184" y="433"/>
      <point x="66" y="368"/>
      <point x="67" y="214" type="curve" smooth="yes"/>
      <point x="69" y="86"/>
      <point x="143" y="0"/>
      <point x="279" y="0" type="curve" smooth="yes"/>
      <point x="394" y="0"/>
      <point x="526" y="83"/>
      <point x="526" y="231" type="curve" smooth="yes"/>
      <point x="526" y="327.745"/>
      <point x="477" y="395"/>
      <point x="403" y="421" type="curve"/>
      <point x="405" y="583" type="line"/>
    </contour>
    <contour>
      <point x="228" y="40"/>
      <point x="163" y="120"/>
      <point x="164" y="245" type="curve" smooth="yes"/>
      <point x="165" y="358"/>
      <point x="214" y="389"/>
      <point x="295" y="389" type="curve" smooth="yes"/>
      <point x="329" y="389" type="line" smooth="yes"/>
      <point x="405" y="389"/>
      <point x="429" y="280"/>
      <point x="429" y="195" type="curve" smooth="yes"/>
      <point x="429" y="100"/>
      <point x="378" y="40"/>
      <point x="308" y="40" type="curve" smooth="yes"/>
    </contour>
    <contour>
      <point x="422" y="664" type="move" name="mark0"/>
    </contour>
  </outline>
</glyph>
<glyph name="dda-deva" format="1">
  <advance width="594"/>
  <unicode hex="0921"/>
  <outline>
    <contour>
      <point x="469" y="450" type="line"/>
      <point x="469" y="583" type="line"/>
      <point x="594" y="583" type="line"/>
      <point x="594" y="627" type="line"/>
      <point x="0" y="627" type="line"/>
      <point x="0" y="583" type="line"/>
      <point x="382" y="583" type="line"/>
      <point x="382" y="494" type="line"/>
      <point x="269" y="494" type="line" smooth="yes"/>
      <point x="164" y="494"/>
      <point x="102" y="452"/>
      <point x="102" y="371" type="curve" smooth="yes"/>
      <point x="102" y="288"/>
      <point x="164" y="241"/>
      <point x="223" y="210" type="curve"/>
      <point x="267" y="221"/>
      <point x="303" y="226"/>
      <point x="333" y="226" type="curve" smooth="yes"/>
      <point x="408" y="226"/>
      <point x="441" y="194"/>
      <point x="441" y="142" type="curve" smooth="yes"/>
      <point x="441" y="69"/>
      <point x="382" y="22"/>
      <point x="275" y="22" type="curve" smooth="yes"/>
      <point x="181" y="22"/>
      <point x="108" y="52"/>
      <point x="62" y="160" type="curve"/>
      <point x="30" y="153" type="line"/>
      <point x="67" y="34"/>
      <point x="163" y="-16"/>
      <point x="271" y="-16" type="curve" smooth="yes"/>
      <point x="398" y="-16"/>
      <point x="523" y="33"/>
      <point x="522" y="151" type="curve" smooth="yes"/>
      <point x="521" y="232"/>
      <point x="470" y="304"/>
      <point x="347" y="304" type="curve" smooth="yes"/>
      <point x="316" y="304"/>
      <point x="280" y="299"/>
      <point x="239" y="289" type="curve"/>
      <point x="200" y="314"/>
      <point x="178" y="341"/>
      <point x="178" y="383" type="curve" smooth="yes"/>
      <point x="178" y="420"/>
      <point x="196" y="450"/>
      <point x="267" y="450" type="curve" smooth="yes"/>
    </contour>
    <contour>
      <point x="495" y="664" type="move" name="mark0"/>
    </contour>
  </outline>
</glyph>
<glyph name="ddha-deva" format="1">
  <advance width="607"/>
  <unicode hex="0922"/>
  <outline>
    <contour>
      <point x="300" y="372" type="line"/>
      <point x="466" y="372" type="line"/>
      <point x="466" y="547" type="line"/>
      <point x="622" y="547" type="line"/>
      <point x="592" y="627" type="line"/>
      <point x="-15" y="627" type="line"/>
      <point x="15" y="547" type="line"/>
      <point x="379" y="547" type="line"/>
      <point x="379" y="452" type="line"/>
      <point x="290" y="452" type="line"/>
    </contour>
    <contour>
      <point x="340" y="56" type="line"/>
      <point x="304" y="73"/>
      <point x="285" y="111"/>
      <point x="285" y="147" type="curve" smooth="yes"/>
      <point x="285" y="187"/>
      <point x="309" y="224"/>
      <point x="379" y="224" type="curve" smooth="yes"/>
      <point x="441" y="224"/>
      <point x="490" y="196"/>
      <point x="490" y="152" type="curve" smooth="yes"/>
      <point x="490" y="106"/>
      <point x="437" y="76"/>
      <point x="319" y="76" type="curve" smooth="yes"/>
      <point x="182" y="76"/>
      <point x="132" y="136"/>
      <point x="132" y="215" type="curve" smooth="yes"/>
      <point x="132" y="295"/>
      <point x="184" y="372"/>
      <point x="284" y="372" type="curve" smooth="yes"/>
      <point x="309" y="372" type="line"/>
      <point x="299" y="452" type="line"/>
      <point x="284" y="452" type="line" smooth="yes"/>
      <point x="129" y="452"/>
      <point x="80" y="342"/>
      <point x="80" y="239" type="curve" smooth="yes"/>
      <point x="80" y="113"/>
      <point x="152" y="-6"/>
      <point x="326" y="-5" type="curve" smooth="yes"/>
      <point x="445" y="-4"/>
      <point x="542" y="53"/>
      <point x="542" y="152" type="curve" smooth="yes"/>
      <point x="542" y="231"/>
      <point x="478" y="304"/>
      <point x="372" y="304" type="curve" smooth="yes"/>
      <point x="277" y="304"/>
      <point x="233" y="244"/>
      <point x="233" y="176" type="curve" smooth="yes"/>
      <point x="233" y="124"/>
      <point x="259" y="67"/>
      <point x="310" y="28" type="curve"/>
    </contour>
    <contour>
      <point x="448" y="664" type="move" name="mark0"/>
    </contour>
  </outline>
</glyph>
<glyph name="nna-deva" format="1">
  <advance width="712"/>
  <unicode hex="0923"/>
  <outline>
    <contour>
      <point x="334" y="526" type="line"/>
      <point x="334" y="312" type="line" smooth="yes"/>
      <point x="334" y="228"/>
      <point x="309" y="210"/>
      <point x="252" y="209" type="curve" smooth="yes"/>
      <point x="201" y="208"/>
      <point x="173" y="234"/>
      <point x="173" y="313" type="curve" smooth="yes"/>
      <point x="173" y="526" type="line"/>
      <point x="94" y="526" type="line"/>
      <point x="94" y="395" type="line" smooth="yes"/>
      <point x="94" y="249"/>
      <point x="175" y="146"/>
      <point x="285" y="146" type="curve" smooth="yes"/>
      <point x="368" y="146"/>
      <point x="413" y="219"/>
      <point x="413" y="312" type="curve" smooth="yes"/>
      <point x="413" y="526" type="line"/>
    </contour>
    <contour>
      <point x="573" y="506" type="line"/>
      <point x="697" y="506" type="line"/>
      <point x="669" y="570" type="line"/>
      <point x="15" y="570" type="line"/>
      <point x="43" y="506" type="line"/>
      <point x="494" y="506" type="line"/>
      <point x="494" y="0" type="line"/>
      <point x="573" y="0" type="line"/>
    </contour>
    <contour>
      <point x="482" y="664" type="move" name="mark0"/>
    </contour>
  </outline>
</glyph>
<glyph name="tadeva" format="1">
  <advance width="507"/>
  <unicode hex="0924"/>
  <note>
    dTa
  </note>
  <outline>
    <contour>
      <point x="387" y="333" type="line"/>
      <point x="360" y="397" type="line"/>
      <point x="180" y="397" type="line" smooth="yes"/>
      <point x="82" y="397"/>
      <point x="19" y="359"/>
      <point x="19" y="263" type="curve" smooth="yes"/>
      <point x="19" y="177"/>
      <point x="70" y="82"/>
      <point x="195" y="-7" type="curve"/>
      <point x="222" y="18" type="line"/>
      <point x="144" y="79"/>
      <point x="100" y="167"/>
      <point x="100" y="237" type="curve" smooth="yes"/>
      <point x="100" y="294"/>
      <point x="128" y="333"/>
      <point x="191" y="333" type="curve" smooth="yes"/>
    </contour>
    <contour>
      <point x="537" y="506" type="line"/>
      <point x="509" y="570" type="line"/>
      <point x="-30" y="570" type="line"/>
      <point x="-2" y="506" type="line"/>
    </contour>
    <component base="stem-deva" xOffset="-14"/>
    <contour>
      <point x="-28" y="0" type="move" name="nukta"/>
    </contour>
    <contour>
      <point x="370" y="0" type="move" name="bottom"/>
    </contour>
    <contour>
      <point x="370" y="580" type="move" name="top"/>
    </contour>
  </outline>
</glyph>
<glyph name="tha-deva" format="1">
  <advance width="683"/>
  <unicode hex="0925"/>
  <outline>
    <contour>
      <point x="503" y="305" type="line"/>
      <point x="391" y="179"/>
      <point x="201" y="127"/>
      <point x="153" y="282" type="curve"/>
      <point x="271" y="294"/>
      <point x="333" y="394"/>
      <point x="333" y="482" type="curve" smooth="yes"/>
      <point x="333" y="582"/>
      <point x="253" y="647"/>
      <point x="161" y="647" type="curve" smooth="yes"/>
      <point x="84" y="647"/>
      <point x="45" y="602"/>
      <point x="45" y="547" type="curve" smooth="yes"/>
      <point x="45" y="461"/>
      <point x="136" y="379"/>
      <point x="228" y="334" type="curve"/>
      <point x="247" y="372" type="line"/>
      <point x="172" y="404"/>
      <point x="126" y="476"/>
      <point x="126" y="534" type="curve" smooth="yes"/>
      <point x="126" y="580"/>
      <point x="155" y="606"/>
      <point x="184" y="606" type="curve" smooth="yes"/>
      <point x="218" y="606"/>
      <point x="252" y="572"/>
      <point x="252" y="500" type="curve" smooth="yes"/>
      <point x="252" y="405"/>
      <point x="199" y="330"/>
      <point x="74" y="321" type="curve"/>
      <point x="106" y="92"/>
      <point x="323" y="55"/>
      <point x="503" y="181" type="curve"/>
    </contour>
    <contour>
      <point x="374" y="627" type="line"/>
      <point x="404" y="547" type="line"/>
      <point x="502" y="547" type="line"/>
      <point x="502" y="0" type="line"/>
      <point x="589" y="-49" type="line"/>
      <point x="589" y="547" type="line"/>
      <point x="698" y="547" type="line"/>
      <point x="668" y="627" type="line"/>
    </contour>
  </outline>
</glyph>
<glyph name="da-deva" format="1">
  <advance width="595"/>
  <unicode hex="0926"/>
  <outline>
    <contour>
      <point x="426" y="22" type="line"/>
      <point x="451" y="-38"/>
      <point x="475" y="-81"/>
      <point x="522" y="-148" type="curve"/>
      <point x="584" y="-73" type="line"/>
      <point x="542" y="-25"/>
      <point x="512" y="12"/>
      <point x="487" y="60" type="curve"/>
    </contour>
    <contour>
      <point x="482" y="33" type="line"/>
      <point x="511" y="59"/>
      <point x="527" y="91"/>
      <point x="527" y="122" type="curve" smooth="yes"/>
      <point x="527" y="179"/>
      <point x="460" y="203"/>
      <point x="425" y="203" type="curve" smooth="yes"/>
      <point x="378" y="203"/>
      <point x="368" y="170"/>
      <point x="396" y="98" type="curve"/>
      <point x="249" y="17"/>
      <point x="152" y="87"/>
      <point x="152" y="230" type="curve" smooth="yes"/>
      <point x="152" y="323"/>
      <point x="189" y="366"/>
      <point x="289" y="366" type="curve" smooth="yes"/>
      <point x="467" y="366" type="line"/>
      <point x="467" y="547" type="line"/>
      <point x="610" y="547" type="line"/>
      <point x="580" y="627" type="line"/>
      <point x="-15" y="627" type="line"/>
      <point x="15" y="547" type="line"/>
      <point x="380" y="547" type="line"/>
      <point x="380" y="446" type="line"/>
      <point x="279" y="446" type="line" smooth="yes"/>
      <point x="134" y="446"/>
      <point x="65" y="382"/>
      <point x="65" y="281" type="curve" smooth="yes"/>
      <point x="65" y="111"/>
      <point x="177" y="-5"/>
      <point x="346" y="-5" type="curve" smooth="yes"/>
      <point x="385" y="-5"/>
      <point x="418" y="2"/>
      <point x="445" y="13" type="curve"/>
    </contour>
    <contour>
      <point x="448" y="666" type="move" name="mark0"/>
    </contour>
  </outline>
</glyph>
<glyph name="dha-deva" format="1">
  <advance width="649"/>
  <unicode hex="0927"/>
  <outline>
    <contour>
      <point x="484" y="270" type="line"/>
      <point x="447" y="191"/>
      <point x="367" y="152"/>
      <point x="263" y="152" type="curve" smooth="yes"/>
      <point x="157" y="152"/>
      <point x="116" y="192"/>
      <point x="116" y="238" type="curve" smooth="yes"/>
      <point x="116" y="294"/>
      <point x="176" y="344"/>
      <point x="299" y="344" type="curve"/>
      <point x="299" y="432" type="line"/>
      <point x="144" y="432"/>
      <point x="65" y="337"/>
      <point x="65" y="241" type="curve" smooth="yes"/>
      <point x="65" y="153"/>
      <point x="131" y="74"/>
      <point x="268" y="74" type="curve" smooth="yes"/>
      <point x="372" y="74"/>
      <point x="466" y="117"/>
      <point x="515" y="184" type="curve"/>
    </contour>
    <contour>
      <point x="305" y="547" type="line"/>
      <point x="285" y="626"/>
      <point x="228" y="667"/>
      <point x="154" y="667" type="curve" smooth="yes"/>
      <point x="66" y="667"/>
      <point x="25" y="609"/>
      <point x="25" y="543" type="curve" smooth="yes"/>
      <point x="25" y="456"/>
      <point x="97" y="354"/>
      <point x="228" y="354" type="curve"/>
      <point x="228" y="389" type="line"/>
      <point x="147" y="389"/>
      <point x="99" y="460"/>
      <point x="99" y="519" type="curve" smooth="yes"/>
      <point x="99" y="562"/>
      <point x="124" y="599"/>
      <point x="176" y="599" type="curve" smooth="yes"/>
      <point x="215" y="599"/>
      <point x="246" y="578"/>
      <point x="266" y="538" type="curve"/>
    </contour>
    <contour>
      <point x="330" y="627" type="line"/>
      <point x="360" y="547" type="line"/>
      <point x="461" y="547" type="line"/>
      <point x="461" y="0" type="line"/>
      <point x="548" y="-49" type="line"/>
      <point x="548" y="547" type="line"/>
      <point x="664" y="547" type="line"/>
      <point x="634" y="627" type="line"/>
    </contour>
    <contour>
      <point x="508" y="664" type="move" name="mark0"/>
    </contour>
  </outline>
</glyph>
<glyph name="na-deva" format="1">
  <advance width="614"/>
  <unicode hex="0928"/>
  <outline>
    <contour>
      <point x="571" y="570" type="line"/>
      <point x="15" y="570" type="line"/>
      <point x="43" y="506" type="line"/>
      <point x="393" y="506" type="line"/>
      <point x="393" y="346" type="line"/>
      <point x="176" y="346" type="line"/>
      <point x="177" y="282" type="line"/>
      <point x="393" y="282" type="line"/>
      <point x="393" y="0" type="line"/>
      <point x="472" y="0" type="line"/>
      <point x="472" y="506" type="line"/>
      <point x="599" y="506" type="line"/>
    </contour>
    <component base="deva_knot" xOffset="66" yOffset="23"/>
    <contour>
      <point x="453" y="664" type="move" name="mark0"/>
    </contour>
  </outline>
</glyph>
<glyph name="nnna-deva" format="1">
  <advance width="585"/>
  <unicode hex="0929"/>
  <outline>
    <component base="na-deva"/>
    <component base="period" xOffset="100"/>
    <contour>
      <point x="452" y="666" type="move" name="mark0"/>
    </contour>
  </outline>
</glyph>
<glyph name="pa-deva" format="1">
  <advance width="631"/>
  <unicode hex="092A"/>
  <outline>
    <contour>
      <point x="448" y="265" type="line"/>
      <point x="409" y="218"/>
      <point x="358" y="165"/>
      <point x="284" y="165" type="curve" smooth="yes"/>
      <point x="236" y="165"/>
      <point x="199" y="188"/>
      <point x="199" y="265" type="curve" smooth="yes"/>
      <point x="199" y="526" type="line"/>
      <point x="120" y="526" type="line"/>
      <point x="120" y="355" type="line" smooth="yes"/>
      <point x="120" y="209"/>
      <point x="181" y="117"/>
      <point x="300" y="117" type="curve" smooth="yes"/>
      <point x="359" y="117"/>
      <point x="428" y="140"/>
      <point x="481" y="196" type="curve"/>
    </contour>
    <contour>
      <point x="15" y="570" type="line"/>
      <point x="43" y="506" type="line"/>
      <point x="411" y="506" type="line"/>
      <point x="411" y="0" type="line"/>
      <point x="490" y="0" type="line"/>
      <point x="490" y="506" type="line"/>
      <point x="616" y="506" type="line"/>
      <point x="588" y="570" type="line"/>
    </contour>
    <contour>
      <point x="447" y="664" type="move" name="mark0"/>
    </contour>
  </outline>
</glyph>
<glyph name="pha-deva" format="1">
  <advance width="860"/>
  <unicode hex="092B"/>
  <note>
    dPha
  </note>
  <outline>
    <contour>
      <point x="438" y="315" type="line"/>
      <point x="401" y="216"/>
      <point x="354" y="165"/>
      <point x="284" y="165" type="curve" smooth="yes"/>
      <point x="236" y="165"/>
      <point x="199" y="188"/>
      <point x="199" y="265" type="curve" smooth="yes"/>
      <point x="199" y="526" type="line"/>
      <point x="120" y="526" type="line"/>
      <point x="120" y="355" type="line" smooth="yes"/>
      <point x="120" y="209"/>
      <point x="181" y="117"/>
      <point x="300" y="117" type="curve" smooth="yes"/>
      <point x="366" y="117"/>
      <point x="431" y="149"/>
      <point x="471" y="226" type="curve"/>
    </contour>
    <contour>
      <point x="15" y="570" type="line"/>
      <point x="43" y="506" type="line"/>
      <point x="411" y="506" type="line"/>
      <point x="411" y="0" type="line"/>
      <point x="490" y="0" type="line"/>
      <point x="490" y="506" type="line"/>
      <point x="845" y="506" type="line"/>
      <point x="817" y="570" type="line"/>
    </contour>
    <contour>
      <point x="606" y="410"/>
      <point x="548" y="381"/>
      <point x="478" y="310" type="curve"/>
      <point x="487" y="233" type="line"/>
      <point x="550" y="295"/>
      <point x="627" y="338"/>
      <point x="680" y="338" type="curve" smooth="yes"/>
      <point x="723" y="338"/>
      <point x="741" y="316"/>
      <point x="741" y="279" type="curve" smooth="yes"/>
      <point x="741" y="221"/>
      <point x="698" y="133"/>
      <point x="607" y="98" type="curve"/>
      <point x="655" y="26" type="line"/>
      <point x="749" y="77"/>
      <point x="788" y="159"/>
      <point x="788" y="242" type="curve" smooth="yes"/>
      <point x="788" y="330"/>
      <point x="742" y="410"/>
      <point x="658" y="410" type="curve" smooth="yes"/>
    </contour>
    <contour>
      <point x="61" y="0" type="move" name="nukta"/>
    </contour>
    <contour>
      <point x="61" y="0" type="move" name="bottom"/>
    </contour>
    <contour>
      <point x="61" y="0" type="move" name="top"/>
    </contour>
  </outline>
</glyph>
<glyph name="ba-deva" format="1">
  <advance width="621"/>
  <unicode hex="092C"/>
  <outline>
    <contour>
      <point x="-15" y="627" type="line"/>
      <point x="15" y="547" type="line"/>
      <point x="413" y="547" type="line"/>
      <point x="413" y="0" type="line"/>
      <point x="500" y="-49" type="line"/>
      <point x="500" y="547" type="line"/>
      <point x="636" y="547" type="line"/>
      <point x="606" y="627" type="line"/>
    </contour>
    <contour>
      <point x="31" y="513"/>
      <point x="31" y="310" type="curve" smooth="yes"/>
      <point x="31" y="181"/>
      <point x="119" y="104"/>
      <point x="219" y="104" type="curve" smooth="yes"/>
      <point x="281" y="104"/>
      <point x="379" y="134"/>
      <point x="424" y="179" type="curve"/>
      <point x="424" y="280" type="line"/>
      <point x="362" y="228"/>
      <point x="273" y="189"/>
      <point x="202" y="189" type="curve" smooth="yes"/>
      <point x="124" y="189"/>
      <point x="80" y="236"/>
      <point x="80" y="310" type="curve" smooth="yes"/>
      <point x="80" y="444"/>
      <point x="236" y="414"/>
      <point x="380" y="369" type="curve"/>
      <point x="383" y="458" type="line"/>
      <point x="221" y="504"/>
    </contour>
    <contour>
      <point x="192" y="469" type="line"/>
      <point x="146" y="431" type="line"/>
      <point x="358" y="161" type="line"/>
      <point x="404" y="199" type="line"/>
    </contour>
    <contour>
      <point x="421" y="666" type="move" name="mark0"/>
    </contour>
  </outline>
</glyph>
<glyph name="bha-deva" format="1">
  <advance width="675"/>
  <unicode hex="092D"/>
  <note>
    dBha
  </note>
  <outline>
    <contour>
      <point x="221" y="393" type="line"/>
      <point x="163" y="404"/>
      <point x="113" y="441"/>
      <point x="113" y="494" type="curve" smooth="yes"/>
      <point x="113" y="524"/>
      <point x="128" y="537"/>
      <point x="153" y="537" type="curve" smooth="yes"/>
      <point x="227" y="537"/>
      <point x="209" y="345"/>
      <point x="187" y="200" type="curve"/>
      <point x="477" y="200" type="line"/>
      <point x="477" y="-0" type="line"/>
      <point x="556" y="-0" type="line"/>
      <point x="556" y="506" type="line"/>
      <point x="660" y="506" type="line"/>
      <point x="632" y="570" type="line"/>
      <point x="343" y="570" type="line"/>
      <point x="371" y="506" type="line"/>
      <point x="477" y="506" type="line"/>
      <point x="477" y="264" type="line"/>
      <point x="276" y="264" type="line"/>
      <point x="306" y="452"/>
      <point x="234" y="592"/>
      <point x="124" y="592" type="curve" smooth="yes"/>
      <point x="73" y="592"/>
      <point x="40" y="560"/>
      <point x="40" y="508" type="curve" smooth="yes"/>
      <point x="40" y="418"/>
      <point x="158" y="360"/>
      <point x="217" y="360" type="curve"/>
    </contour>
    <component base="deva_knot" xOffset="73" yOffset="-59"/>
    <contour>
      <point x="534" y="664" type="move" name="mark0"/>
    </contour>
    <contour>
      <point x="260" y="0" type="move" name="nukta"/>
    </contour>
    <contour>
      <point x="573" y="580" type="move" name="top"/>
    </contour>
    <contour>
      <point x="573" y="0" type="move" name="bottom"/>
    </contour>
  </outline>
</glyph>
<glyph name="madeva" format="1">
  <advance width="527"/>
  <unicode hex="092E"/>
  <note>
    dMa
  </note>
  <outline>
    <contour>
      <point x="84" y="391" type="line"/>
      <point x="84" y="200" type="line"/>
      <point x="390" y="206" type="line"/>
      <point x="390" y="264" type="line"/>
      <point x="163" y="264" type="line"/>
      <point x="163" y="391" type="line"/>
    </contour>
    <contour>
      <point x="-30" y="570" type="line"/>
      <point x="-2" y="506" type="line"/>
      <point x="557" y="506" type="line"/>
      <point x="529" y="570" type="line"/>
    </contour>
    <component base="deva_knot" xOffset="-30" yOffset="-59"/>
    <component base="stem-deva" xOffset="26"/>
    <component base="stem-short-deva" xOffset="-252"/>
    <contour>
      <point x="90" y="0" type="move" name="nukta"/>
    </contour>
    <contour>
      <point x="415" y="0" type="move" name="bottom"/>
    </contour>
    <contour>
      <point x="415" y="570" type="move" name="top"/>
    </contour>
  </outline>
</glyph>
<glyph name="ya-deva" format="1">
  <advance width="642"/>
  <unicode hex="092F"/>
  <outline>
    <contour>
      <point x="-15" y="627" type="line"/>
      <point x="15" y="547" type="line"/>
      <point x="451" y="547" type="line"/>
      <point x="451" y="0" type="line"/>
      <point x="538" y="-49" type="line"/>
      <point x="538" y="547" type="line"/>
      <point x="657" y="547" type="line"/>
      <point x="627" y="627" type="line"/>
    </contour>
    <contour>
      <point x="122" y="579" type="line"/>
      <point x="178" y="495"/>
      <point x="178" y="379"/>
      <point x="63" y="323" type="curve"/>
      <point x="117" y="110"/>
      <point x="252" y="56"/>
      <point x="452" y="151" type="curve"/>
      <point x="452" y="265" type="line"/>
      <point x="320" y="179"/>
      <point x="192" y="179"/>
      <point x="144" y="294" type="curve"/>
      <point x="251" y="344"/>
      <point x="287" y="447"/>
      <point x="213" y="579" type="curve"/>
    </contour>
    <contour>
      <point x="496" y="664" type="move" name="mark0"/>
    </contour>
  </outline>
</glyph>
<glyph name="ra-deva" format="1">
  <advance width="485"/>
  <unicode hex="0930"/>
  <outline>
    <contour>
      <point x="-15" y="627" type="line"/>
      <point x="15" y="547" type="line"/>
      <point x="500" y="547" type="line"/>
      <point x="470" y="627" type="line"/>
    </contour>
    <contour>
      <point x="180" y="575" type="line"/>
      <point x="190" y="429"/>
      <point x="180" y="354"/>
      <point x="162" y="315" type="curve"/>
      <point x="147" y="332"/>
      <point x="131" y="340"/>
      <point x="107" y="340" type="curve" smooth="yes"/>
      <point x="68" y="340"/>
      <point x="50" y="311"/>
      <point x="50" y="276" type="curve" smooth="yes"/>
      <point x="50" y="236"/>
      <point x="81" y="213"/>
      <point x="117" y="213" type="curve" smooth="yes"/>
      <point x="206" y="213"/>
      <point x="288" y="328"/>
      <point x="268" y="575" type="curve"/>
    </contour>
    <contour>
      <point x="389" y="80" type="line"/>
      <point x="280" y="98"/>
      <point x="191" y="168"/>
      <point x="135" y="299" type="curve"/>
      <point x="93" y="279" type="line"/>
      <point x="146" y="121"/>
      <point x="254" y="37"/>
      <point x="375" y="7" type="curve"/>
    </contour>
    <contour>
      <point x="344" y="664" type="move" name="mark0"/>
    </contour>
  </outline>
</glyph>
<glyph name="rra-deva" format="1">
  <advance width="465"/>
  <unicode hex="0931"/>
  <outline>
    <contour>
      <point x="-15" y="627" type="line"/>
      <point x="15" y="547" type="line"/>
      <point x="480" y="547" type="line"/>
      <point x="450" y="627" type="line"/>
    </contour>
    <contour>
      <point x="210" y="575" type="line"/>
      <point x="220" y="429"/>
      <point x="210" y="354"/>
      <point x="192" y="315" type="curve"/>
      <point x="177" y="332"/>
      <point x="161" y="340"/>
      <point x="137" y="340" type="curve" smooth="yes"/>
      <point x="98" y="340"/>
      <point x="80" y="311"/>
      <point x="80" y="276" type="curve" smooth="yes"/>
      <point x="80" y="236"/>
      <point x="111" y="213"/>
      <point x="147" y="213" type="curve" smooth="yes"/>
      <point x="236" y="213"/>
      <point x="318" y="328"/>
      <point x="298" y="575" type="curve"/>
    </contour>
    <contour>
      <point x="419" y="80" type="line"/>
      <point x="310" y="98"/>
      <point x="221" y="168"/>
      <point x="165" y="299" type="curve"/>
      <point x="123" y="279" type="line"/>
      <point x="176" y="121"/>
      <point x="284" y="37"/>
      <point x="405" y="7" type="curve"/>
    </contour>
    <component base="period" xOffset="-30"/>
    <contour>
      <point x="355" y="665" type="move" name="mark0"/>
    </contour>
  </outline>
</glyph>
<glyph name="la-deva" format="1">
  <advance width="777"/>
  <unicode hex="0932"/>
  <outline>
    <contour>
      <point x="388" y="308"/>
      <point x="434" y="359"/>
      <point x="488" y="359" type="curve" smooth="yes"/>
      <point x="515" y="359"/>
      <point x="544" y="347"/>
      <point x="573" y="323" type="curve"/>
      <point x="588" y="349" type="line"/>
      <point x="550" y="396"/>
      <point x="507" y="419"/>
      <point x="456" y="419" type="curve" smooth="yes"/>
      <point x="371" y="419"/>
      <point x="323" y="343"/>
      <point x="288" y="227" type="curve"/>
      <point x="358" y="198" type="line"/>
    </contour>
    <contour>
      <point x="321" y="384"/>
      <point x="269" y="419"/>
      <point x="193" y="419" type="curve" smooth="yes"/>
      <point x="102" y="419"/>
      <point x="71" y="350"/>
      <point x="71" y="291" type="curve" smooth="yes"/>
      <point x="71" y="175"/>
      <point x="190" y="56"/>
      <point x="327" y="-17" type="curve"/>
      <point x="348" y="21" type="line"/>
      <point x="234" y="100"/>
      <point x="156" y="187"/>
      <point x="156" y="289" type="curve" smooth="yes"/>
      <point x="156" y="339"/>
      <point x="185" y="359"/>
      <point x="228" y="359" type="curve" smooth="yes"/>
      <point x="269" y="359"/>
      <point x="307" y="344"/>
      <point x="345" y="318" type="curve"/>
      <point x="371" y="342" type="line"/>
    </contour>
    <contour>
      <point x="15" y="570" type="line"/>
      <point x="43" y="506" type="line"/>
      <point x="551" y="506" type="line"/>
      <point x="551" y="0" type="line"/>
      <point x="630" y="0" type="line"/>
      <point x="630" y="506" type="line"/>
      <point x="762" y="506" type="line"/>
      <point x="734" y="570" type="line"/>
    </contour>
    <contour>
      <point x="614" y="664" type="move" name="mark0"/>
    </contour>
  </outline>
</glyph>
<glyph name="lla-deva" format="1">
  <advance width="831"/>
  <unicode hex="0933"/>
  <outline>
    <contour>
      <point x="-15" y="627" type="line"/>
      <point x="15" y="547" type="line"/>
      <point x="583" y="547" type="line"/>
      <point x="583" y="440" type="line"/>
      <point x="670" y="421" type="line"/>
      <point x="670" y="547" type="line"/>
      <point x="846" y="547" type="line"/>
      <point x="816" y="627" type="line"/>
    </contour>
    <contour>
      <point x="449" y="345" type="line"/>
      <point x="385" y="432"/>
      <point x="325" y="475"/>
      <point x="246" y="475" type="curve" smooth="yes"/>
      <point x="157" y="475"/>
      <point x="78.9999" y="421"/>
      <point x="79" y="296" type="curve" smooth="yes"/>
      <point x="78.9999" y="171"/>
      <point x="157" y="94"/>
      <point x="274" y="94" type="curve" smooth="yes"/>
      <point x="358" y="94"/>
      <point x="415" y="135"/>
      <point x="481" y="267" type="curve" smooth="yes"/>
      <point x="525" y="354"/>
      <point x="560" y="390"/>
      <point x="621" y="390" type="curve" smooth="yes"/>
      <point x="690" y="390"/>
      <point x="734" y="343"/>
      <point x="734" y="274" type="curve" smooth="yes"/>
      <point x="734" y="210"/>
      <point x="695" y="174"/>
      <point x="633" y="174" type="curve" smooth="yes"/>
      <point x="579" y="174"/>
      <point x="522" y="200"/>
      <point x="452" y="250" type="curve"/>
      <point x="417" y="186" type="line"/>
      <point x="480" y="125"/>
      <point x="541" y="94"/>
      <point x="611" y="94.0001" type="curve" smooth="yes"/>
      <point x="705" y="94.0001"/>
      <point x="783" y="148"/>
      <point x="783" y="269" type="curve" smooth="yes"/>
      <point x="783" y="398"/>
      <point x="695" y="475"/>
      <point x="599" y="475" type="curve" smooth="yes"/>
      <point x="538" y="475"/>
      <point x="468" y="444"/>
      <point x="430" y="352" type="curve" smooth="yes"/>
      <point x="365" y="195"/>
      <point x="306" y="179"/>
      <point x="253" y="179" type="curve" smooth="yes"/>
      <point x="162" y="179"/>
      <point x="128" y="226"/>
      <point x="128" y="295" type="curve" smooth="yes"/>
      <point x="128" y="359"/>
      <point x="157" y="395"/>
      <point x="229" y="395" type="curve" smooth="yes"/>
      <point x="296" y="395"/>
      <point x="353" y="365"/>
      <point x="428" y="295" type="curve"/>
    </contour>
  </outline>
</glyph>
<glyph name="llla-deva" format="1">
  <advance width="796"/>
  <unicode hex="0934"/>
  <outline>
    <component base="lla-deva"/>
    <component base="nukta-deva" xOffset="269" yOffset="158"/>
    <contour>
      <point x="515" y="664" type="move" name="mark0"/>
    </contour>
  </outline>
</glyph>
<glyph name="vadeva" format="1">
  <advance width="555"/>
  <unicode hex="0935"/>
  <note>
    dVa
  </note>
  <outline>
    <contour>
      <point x="-30" y="570" type="line"/>
      <point x="-2" y="506" type="line"/>
      <point x="585" y="506" type="line"/>
      <point x="557" y="570" type="line"/>
    </contour>
    <contour>
      <point x="109" y="413"/>
      <point x="44" y="362"/>
      <point x="44" y="262" type="curve" smooth="yes"/>
      <point x="44" y="155"/>
      <point x="121" y="75"/>
      <point x="232" y="75" type="curve" smooth="yes"/>
      <point x="288" y="75"/>
      <point x="340" y="92"/>
      <point x="411" y="143" type="curve"/>
      <point x="411" y="226" type="line"/>
      <point x="359" y="171"/>
      <point x="275" y="142"/>
      <point x="198" y="142" type="curve" smooth="yes"/>
      <point x="145" y="142"/>
      <point x="95" y="168"/>
      <point x="95" y="234" type="curve" smooth="yes"/>
      <point x="95" y="293"/>
      <point x="130" y="338"/>
      <point x="208" y="338" type="curve" smooth="yes"/>
      <point x="260" y="338"/>
      <point x="336" y="317"/>
      <point x="419" y="259" type="curve"/>
      <point x="421" y="317" type="line"/>
      <point x="326" y="393"/>
      <point x="278" y="413"/>
      <point x="205" y="413" type="curve" smooth="yes"/>
    </contour>
    <component base="stem-deva" xOffset="27"/>
    <contour>
      <point x="70" y="0" type="move" name="nukta"/>
    </contour>
    <contour>
      <point x="416" y="0" type="move" name="bottom"/>
    </contour>
    <contour>
      <point x="416" y="570" type="move" name="top"/>
    </contour>
  </outline>
</glyph>
<glyph name="sha-deva" format="1">
  <advance width="768"/>
  <unicode hex="0936"/>
  <outline>
    <contour>
      <point x="361" y="-60" type="line"/>
      <point x="410" y="-22" type="line"/>
      <point x="223" y="172" type="line"/>
      <point x="166" y="165" type="line"/>
    </contour>
    <contour>
      <point x="344" y="283" type="line"/>
      <point x="272" y="324"/>
      <point x="242" y="374"/>
      <point x="242" y="432" type="curve" smooth="yes"/>
      <point x="242" y="478"/>
      <point x="258" y="506"/>
      <point x="292" y="506" type="curve" smooth="yes"/>
      <point x="331" y="506"/>
      <point x="356" y="465"/>
      <point x="356" y="404" type="curve" smooth="yes"/>
      <point x="356" y="269"/>
      <point x="224" y="176"/>
      <point x="202" y="215" type="curve"/>
      <point x="208" y="231"/>
      <point x="212" y="245"/>
      <point x="212" y="256" type="curve" smooth="yes"/>
      <point x="212" y="287"/>
      <point x="185" y="306"/>
      <point x="157" y="306" type="curve" smooth="yes"/>
      <point x="127" y="306"/>
      <point x="95" y="285"/>
      <point x="95" y="242" type="curve" smooth="yes"/>
      <point x="95" y="190"/>
      <point x="149" y="154"/>
      <point x="206" y="154" type="curve" smooth="yes"/>
      <point x="297" y="154"/>
      <point x="436" y="244"/>
      <point x="436" y="390" type="curve" smooth="yes"/>
      <point x="436" y="502"/>
      <point x="357" y="543"/>
      <point x="280" y="543" type="curve" smooth="yes"/>
      <point x="203" y="543"/>
      <point x="164" y="502"/>
      <point x="164" y="438" type="curve" smooth="yes"/>
      <point x="164" y="345"/>
      <point x="244" y="292"/>
      <point x="324" y="250" type="curve"/>
    </contour>
    <contour>
      <point x="15" y="570" type="line"/>
      <point x="43" y="506" type="line"/>
      <point x="548" y="506" type="line"/>
      <point x="548" y="0" type="line"/>
      <point x="627" y="0" type="line"/>
      <point x="627" y="506" type="line"/>
      <point x="753" y="506" type="line"/>
      <point x="725" y="570" type="line"/>
    </contour>
    <contour>
      <point x="1" y="0" type="move" name="mark0"/>
    </contour>
  </outline>
</glyph>
<glyph name="ssa-deva" format="1">
  <advance width="624"/>
  <unicode hex="0937"/>
  <outline>
    <contour>
      <point x="135" y="571" type="line"/>
      <point x="444" y="230" type="line"/>
      <point x="479" y="259" type="line" smooth="yes"/>
      <point x="159" y="604" type="line"/>
    </contour>
    <component base="pa-deva"/>
    <contour>
      <point x="439" y="666" type="move" name="mark0"/>
    </contour>
  </outline>
</glyph>
